<svg fill="none" xmlns="http://www.w3.org/2000/svg" viewBox="0 0 32 24"><path d="M32 12.6h-.4a3.9 3.9 0 0 0-2.2 2l.2-1.5v-.3l.1-.3c.3 0 .5-.2.7-.3.2-.2.4-.3.5-.6a5.1 5.1 0 0 0 .6-2.9h-.2a4 4 0 0 0-1 .9c-.4.5-.7 1.2-.8 1.9v-.3a61 61 0 0 1 0-1.1c-.1-.2-.2-.3-.1-.5l.3-.4s.4-.3.6-.8l.1-1.5a4.2 4.2 0 0 0-.3-1.5H30l-.1.1a3.3 3.3 0 0 0-.9 2.9 13 13 0 0 0-.6-1.5v-.4l.2-.1.2-.2.2-1a5.2 5.2 0 0 0-.8-2.7H28c-.4.6-.5 1.1-.5 1.8 0 .5 0 1 .2 1.3l-1-1.4a7.8 7.8 0 0 1 0-.4v-.1l.2-.2v-1A4 4 0 0 0 25.7.3H25.3v.1a4.3 4.3 0 0 0 .6 3 11.8 11.8 0 0 0-1.4-1.2c0-.3 0-.6-.2-.8-.3-.4-.6-.7-1-.8l-.9-.3-.4-.2H22v.1c.2.5.4 1 .7 1.2.5.6 1.1 1 1.8 1l.3.1.6.6a2 2 0 0 0-1-.2H23.4L23 3l-.2.1v.1c.4.4.8.7 1.3.8.6.2 1.1.2 1.6 0h.5l.9 1.1a2 2 0 0 0-1-.4h-1l-.2-.1h-.5v.1c.3.6.8 1 1.3 1.2.5.2 1 .3 1.4.2H27.7l.7 1.6c-.2-.3-.5-.5-.9-.6l-1.1-.5-.5-.2-.1.1s.5 1.4 1.3 1.9c.3.2.7.4 1.2.4.1 0 .3 0 .4.2l.1.1a13 13 0 0 1 .3 1.7c-.2-.4-.4-.8-.9-1.1l-.7-.5-.3-.3H26.9v.4c.1.7.3 1.3.7 1.8.3.3.7.7 1.2.9l.4.2v2l-.2-.4c0-.4-.3-.7-.5-1l-.8-.9a118.8 118.8 0 0 1-.4-.3c-.2.9 0 1.7.3 2.4.2.3.4.7.8 1 .2.2.4.4.4.6-.1.7-.4 1.3-.6 2v-1l-.5-1.4-.1-.2a308.2 308.2 0 0 1-.4-.6v.1c-.4.8-.5 1.6-.4 2.3 0 .5.2 1 .4 1.3.2.1.3.3.3.6l-1 1.5c.2-.5.3-1 .2-1.4v-1a35.5 35.5 0 0 1-.2-.7v-.1h-.2c-.5.6-.8 1.2-1 1.9a3 3 0 0 0 .2 1.8v.4a9 9 0 0 1-1.7 1.2l.7-1 .2-1.3.1-.5v-.2h-.1a3 3 0 0 0-1.8 2.9v.5h-.1a9.8 9.8 0 0 1-1.7.5v.1l.2.2a9.7 9.7 0 0 0 1.4-.3h.3c.2.4.6.7 1.2.8a3.2 3.2 0 0 0 .8.1h.4c.5 0 .9-.2 1.3-.3l.4-.3v-.1a4 4 0 0 0-1.2-.7 3.3 3.3 0 0 0-2-.1 9.7 9.7 0 0 0 1.6-1 3.4 3.4 0 0 1 .3 0 1.5 1.5 0 0 0 1.1.4c.5 0 1-.1 1.5-.4.4-.1.8-.3 1-.6l.2-.2.1-.1v-.1l-.3-.1c-.7-.3-1.5-.3-2.3-.1l-.7.3 1.2-1.4.3-.2h.3c.4.2.7.1 1.2 0l1-.8.8-1a2 2 0 0 0 0-.4c-.2 0-1.6 0-2.4.7a4 4 0 0 0-.5.5l.8-2 .2-.3h.5c.3 0 .6-.2.8-.4.7-.6 1-1.3 1.3-2.2v-.3l.1-.2Z" fill="url(#a)"/><path d="M10.8 23a9.8 9.8 0 0 1-1.6-.4V22a3 3 0 0 0-2-3v.8l.3 1.3.7 1a9 9 0 0 1-1.7-1.3v-.3a3 3 0 0 0 .2-1.8c-.2-.7-.5-1.3-1-1.9h-.2a14.8 14.8 0 0 0-.1.7l-.1 1.1c0 .4 0 .9.2 1.3a10.6 10.6 0 0 1-1-1.4l.2-.6c.3-.4.4-.8.5-1.3.1-.7 0-1.5-.3-2.2v-.1h-.2l-.3.5v.2l-.6 1.3v1a11.7 11.7 0 0 1-.6-2l.4-.5c.4-.3.6-.7.8-1a3.6 3.6 0 0 0 .3-2.4h-.1l-.3.3-.8.9-.5 1-.1.4-.2-1.6.1-.4.4-.2c.5-.2.9-.6 1.2-.9A3.6 3.6 0 0 0 5 9v-.2H4.8l-.3.3-.7.5a2.8 2.8 0 0 0-1 1.3 13 13 0 0 1 .4-2l.5-.2c.5 0 .9-.2 1.2-.4.8-.5 1.3-1.9 1.3-1.9H6l-.5.1-1.1.5c-.4.1-.7.3-.9.6L4.3 6l.4-.1h.2c.4.1.9 0 1.4-.2a3.1 3.1 0 0 0 1.4-1.2v-.1h-.8l-1 .1a2 2 0 0 0-1 .4A12.8 12.8 0 0 1 6 4h.4c.5.2 1 .2 1.6 0a2.7 2.7 0 0 0 1.3-.8V3H9l-.4-.1h-.2l-.7-.1a2 2 0 0 0-1 .2 11 11 0 0 1 .9-.8c.7 0 1.3-.3 1.8-.9.3-.3.5-.7.7-1.2a37.6 37.6 0 0 1-.6.2c-.3 0-.6 0-.8.2-.5.1-.8.4-1.1.8a1 1 0 0 0-.2.8c-.5.3-1 .7-1.4 1.2.3-.4.5-.9.6-1.4a4.3 4.3 0 0 0 0-1.7h-.2L6 .4A4 4 0 0 0 5 2.6v.9l.2.2v.1a8 8 0 0 1 0 .4l-1 1.4c.2-.3.3-.8.2-1.3 0-.7-.1-1.2-.5-1.8h-.1v.1l-.6 1.1L3 5.2c0 .4 0 .7.2 1l.2.2h.1V7L3 8.4v-.5c0-1-.2-1.7-.9-2.4v-.1h-.2a5.6 5.6 0 0 1-.1.2L1.6 7l.1 1.5c.2.5.5.8.6.8l.3.3v.8l-.1 1v.2c-.1-.7-.4-1.4-.8-2a4 4 0 0 0-1-.8H.6v.1l-.1.3c0 1 .2 1.8.6 2.5.1.3.3.4.5.6a1.3 1.3 0 0 0 .6.3l.2.3V13c0 .7 0 1 .2 1.6a3.9 3.9 0 0 0-2.2-2l-.2-.1a6.5 6.5 0 0 1-.2 0v.5c.3.9.7 1.6 1.4 2.2.2.2.5.4.8.4h.4l.3.3.8 2a4 4 0 0 0-.5-.5c-.8-.7-2.2-.8-2.4-.8v.5l.8 1c.3.3.6.6 1 .7.5.2.8.3 1.2.2H4c0-.1.1-.1.1 0H4.4l1.2 1.5-.7-.3a3.7 3.7 0 0 0-2.6.2v.2l.2.2c.3.3.7.5 1 .6a3.8 3.8 0 0 0 1.6.4c.5 0 .8-.1 1.1-.4a3.3 3.3 0 0 1 .4 0l1.4 1h-.2c-.6-.2-1.1-.1-1.7.1a4 4 0 0 0-1.2.7l.4.4 1.3.3H7a4.7 4.7 0 0 0 .8 0c.6-.2 1-.5 1.2-.9h.3a9.7 9.7 0 0 0 1.3.3l.2-.2V23Z" fill="url(#b)"/><path d="M15.5 18.2a5 5 0 0 1-2-.4c-.6-.3-1-.7-1.5-1.2-.3-.6-.5-1.2-.5-2h2c0 .5.2 1 .5 1.3.4.4.9.6 1.5.6s1-.2 1.4-.5c.3-.4.4-.8.4-1.3 0-.6-.2-1-.6-1.3-.4-.3-1-.5-1.6-.5h-.8v-1.7h.8c.5 0 1 0 1.4-.3.3-.3.5-.7.5-1.2 0-.4-.1-.7-.4-1-.3-.2-.6-.3-1.1-.3-.6 0-1 .1-1.3.4-.2.3-.4.7-.4 1.2h-2c0-1 .4-1.9 1-2.5.7-.6 1.6-.9 2.7-.9a4 4 0 0 1 2 .4A2.8 2.8 0 0 1 19 9.6a2.5 2.5 0 0 1-1.8 2.4c.6.2 1.2.5 1.6 1 .3.5.5 1 .5 1.8 0 .6-.1 1.2-.4 1.7-.3.5-.7 1-1.3 1.2-.6.3-1.3.5-2.1.5Z" fill="url(#c)"/><defs><linearGradient id="a" x1="26.6" y1="0" x2="26.6" y2="24" gradientUnits="userSpaceOnUse"><stop stop-color="#E25B1C"/><stop offset="1" stop-color="#83513B"/></linearGradient><linearGradient id="b" x1="5.4" y1="0" x2="5.4" y2="24" gradientUnits="userSpaceOnUse"><stop stop-color="#E25B1C"/><stop offset="1" stop-color="#83513B"/></linearGradient><linearGradient id="c" x1="15.5" y1="5" x2="15.5" y2="21" gradientUnits="userSpaceOnUse"><stop stop-color="#E25B1C"/><stop offset="1" stop-color="#83513B"/></linearGradient></defs></svg>