<svg width="120" height="80" viewBox="0 0 120 80" fill="none" xmlns="http://www.w3.org/2000/svg">
<path fill-rule="evenodd" clip-rule="evenodd" d="M48.5004 21.1916L42.3934 59.8349H52.1641L58.2718 21.1916H48.5004ZM34.1726 21.1916L24.8569 47.7701L23.755 42.0469L23.7558 42.0487L23.5129 40.766C22.3855 38.2642 19.7743 33.5094 14.8437 29.4515C13.386 28.2521 11.9166 27.2284 10.4961 26.3541L18.9626 59.8349H29.1429L44.6889 21.1916H34.1726ZM72.306 31.9198C72.306 27.5508 81.8219 28.1122 86.0032 30.4845L87.3974 22.185C87.3974 22.185 83.0943 20.5 78.609 20.5C73.7598 20.5 62.2452 22.6834 62.2452 33.2926C62.2452 43.2771 75.7599 43.4012 75.7599 48.6432C75.7599 53.8852 63.6386 52.9484 59.6384 49.6416L58.1846 58.3166C58.1846 58.3166 62.5473 60.5 69.2149 60.5C75.8817 60.5 85.9423 56.9438 85.9423 47.2704C85.9423 37.2234 72.306 36.2877 72.306 31.9198ZM112.178 21.1916H104.322C100.694 21.1916 99.8109 24.0715 99.8109 24.0715L85.2396 59.8349H95.4238L97.4611 54.0953H109.883L111.029 59.8349H120L112.178 21.1916ZM100.277 46.1653L105.411 31.7041L108.3 46.1653H100.277Z" fill="white"/>
<path fill-rule="evenodd" clip-rule="evenodd" d="M20.594 24.8314C20.594 24.8314 20.1895 21.3438 15.8715 21.3438H0.183756L0 21.9992C0 21.9992 7.54078 23.5818 14.7752 29.5112C21.6887 35.1782 23.944 42.2424 23.944 42.2424L20.594 24.8314Z" fill="#C4C4C4"/>
</svg>
