<svg width="180" height="80" viewBox="0 0 180 80" fill="none" xmlns="http://www.w3.org/2000/svg">
<g clip-path="url(#clip0_2062_55905)">
<path d="M146.838 30.6565C148.664 29.2115 151.208 29.4111 153.391 29.7224C153.305 30.9159 153.235 32.1134 153.19 33.3109C152.111 33.0714 150.453 32.792 149.903 34.0294C149.563 35.151 149.747 36.3445 149.714 37.4941C150.769 37.4981 151.828 37.4981 152.89 37.5021C152.886 38.5639 152.886 39.6256 152.886 40.6874C151.828 40.6914 150.769 40.6914 149.714 40.6954C149.71 44.1521 149.71 47.6089 149.714 51.0656C148.278 51.0736 146.846 51.0696 145.414 51.0616C145.423 47.6049 145.418 44.1521 145.418 40.6954C144.458 40.6914 143.502 40.6914 142.542 40.6874C142.546 39.6256 142.546 38.5639 142.546 37.5021C143.502 37.4981 144.458 37.4981 145.418 37.4941C145.505 35.2069 144.947 32.4248 146.838 30.6565ZM49.5424 29.914H53.859C53.8713 34.217 53.8467 38.516 53.8713 42.8149C55.4592 41.0507 57.0267 39.2664 58.6105 37.4981C60.3872 37.4981 62.1639 37.5021 63.9447 37.4941C62.0326 39.4979 60.2026 41.5736 58.3479 43.6292C60.2928 46.0801 62.1065 48.6307 64.0678 51.0736C62.2542 51.0696 60.4405 51.0656 58.631 51.0736C57.0226 48.7904 55.4879 46.4593 53.8713 44.1841C53.8508 46.4793 53.8672 48.7744 53.859 51.0696H49.5424C49.5383 44.0164 49.5383 36.9672 49.5424 29.914ZM0 31.1115C4.03347 31.3271 8.21466 30.5607 12.1291 31.7741C15.026 32.7401 15.9246 36.6 14.1397 38.8832C13.4832 39.7294 12.4738 40.2004 11.4521 40.4998C12.4902 40.8032 13.6022 41.0786 14.4064 41.833C16.5032 43.6851 16.5606 47.3095 14.4352 49.1616C12.8923 50.5747 10.6807 50.9978 8.62909 51.0696C5.75273 51.0816 2.87636 51.0616 0 51.0696V31.1115ZM4.51355 34.708V39.0908C6.04816 39.0309 7.63611 39.2943 9.12968 38.8752C10.8612 38.4242 11.1239 35.6739 9.39229 35.0473C7.84947 34.4405 6.13433 34.7838 4.51355 34.708ZM4.51355 42.6912V47.4732C6.31487 47.3774 8.18594 47.7286 9.94212 47.2456C11.6696 46.7427 12.1291 44.1322 10.5043 43.246C8.66602 42.308 6.49951 42.803 4.51355 42.6912ZM72.4384 31.1115C77.7808 31.1115 83.1232 31.1075 88.4697 31.1155C88.4656 32.4447 88.4656 33.7699 88.4697 35.0991C86.5289 35.1071 84.5921 35.0872 82.6513 35.1271C82.6841 40.4399 82.6595 45.7528 82.6636 51.0696H78.2075C78.2075 45.7488 78.2034 40.428 78.2116 35.1071C76.2831 35.0991 74.3587 35.1031 72.4384 35.1031C72.4343 33.7739 72.4343 32.4407 72.4384 31.1115Z" fill="white"/>
<path d="M17.6478 39.2018C20.2985 37.1541 24.0694 36.4516 27.2453 37.6691C29.2189 38.4434 30.0888 40.5829 30.1832 42.5189C30.3391 45.3649 30.216 48.2149 30.257 51.0649C28.9235 51.0689 27.5858 51.0689 26.2523 51.0689C26.2605 50.6777 26.281 49.8914 26.2892 49.4962C24.4551 51.7914 20.6801 52.1187 18.3413 50.3943C16.105 48.7099 16.3758 44.83 18.8829 43.5168C21.1561 42.3113 23.8478 42.2834 26.3713 42.2674C26.1866 41.2974 25.6327 40.3394 24.5946 40.056C22.8918 39.4373 21.193 40.3794 19.9703 41.4771C19.203 40.7107 18.4274 39.9563 17.6478 39.2018ZM21.669 45.808C20.7335 46.3309 20.6965 47.9115 21.7223 48.3506C22.9943 49.0292 24.6808 48.63 25.6778 47.6681C26.359 46.9735 26.2154 45.9477 26.3056 45.0775C24.7464 45.0935 23.0272 44.9099 21.669 45.808ZM37.1874 39.2378C39.198 36.1602 45.0123 36.3079 46.1201 40.0481C46.9572 43.6565 46.395 47.4006 46.5551 51.0689H42.2631C42.2508 48.666 42.2877 46.267 42.2549 43.864C42.2221 42.8382 42.1769 41.5689 41.1839 40.9462C40.1294 40.3993 38.603 40.6348 37.9342 41.6527C37.4336 42.4271 37.4418 43.3771 37.4008 44.2632C37.372 46.5304 37.4049 48.7977 37.3926 51.0689H33.1293C33.1252 46.5424 33.1252 42.0199 33.1293 37.4974C34.4998 37.4974 35.8703 37.4974 37.2448 37.5014C37.2284 37.9365 37.1997 38.8027 37.1874 39.2378ZM94.3987 37.5413C95.4737 36.9785 96.7293 37.1062 97.9029 37.0903C97.8947 38.3875 97.8946 39.6848 97.9357 40.9821C96.5611 40.6548 94.9649 40.4113 93.734 41.2615C92.6959 41.9082 92.503 43.1895 92.4497 44.2951C92.3922 46.5504 92.4538 48.8097 92.4291 51.0689H88.1126C88.1085 46.5424 88.1085 42.0199 88.1126 37.4974C89.5528 37.4974 90.9971 37.4974 92.4415 37.5014C92.4291 38.192 92.4127 38.8825 92.3922 39.577C92.9708 38.8266 93.5042 37.9684 94.3987 37.5413ZM99.3062 39.2138C101.936 37.1462 105.72 36.4596 108.887 37.6651C110.865 38.4315 111.743 40.575 111.837 42.5109C111.993 45.3609 111.866 48.2149 111.911 51.0649C110.574 51.0689 109.24 51.0689 107.907 51.0689C107.915 50.6777 107.935 49.8914 107.943 49.4962C106.118 51.7874 102.355 52.1187 100.012 50.4103C97.7592 48.7338 98.0219 44.838 100.537 43.5168C102.81 42.3113 105.502 42.2794 108.026 42.2674C107.841 41.2855 107.271 40.3195 106.216 40.0441C104.525 39.4573 102.839 40.3714 101.641 41.4811C100.865 40.7226 100.09 39.9642 99.3062 39.2138ZM103.323 45.808C102.56 46.255 102.421 47.2968 102.884 47.9994C104.115 49.121 106.187 48.7697 107.32 47.684C108.013 46.9935 107.87 45.9557 107.96 45.0775C106.401 45.0895 104.681 44.9099 103.323 45.808ZM118.431 39.2338C120.45 36.1562 126.268 36.3119 127.368 40.06C128.197 43.6645 127.639 47.4046 127.799 51.0689H123.507C123.491 48.662 123.532 46.255 123.499 43.8521C123.458 42.8941 123.433 41.7884 122.645 41.0939C121.603 40.3394 119.872 40.575 119.166 41.6687C118.678 42.439 118.682 43.3771 118.645 44.2512C118.616 46.5225 118.649 48.7937 118.636 51.0689H114.369C114.369 46.5424 114.369 42.0199 114.373 37.4974C115.744 37.4974 117.114 37.4974 118.489 37.5014C118.472 37.9325 118.448 38.7987 118.431 39.2338ZM132.555 37.9245C135.328 36.5275 138.976 36.8787 141.389 38.8226C140.507 39.6808 139.624 40.535 138.742 41.3892C137.794 40.571 136.42 39.8605 135.177 40.5111C134.495 40.7586 134.315 41.9121 135.099 42.1516C136.867 42.918 139.034 42.7783 140.576 44.0477C142.669 45.7042 142.144 49.3565 139.756 50.5221C136.67 52.0389 132.624 51.8074 129.871 49.7078C130.737 48.7578 131.603 47.8078 132.481 46.8618C133.404 47.6681 134.516 48.4704 135.841 48.2868C136.674 48.3387 138.086 47.7838 137.417 46.766C135.558 45.5286 132.903 45.9756 131.25 44.339C129.428 42.475 130.249 39.0661 132.555 37.9245ZM156.374 38.7228C159.098 36.6791 163.472 36.3558 166.053 38.8107C167.859 40.531 168.138 43.1456 168.019 45.4807C164.666 45.5046 161.314 45.4288 157.962 45.5246C158.405 46.9496 159.562 48.3586 161.236 48.2947C162.545 48.3985 163.563 47.5323 164.4 46.6741C165.409 47.3847 166.419 48.0992 167.424 48.8256C164.671 52.003 159.345 52.3622 156.136 49.6479C152.829 46.9336 152.935 41.2974 156.374 38.7228ZM157.913 42.6506C159.882 42.7065 161.852 42.6905 163.825 42.6785C163.604 41.8922 163.341 41.026 162.529 40.6388C160.768 39.6369 158.327 40.7147 157.913 42.6506ZM176.734 37.4216C177.752 36.9865 178.888 37.1142 179.967 37.0903C179.959 38.3875 179.959 39.6848 180 40.9821C178.146 40.3913 175.359 40.5191 174.752 42.7105C174.215 45.4567 174.621 48.2868 174.494 51.0689H170.177C170.173 46.5424 170.173 42.0199 170.177 37.4974C171.617 37.4974 173.062 37.4974 174.506 37.5014C174.494 38.192 174.477 38.8825 174.457 39.577C175.089 38.7508 175.696 37.7968 176.734 37.4216Z" fill="white"/>
</g>
<defs>
<clipPath id="clip0_2062_55905">
<rect width="180" height="80" fill="white"/>
</clipPath>
</defs>
</svg>
