<svg width="160" height="80" viewBox="0 0 160 80" fill="none" xmlns="http://www.w3.org/2000/svg">
<path d="M24 64.5C37.2548 64.5 48 53.7548 48 40.5C48 27.2452 37.2548 16.5 24 16.5C10.7452 16.5 0 27.2452 0 40.5C0 53.7548 10.7452 64.5 24 64.5Z" fill="white"/>
<path d="M24.0027 63.5777C36.7477 63.5777 47.0796 53.2458 47.0796 40.5008C47.0796 27.7557 36.7477 17.4238 24.0027 17.4238C11.2577 17.4238 0.925781 27.7557 0.925781 40.5008C0.925781 53.2458 11.2577 63.5777 24.0027 63.5777Z" stroke="#C4C4C4" stroke-width="1.84884"/>
<g filter="url(#filter0_d_2062_40905)">
<path d="M33.5203 40.4046C32.5178 39.6513 31.0926 39.3486 31.0926 39.3486C31.0926 39.3486 32.3 38.6489 32.7911 37.951C33.2858 37.2513 33.5332 36.1695 33.5738 35.6064C33.6145 35.0452 33.7105 32.6876 31.8754 31.3307C30.4538 30.2802 28.8255 29.8649 26.6378 29.7282V24.9707H23.7061V29.6729H21.4723V24.9707H18.5369V29.6729H12.7695V32.719H14.4661C14.9277 32.719 15.7511 32.7689 16.1 33.1621C16.4508 33.5498 16.5117 33.7565 16.5117 34.5172V46.6538C16.5117 46.9418 16.4563 47.2999 16.2108 47.5307C15.9634 47.7652 15.716 47.8187 15.1271 47.8187H13.3732L12.7695 51.343H18.5406V56.0304H21.4741V51.3412H23.708V56.0304H26.6397V51.2636C27.3985 51.2193 28.1055 51.1621 28.5172 51.1067C29.3535 50.9978 31.2458 50.7781 33.0145 49.5449C34.7812 48.3116 35.18 46.3787 35.2206 44.431C35.2612 42.4852 34.5209 41.1559 33.5221 40.4027L33.5203 40.4046ZM21.4686 32.9867C21.4686 32.9867 22.4009 32.9055 23.3203 32.9184C24.2378 32.9332 25.0465 32.959 26.2538 33.3301C27.4594 33.6993 28.172 34.6039 28.1997 35.6747C28.2274 36.7436 27.7603 37.4562 26.9388 37.9085C26.1154 38.3609 24.9781 38.6064 23.9092 38.647C22.8403 38.6895 21.4686 38.647 21.4686 38.647V32.9885V32.9867ZM28.0354 47.0082C27.3634 47.3775 26.0194 47.7079 24.7178 47.8021C23.4163 47.8999 21.4686 47.8575 21.4686 47.8575V41.5713C21.4686 41.5713 23.3332 41.4753 24.7861 41.5713C26.2391 41.6673 27.4594 42.0365 28.0077 42.3116C28.556 42.5849 29.5141 43.1886 29.5141 44.6286C29.5141 46.0667 28.7055 46.6409 28.0354 47.0119V47.0082Z" fill="white"/>
</g>
<path d="M33.5203 40.4046C32.5178 39.6513 31.0926 39.3486 31.0926 39.3486C31.0926 39.3486 32.3 38.6489 32.7911 37.951C33.2858 37.2513 33.5332 36.1695 33.5738 35.6064C33.6145 35.0452 33.7105 32.6876 31.8754 31.3307C30.4538 30.2802 28.8255 29.8649 26.6378 29.7282V24.9707H23.7061V29.6729H21.4723V24.9707H18.5369V29.6729H12.7695V32.719H14.4661C14.9277 32.719 15.7511 32.7689 16.1 33.1621C16.4508 33.5498 16.5117 33.7565 16.5117 34.5172V46.6538C16.5117 46.9418 16.4563 47.2999 16.2108 47.5307C15.9634 47.7652 15.716 47.8187 15.1271 47.8187H13.3732L12.7695 51.343H18.5406V56.0304H21.4741V51.3412H23.708V56.0304H26.6397V51.2636C27.3985 51.2193 28.1055 51.1621 28.5172 51.1067C29.3535 50.9978 31.2458 50.7781 33.0145 49.5449C34.7812 48.3116 35.18 46.3787 35.2206 44.431C35.2612 42.4852 34.5209 41.1559 33.5221 40.4027L33.5203 40.4046ZM21.4686 32.9867C21.4686 32.9867 22.4009 32.9055 23.3203 32.9184C24.2378 32.9332 25.0465 32.959 26.2538 33.3301C27.4594 33.6993 28.172 34.6039 28.1997 35.6747C28.2274 36.7436 27.7603 37.4562 26.9388 37.9085C26.1154 38.3609 24.9781 38.6064 23.9092 38.647C22.8403 38.6895 21.4686 38.647 21.4686 38.647V32.9885V32.9867ZM28.0354 47.0082C27.3634 47.3775 26.0194 47.7079 24.7178 47.8021C23.4163 47.8999 21.4686 47.8575 21.4686 47.8575V41.5713C21.4686 41.5713 23.3332 41.4753 24.7861 41.5713C26.2391 41.6673 27.4594 42.0365 28.0077 42.3116C28.556 42.5849 29.5141 43.1886 29.5141 44.6286C29.5141 46.0667 28.7055 46.6409 28.0354 47.0119V47.0082Z" fill="#C4C4C4"/>
<path d="M67.8777 41.593V48.3376H73.9123C74.5631 48.3376 75.135 48.2488 75.628 48.0713C76.1407 47.8939 76.5647 47.6473 76.9 47.3318C77.2353 47.0163 77.4818 46.6613 77.6395 46.2669C77.817 45.8725 77.9058 45.4485 77.9058 44.9949C77.9058 44.561 77.8269 44.137 77.6691 43.7229C77.5113 43.3087 77.2648 42.9439 76.9296 42.6284C76.614 42.3128 76.1999 42.0663 75.6872 41.8888C75.1941 41.6916 74.6025 41.593 73.9123 41.593H67.8777ZM67.8777 32.9552V38.9307H73.4981C74.8194 38.9307 75.8055 38.6743 76.4563 38.1616C77.1268 37.6488 77.462 36.9093 77.462 35.943C77.462 34.9766 77.1268 34.2371 76.4563 33.7244C75.8055 33.2116 74.8194 32.9552 73.4981 32.9552H67.8777ZM65.8661 50.9999C65.6492 50.9999 65.4619 50.921 65.3041 50.7632C65.1463 50.6055 65.0674 50.4181 65.0674 50.2012V31.0916C65.0674 30.8747 65.1463 30.6873 65.3041 30.5296C65.4619 30.3718 65.6492 30.2929 65.8661 30.2929H73.7939C75.0561 30.2929 76.1013 30.4901 76.9296 30.8846C77.7579 31.2592 78.4185 31.7326 78.9115 32.3045C79.4046 32.8566 79.7497 33.4581 79.9469 34.1089C80.1638 34.7597 80.2723 35.3415 80.2723 35.8542C80.2723 36.505 80.1737 37.0769 79.9765 37.5699C79.7793 38.063 79.5426 38.4771 79.2665 38.8124C79.0101 39.1476 78.7439 39.4139 78.4678 39.6111C78.2114 39.8083 78.0241 39.9463 77.9058 40.0252C78.6552 40.5379 79.306 41.2183 79.8581 42.0663C80.43 42.8946 80.716 43.8708 80.716 44.9949C80.716 45.7443 80.5779 46.4739 80.3019 47.1839C80.0258 47.8939 79.6116 48.5348 79.0594 49.1067C78.527 49.6786 77.8466 50.142 77.0183 50.497C76.2098 50.8323 75.273 50.9999 74.2081 50.9999H65.8661ZM87.1645 50.2012C87.1645 50.4181 87.0856 50.6055 86.9279 50.7632C86.7701 50.921 86.5827 50.9999 86.3658 50.9999H85.2713C85.0544 50.9999 84.867 50.921 84.7093 50.7632C84.5515 50.6055 84.4726 50.4181 84.4726 50.2012V36.4163C84.4726 36.1993 84.5515 36.012 84.7093 35.8542C84.867 35.6965 85.0544 35.6176 85.2713 35.6176H86.3658C86.5827 35.6176 86.7701 35.6965 86.9279 35.8542C87.0856 36.012 87.1645 36.1993 87.1645 36.4163V50.2012ZM87.4603 32.4819C87.4603 32.6989 87.3814 32.8862 87.2237 33.044C87.0659 33.2018 86.8786 33.2806 86.6616 33.2806H84.9755C84.7586 33.2806 84.5712 33.2018 84.4134 33.044C84.2557 32.8862 84.1768 32.6989 84.1768 32.4819V30.7958C84.1768 30.5789 84.2557 30.3915 84.4134 30.2338C84.5712 30.076 84.7586 29.9971 84.9755 29.9971H86.6616C86.8786 29.9971 87.0659 30.076 87.2237 30.2338C87.3814 30.3915 87.4603 30.5789 87.4603 30.7958V32.4819ZM95.631 45.8232C95.631 46.1979 95.6606 46.5528 95.7198 46.8881C95.7987 47.2036 95.9268 47.4797 96.1043 47.7164C96.2818 47.953 96.5283 48.1404 96.8439 48.2784C97.1791 48.3967 97.6031 48.4559 98.1159 48.4559H99.6837C99.9006 48.4559 100.088 48.5348 100.246 48.6926C100.403 48.8503 100.482 49.0377 100.482 49.2546V50.2012C100.482 50.4181 100.403 50.6055 100.246 50.7632C100.088 50.921 99.9006 50.9999 99.6837 50.9999H97.8201C96.1043 50.9999 94.8619 50.5562 94.0928 49.6687C93.3237 48.7813 92.9391 47.4994 92.9391 45.8232V38.1616H90.7501C90.5332 38.1616 90.3458 38.0827 90.1881 37.9249C90.0303 37.7672 89.9514 37.5798 89.9514 37.3629V36.4163C89.9514 36.1993 90.0303 36.012 90.1881 35.8542C90.3458 35.6965 90.5332 35.6176 90.7501 35.6176H92.9391V30.7958C92.9391 30.5789 93.018 30.3915 93.1758 30.2338C93.3335 30.076 93.5209 29.9971 93.7378 29.9971H94.8323C95.0493 29.9971 95.2366 30.076 95.3944 30.2338C95.5521 30.3915 95.631 30.5789 95.631 30.7958V35.6176H99.3879C99.6048 35.6176 99.7921 35.6965 99.9499 35.8542C100.108 36.012 100.187 36.1993 100.187 36.4163V37.3629C100.187 37.5798 100.108 37.7672 99.9499 37.9249C99.7921 38.0827 99.6048 38.1616 99.3879 38.1616H95.631V45.8232ZM105.434 44.3441C105.513 45.1329 105.681 45.8034 105.937 46.3556C106.213 46.9078 106.538 47.3614 106.913 47.7164C107.308 48.0713 107.741 48.3376 108.215 48.5151C108.688 48.6728 109.171 48.7517 109.664 48.7517C110.611 48.7517 111.419 48.5742 112.09 48.2192C112.76 47.8643 113.283 47.2726 113.658 46.4444C113.796 46.1288 113.934 45.9218 114.072 45.8232C114.23 45.7048 114.417 45.6457 114.634 45.6457H115.521C115.738 45.6457 115.926 45.7246 116.083 45.8823C116.261 46.0401 116.34 46.2274 116.32 46.4444C116.3 46.9177 116.142 47.4403 115.847 48.0122C115.571 48.5644 115.147 49.087 114.575 49.58C114.022 50.0533 113.332 50.4576 112.504 50.7928C111.695 51.1281 110.749 51.2957 109.664 51.2957C108.58 51.2957 107.613 51.1182 106.765 50.7632C105.937 50.4083 105.227 49.9251 104.635 49.3138C104.063 48.7024 103.61 47.9826 103.275 47.1543C102.959 46.326 102.782 45.4386 102.742 44.492C102.722 44.1765 102.703 43.7919 102.683 43.3383C102.683 42.865 102.703 42.4607 102.742 42.1255C102.821 41.1789 103.018 40.2914 103.334 39.4632C103.669 38.6349 104.123 37.9151 104.694 37.3037C105.266 36.6924 105.966 36.2092 106.795 35.8542C107.623 35.4992 108.58 35.3218 109.664 35.3218C110.749 35.3218 111.695 35.4894 112.504 35.8246C113.332 36.1599 114.022 36.574 114.575 37.0671C115.147 37.5404 115.571 38.063 115.847 38.6349C116.142 39.1871 116.3 39.6998 116.32 40.1731C116.34 40.39 116.261 40.5774 116.083 40.7352C115.926 40.8929 115.738 40.9718 115.521 40.9718H114.634C114.417 40.9718 114.23 40.9225 114.072 40.8239C113.934 40.7056 113.796 40.4886 113.658 40.1731C113.283 39.3448 112.76 38.7532 112.09 38.3982C111.419 38.0432 110.611 37.8658 109.664 37.8658C109.171 37.8658 108.678 37.9545 108.185 38.132C107.712 38.2898 107.278 38.5461 106.884 38.9011C106.509 39.2561 106.183 39.7097 105.907 40.2619C105.651 40.814 105.493 41.4846 105.434 42.2734C105.375 43.0031 105.375 43.6933 105.434 44.3441ZM126.161 35.3218C127.226 35.3218 128.173 35.4894 129.001 35.8246C129.829 36.1402 130.539 36.5839 131.131 37.1558C131.723 37.7277 132.186 38.4278 132.521 39.2561C132.876 40.0646 133.093 40.9521 133.172 41.9184C133.192 42.0959 133.202 42.3128 133.202 42.5692C133.202 42.8059 133.202 43.0622 133.202 43.3383C133.202 43.5947 133.202 43.8511 133.202 44.1074C133.202 44.3441 133.192 44.5413 133.172 44.6991C133.074 45.6851 132.857 46.5824 132.521 47.391C132.186 48.1995 131.723 48.8898 131.131 49.4617C130.539 50.0336 129.829 50.4872 129.001 50.8224C128.173 51.1379 127.226 51.2957 126.161 51.2957C125.096 51.2957 124.15 51.1379 123.322 50.8224C122.493 50.4872 121.783 50.0336 121.192 49.4617C120.6 48.8898 120.127 48.1995 119.772 47.391C119.437 46.5824 119.229 45.6851 119.151 44.6991C119.131 44.5413 119.111 44.3441 119.091 44.1074C119.091 43.8511 119.091 43.5947 119.091 43.3383C119.091 43.0622 119.091 42.8059 119.091 42.5692C119.111 42.3128 119.131 42.0959 119.151 41.9184C119.229 40.9521 119.437 40.0646 119.772 39.2561C120.127 38.4278 120.6 37.7277 121.192 37.1558C121.783 36.5839 122.493 36.1402 123.322 35.8246C124.15 35.4894 125.096 35.3218 126.161 35.3218ZM130.48 44.5512C130.52 44.2159 130.539 43.8116 130.539 43.3383C130.539 42.8453 130.52 42.4213 130.48 42.0663C130.421 41.4747 130.293 40.9225 130.096 40.4098C129.898 39.897 129.622 39.4533 129.267 39.0786C128.912 38.7039 128.479 38.4081 127.966 38.1912C127.453 37.9742 126.852 37.8658 126.161 37.8658C125.471 37.8658 124.87 37.9742 124.357 38.1912C123.844 38.4081 123.41 38.7039 123.055 39.0786C122.7 39.4533 122.424 39.897 122.227 40.4098C122.03 40.9225 121.902 41.4747 121.842 42.0663C121.803 42.4213 121.783 42.8453 121.783 43.3383C121.783 43.8116 121.803 44.2159 121.842 44.5512C121.902 45.1428 122.03 45.695 122.227 46.2077C122.424 46.7205 122.7 47.1642 123.055 47.5389C123.41 47.9136 123.844 48.2094 124.357 48.4263C124.87 48.6432 125.471 48.7517 126.161 48.7517C126.852 48.7517 127.453 48.6432 127.966 48.4263C128.479 48.2094 128.912 47.9136 129.267 47.5389C129.622 47.1642 129.898 46.7205 130.096 46.2077C130.293 45.695 130.421 45.1428 130.48 44.5512ZM139.625 50.2012C139.625 50.4181 139.546 50.6055 139.389 50.7632C139.231 50.921 139.043 50.9999 138.827 50.9999H137.732C137.515 50.9999 137.328 50.921 137.17 50.7632C137.012 50.6055 136.933 50.4181 136.933 50.2012V36.4163C136.933 36.1993 137.012 36.012 137.17 35.8542C137.328 35.6965 137.515 35.6176 137.732 35.6176H138.827C139.043 35.6176 139.231 35.6965 139.389 35.8542C139.546 36.012 139.625 36.1993 139.625 36.4163V50.2012ZM139.921 32.4819C139.921 32.6989 139.842 32.8862 139.684 33.044C139.527 33.2018 139.339 33.2806 139.122 33.2806H137.436C137.219 33.2806 137.032 33.2018 136.874 33.044C136.716 32.8862 136.638 32.6989 136.638 32.4819V30.7958C136.638 30.5789 136.716 30.3915 136.874 30.2338C137.032 30.076 137.219 29.9971 137.436 29.9971H139.122C139.339 29.9971 139.527 30.076 139.684 30.2338C139.842 30.3915 139.921 30.5789 139.921 30.7958V32.4819ZM157.735 50.2012C157.735 50.4181 157.656 50.6055 157.499 50.7632C157.341 50.921 157.154 50.9999 156.937 50.9999H155.842C155.625 50.9999 155.438 50.921 155.28 50.7632C155.122 50.6055 155.043 50.4181 155.043 50.2012V42.3917C155.043 40.8732 154.679 39.7392 153.949 38.9899C153.219 38.2405 152.204 37.8658 150.902 37.8658C149.66 37.8658 148.654 38.2405 147.885 38.9899C147.135 39.7392 146.761 40.8732 146.761 42.3917V50.2012C146.761 50.4181 146.682 50.6055 146.524 50.7632C146.366 50.921 146.179 50.9999 145.962 50.9999H144.867C144.65 50.9999 144.463 50.921 144.305 50.7632C144.148 50.6055 144.069 50.4181 144.069 50.2012V36.4163C144.069 36.1993 144.148 36.012 144.305 35.8542C144.463 35.6965 144.65 35.6176 144.867 35.6176H145.962C146.179 35.6176 146.366 35.6965 146.524 35.8542C146.682 36.012 146.761 36.1993 146.761 36.4163V37.3333C147.135 36.8403 147.688 36.3867 148.417 35.9726C149.167 35.5387 150.143 35.3218 151.346 35.3218C152.273 35.3218 153.13 35.4795 153.919 35.7951C154.708 36.0909 155.379 36.5247 155.931 37.0966C156.503 37.6488 156.946 38.3391 157.262 39.1673C157.578 39.9956 157.735 40.9225 157.735 41.948V50.2012Z" fill="white"/>
<defs>
<filter id="filter0_d_2062_40905" x="12.7695" y="24.9707" width="22.4528" height="31.7991" filterUnits="userSpaceOnUse" color-interpolation-filters="sRGB">
<feFlood flood-opacity="0" result="BackgroundImageFix"/>
<feColorMatrix in="SourceAlpha" type="matrix" values="0 0 0 0 0 0 0 0 0 0 0 0 0 0 0 0 0 0 127 0" result="hardAlpha"/>
<feOffset dy="0.739535"/>
<feColorMatrix type="matrix" values="0 0 0 0 0 0 0 0 0 0 0 0 0 0 0 0 0 0 0.142437 0"/>
<feBlend mode="normal" in2="BackgroundImageFix" result="effect1_dropShadow_2062_40905"/>
<feBlend mode="normal" in="SourceGraphic" in2="effect1_dropShadow_2062_40905" result="shape"/>
</filter>
</defs>
</svg>
