<svg width="220" height="80" viewBox="0 0 220 80" fill="none" xmlns="http://www.w3.org/2000/svg">
<g clip-path="url(#clip0_2062_40939)">
<mask id="mask0_2062_40939" style="mask-type:luminance" maskUnits="userSpaceOnUse" x="0" y="0" width="220" height="81">
<path d="M220 0.5H0V80.5H220V0.5Z" fill="white"/>
</mask>
<g mask="url(#mask0_2062_40939)">
<path d="M23.002 62.5C35.1522 62.5 45.002 52.6503 45.002 40.5C45.002 28.3497 35.1522 18.5 23.002 18.5C10.8517 18.5 1.00195 28.3497 1.00195 40.5C1.00195 52.6503 10.8517 62.5 23.002 62.5Z" fill="#C4C4C4"/>
<path d="M23.0035 61.6524C34.6864 61.6524 44.1573 52.1815 44.1573 40.4986C44.1573 28.8156 34.6864 19.3447 23.0035 19.3447C11.3205 19.3447 1.84961 28.8156 1.84961 40.4986C1.84961 52.1815 11.3205 61.6524 23.0035 61.6524Z" stroke="white" stroke-opacity="0.24" stroke-width="4.11616"/>
<path d="M23.0402 24.793C21.7436 24.7907 20.4256 24.9504 19.1112 25.2856C10.7 27.4331 5.62313 35.9843 7.77236 44.3865C9.92181 52.7887 18.483 57.8599 26.8946 55.7127C35.3063 53.566 40.3827 45.014 38.2337 36.6118C36.4199 29.5227 30.0419 24.8047 23.0402 24.793ZM22.584 30.0445L23.3631 33.09C24.7863 32.819 25.8977 32.8197 26.9801 33.2595C28.3795 33.8274 28.7037 35.3523 28.7698 35.7188C28.8352 36.0853 28.8545 36.8191 28.6526 37.3466C28.4512 37.875 27.7928 38.52 27.7928 38.52C27.7928 38.52 28.7549 38.4798 29.5203 38.7988C30.2841 39.1181 30.977 39.8475 31.2691 41.1003C31.562 42.3524 31.623 43.6547 30.6926 44.7334C29.7845 45.7855 28.6436 46.2396 28.1074 46.4532L28.0672 46.469C27.8117 46.5713 27.3684 46.7237 26.8897 46.8759L27.6696 49.9258L25.7902 50.4059L25.0224 47.4052L23.5908 47.7705L24.3584 50.7712L22.479 51.2513L21.7114 48.2501L18.0135 49.1938L17.8233 46.8399L18.9475 46.5533C19.3252 46.4564 19.4741 46.3815 19.5939 46.1924C19.7137 46.0026 19.6906 45.7654 19.6434 45.5806L17.6565 37.8118C17.5319 37.325 17.4586 37.2036 17.1708 37.0107C16.8826 36.8176 16.3472 36.9187 16.0505 36.9952L14.964 37.272L14.4651 35.3222L18.1633 34.3785L17.3927 31.3695L19.2724 30.8899L20.042 33.8994L21.4735 33.534L20.7037 30.5246L22.584 30.0445ZM23.4083 35.4512C22.7416 35.4485 22.2773 35.5517 21.7602 35.6756C21.1696 35.8173 20.5854 36.0225 20.5854 36.0225L21.512 39.646C21.512 39.646 22.3974 39.4479 23.0757 39.2467C23.7543 39.0453 24.4432 38.7022 24.8956 38.2781C25.3486 37.8538 25.5305 37.3212 25.3383 36.6413C25.1449 35.9614 24.5408 35.4991 23.7073 35.4591C23.6077 35.4543 23.508 35.4517 23.4083 35.4512ZM25.4152 40.8478C24.9794 40.8511 24.5447 40.8928 24.1163 40.9726C23.1691 41.1488 21.9902 41.5149 21.9902 41.5149L23.0204 45.5417C23.0204 45.5417 24.2748 45.2503 25.0932 44.9756C25.9119 44.7013 26.7186 44.2712 27.0887 43.9242C27.4581 43.5775 27.8821 43.0764 27.6465 42.1554C27.4108 41.2341 26.6974 41.0052 26.3013 40.9193C26.1032 40.8763 25.7936 40.8455 25.4152 40.8478Z" fill="white"/>
<path d="M62.7405 50.2643C62.5564 50.2643 62.409 50.2045 62.2985 50.0848C62.1881 49.9651 62.1328 49.8132 62.1328 49.629V31.5915C62.1328 31.3889 62.1881 31.2278 62.2985 31.1081C62.409 30.9884 62.5564 30.9286 62.7405 30.9286H70.2815C72.2335 30.9286 73.7067 31.3981 74.7011 32.3373C75.6955 33.2765 76.1927 34.5011 76.1927 36.0111C76.1927 37.0424 75.9533 37.9033 75.4745 38.5938C74.9957 39.2844 74.4341 39.7862 73.7895 40.0993C74.5814 40.486 75.2443 41.0845 75.7784 41.8947C76.3124 42.705 76.5794 43.6349 76.5794 44.6846C76.5794 45.7158 76.3446 46.655 75.875 47.5021C75.4054 48.3492 74.7103 49.0213 73.7895 49.5185C72.8688 50.0157 71.7731 50.2643 70.5024 50.2643H62.7405ZM69.8671 39.1325C71.0641 39.1325 71.9756 38.8608 72.6018 38.3176C73.2279 37.7744 73.5409 37.0147 73.5409 36.0387C73.5409 35.0812 73.2325 34.3538 72.6156 33.8566C71.9987 33.3593 71.0825 33.1107 69.8671 33.1107H64.7293V39.1325H69.8671ZM70.1434 48.0822C71.3219 48.0822 72.2473 47.7645 72.9194 47.1292C73.5916 46.4939 73.9276 45.679 73.9276 44.6846C73.9276 43.6718 73.5916 42.8523 72.9194 42.2262C72.2473 41.6001 71.3219 41.287 70.1434 41.287H64.7293V48.0822H70.1434ZM80.6123 33.1936C80.4282 33.1936 80.2762 33.1338 80.1565 33.0141C80.0368 32.8944 79.977 32.7424 79.977 32.5583V31.1219C79.977 30.9378 80.0368 30.7812 80.1565 30.6523C80.2762 30.5234 80.4282 30.459 80.6123 30.459H82.242C82.4262 30.459 82.5827 30.5234 82.7116 30.6523C82.8405 30.7812 82.905 30.9378 82.905 31.1219V32.5583C82.905 32.7424 82.8405 32.8944 82.7116 33.0141C82.5827 33.1338 82.4262 33.1936 82.242 33.1936H80.6123ZM80.8333 50.2643C80.6491 50.2643 80.4972 50.2045 80.3775 50.0848C80.2578 49.9651 80.198 49.8132 80.198 49.629V36.5359C80.198 36.3518 80.2578 36.1999 80.3775 36.0802C80.4972 35.9605 80.6491 35.9006 80.8333 35.9006H82.0487C82.2328 35.9006 82.3848 35.9605 82.5044 36.0802C82.6241 36.1999 82.684 36.3518 82.684 36.5359V49.629C82.684 49.8132 82.6241 49.9651 82.5044 50.0848C82.3848 50.2045 82.2328 50.2643 82.0487 50.2643H80.8333ZM92.3519 50.2643C89.4975 50.2643 88.0704 48.653 88.0704 45.4304V38.0276H85.8882C85.7041 38.0276 85.5567 37.9723 85.4463 37.8618C85.3358 37.7513 85.2805 37.604 85.2805 37.4199V36.5359C85.2805 36.3518 85.3358 36.1999 85.4463 36.0802C85.5567 35.9605 85.7041 35.9006 85.8882 35.9006H88.0704V31.2877C88.0704 31.1035 88.1256 30.9516 88.2361 30.8319C88.3466 30.7122 88.4939 30.6523 88.6781 30.6523H89.8935C90.0776 30.6523 90.2296 30.7122 90.3493 30.8319C90.469 30.9516 90.5288 31.1035 90.5288 31.2877V35.9006H93.954C94.1381 35.9006 94.2901 35.9605 94.4098 36.0802C94.5295 36.1999 94.5893 36.3518 94.5893 36.5359V37.4199C94.5893 37.604 94.5295 37.7513 94.4098 37.8618C94.2901 37.9723 94.1381 38.0276 93.954 38.0276H90.5288V45.237C90.5288 46.1762 90.6807 46.8852 90.9846 47.364C91.2884 47.8428 91.8086 48.0822 92.5452 48.0822H94.2302C94.4144 48.0822 94.5617 48.142 94.6722 48.2617C94.7827 48.3814 94.8379 48.5333 94.8379 48.7175V49.629C94.8379 49.8132 94.7827 49.9651 94.6722 50.0848C94.5617 50.2045 94.4144 50.2643 94.2302 50.2643H92.3519ZM103.29 50.5406C101.32 50.5406 99.7824 49.9835 98.6775 48.8694C97.5725 47.7553 96.9925 46.1946 96.9372 44.1874L96.9096 43.0825L96.9372 41.9776C96.9925 39.9703 97.5725 38.4097 98.6775 37.2956C99.7824 36.1814 101.32 35.6244 103.29 35.6244C104.616 35.6244 105.735 35.8592 106.647 36.3288C107.558 36.7984 108.239 37.383 108.691 38.0828C109.142 38.7826 109.386 39.4823 109.423 40.1821C109.441 40.3479 109.381 40.4952 109.243 40.6241C109.105 40.753 108.953 40.8174 108.787 40.8174H107.572C107.388 40.8174 107.25 40.776 107.158 40.6931C107.065 40.6103 106.973 40.4583 106.881 40.2374C106.55 39.335 106.094 38.6951 105.514 38.3176C104.934 37.9401 104.202 37.7513 103.318 37.7513C102.158 37.7513 101.237 38.1104 100.556 38.8286C99.8744 39.5468 99.5061 40.6425 99.4509 42.1157L99.4233 43.0825L99.4509 44.0493C99.5061 45.5225 99.8744 46.6182 100.556 47.3364C101.237 48.0545 102.158 48.4136 103.318 48.4136C104.22 48.4136 104.957 48.2249 105.528 47.8474C106.099 47.4699 106.55 46.83 106.881 45.9276C106.973 45.7066 107.065 45.5547 107.158 45.4718C107.25 45.389 107.388 45.3475 107.572 45.3475H108.787C108.953 45.3475 109.105 45.412 109.243 45.5409C109.381 45.6698 109.441 45.8171 109.423 45.9829C109.386 46.6642 109.142 47.3548 108.691 48.0545C108.239 48.7543 107.558 49.3436 106.647 49.8224C105.735 50.3012 104.616 50.5406 103.29 50.5406ZM118.566 50.5406C116.54 50.5406 114.979 49.9697 113.884 48.828C112.788 47.6862 112.203 46.167 112.13 44.2703L112.102 43.0825L112.13 41.8947C112.203 39.998 112.797 38.4787 113.911 37.337C115.025 36.1953 116.577 35.6244 118.566 35.6244C120.555 35.6244 122.106 36.1953 123.22 37.337C124.334 38.4787 124.928 39.998 125.002 41.8947C125.039 42.2999 125.057 42.6958 125.057 43.0825C125.057 43.4692 125.039 43.8651 125.002 44.2703C124.928 46.167 124.343 47.6862 123.248 48.828C122.152 49.9697 120.591 50.5406 118.566 50.5406ZM118.566 48.4689C119.744 48.4689 120.679 48.096 121.369 47.3502C122.06 46.6044 122.433 45.5317 122.488 44.1321C122.507 43.948 122.516 43.5981 122.516 43.0825C122.516 42.5669 122.507 42.217 122.488 42.0328C122.433 40.6333 122.06 39.5606 121.369 38.8148C120.679 38.069 119.744 37.6961 118.566 37.6961C117.387 37.6961 116.453 38.069 115.762 38.8148C115.071 39.5606 114.699 40.6333 114.643 42.0328L114.616 43.0825L114.643 44.1321C114.699 45.5317 115.071 46.6044 115.762 47.3502C116.453 48.096 117.387 48.4689 118.566 48.4689ZM128.952 33.1936C128.768 33.1936 128.616 33.1338 128.496 33.0141C128.376 32.8944 128.316 32.7424 128.316 32.5583V31.1219C128.316 30.9378 128.376 30.7812 128.496 30.6523C128.616 30.5234 128.768 30.459 128.952 30.459H130.581C130.766 30.459 130.922 30.5234 131.051 30.6523C131.18 30.7812 131.244 30.9378 131.244 31.1219V32.5583C131.244 32.7424 131.18 32.8944 131.051 33.0141C130.922 33.1338 130.766 33.1936 130.581 33.1936H128.952ZM129.173 50.2643C128.989 50.2643 128.837 50.2045 128.717 50.0848C128.597 49.9651 128.537 49.8132 128.537 49.629V36.5359C128.537 36.3518 128.597 36.1999 128.717 36.0802C128.837 35.9605 128.989 35.9006 129.173 35.9006H130.388C130.572 35.9006 130.724 35.9605 130.844 36.0802C130.964 36.1999 131.023 36.3518 131.023 36.5359V49.629C131.023 49.8132 130.964 49.9651 130.844 50.0848C130.724 50.2045 130.572 50.2643 130.388 50.2643H129.173ZM135.802 50.2643C135.618 50.2643 135.466 50.2045 135.346 50.0848C135.227 49.9651 135.167 49.8132 135.167 49.629V36.5359C135.167 36.3518 135.227 36.1999 135.346 36.0802C135.466 35.9605 135.618 35.9006 135.802 35.9006H136.99C137.192 35.9006 137.349 35.9559 137.46 36.0664C137.57 36.1769 137.625 36.3334 137.625 36.5359V37.7513C138.178 37.07 138.818 36.5452 139.545 36.1769C140.272 35.8085 141.179 35.6244 142.266 35.6244C144.034 35.6244 145.406 36.1907 146.382 37.3232C147.358 38.4557 147.846 39.9519 147.846 41.8118V49.629C147.846 49.8132 147.786 49.9651 147.666 50.0848C147.546 50.2045 147.394 50.2643 147.21 50.2643H145.94C145.755 50.2643 145.604 50.2045 145.484 50.0848C145.364 49.9651 145.304 49.8132 145.304 49.629V41.9776C145.304 40.6517 144.982 39.6205 144.338 38.8839C143.693 38.1473 142.772 37.779 141.575 37.779C140.397 37.779 139.458 38.1519 138.758 38.8977C138.058 39.6435 137.708 40.6701 137.708 41.9776V49.629C137.708 49.8132 137.648 49.9651 137.529 50.0848C137.409 50.2045 137.257 50.2643 137.073 50.2643H135.802ZM165.911 50.5406C163.462 50.5406 161.597 49.873 160.317 48.5379C159.037 47.2028 158.351 45.3752 158.259 43.0549C158.241 42.5577 158.232 41.7474 158.232 40.6241C158.232 39.4823 158.241 38.6537 158.259 38.1381C158.351 35.8177 159.037 33.9901 160.317 32.655C161.597 31.3199 163.462 30.6523 165.911 30.6523C167.55 30.6523 168.94 30.9424 170.082 31.5225C171.223 32.1025 172.084 32.8621 172.664 33.8013C173.245 34.7405 173.562 35.7441 173.617 36.8122C173.617 36.9779 173.558 37.1114 173.438 37.2127C173.318 37.314 173.175 37.3646 173.01 37.3646H171.629C171.444 37.3646 171.297 37.3186 171.187 37.2265C171.076 37.1344 170.993 36.9779 170.938 36.7569C170.625 35.339 170.059 34.3446 169.239 33.7737C168.42 33.2028 167.31 32.9174 165.911 32.9174C162.707 32.9174 161.04 34.7036 160.911 38.2762C160.893 38.7734 160.883 39.5376 160.883 40.5688C160.883 41.6001 160.893 42.3827 160.911 42.9168C161.04 46.4709 162.707 48.2479 165.911 48.2479C167.292 48.2479 168.397 47.9625 169.225 47.3916C170.054 46.8207 170.625 45.8355 170.938 44.436C170.993 44.215 171.076 44.0585 171.187 43.9664C171.297 43.8743 171.444 43.8283 171.629 43.8283H173.01C173.175 43.8283 173.318 43.8789 173.438 43.9802C173.558 44.0815 173.617 44.215 173.617 44.3807C173.562 45.4488 173.245 46.4524 172.664 47.3916C172.084 48.3308 171.223 49.0904 170.082 49.6705C168.94 50.2505 167.55 50.5406 165.911 50.5406ZM180.993 50.5406C180.09 50.5406 179.257 50.3564 178.493 49.9881C177.729 49.6198 177.121 49.118 176.67 48.4827C176.219 47.8474 175.993 47.143 175.993 46.3696C175.993 45.1542 176.49 44.1598 177.485 43.3863C178.479 42.6129 179.833 42.0973 181.545 41.8395L185.688 41.2594V40.4583C185.688 38.5616 184.593 37.6132 182.401 37.6132C181.554 37.6132 180.873 37.7836 180.357 38.1242C179.842 38.4649 179.464 38.8654 179.225 39.3258C179.151 39.51 179.073 39.6343 178.99 39.6987C178.907 39.7632 178.792 39.7954 178.645 39.7954H177.567C177.402 39.7954 177.259 39.7356 177.139 39.6159C177.02 39.4962 176.96 39.3534 176.96 39.1877C176.96 38.7642 177.158 38.2716 177.554 37.7099C177.95 37.1482 178.562 36.6602 179.391 36.2459C180.219 35.8316 181.232 35.6244 182.429 35.6244C184.492 35.6244 185.969 36.1032 186.862 37.0608C187.756 38.0184 188.202 39.2153 188.202 40.6517V49.629C188.202 49.8132 188.142 49.9651 188.023 50.0848C187.903 50.2045 187.751 50.2643 187.567 50.2643H186.351C186.167 50.2643 186.02 50.2045 185.909 50.0848C185.799 49.9651 185.744 49.8132 185.744 49.629V48.4136C185.339 49.0213 184.749 49.5277 183.976 49.9329C183.202 50.338 182.208 50.5406 180.993 50.5406ZM181.545 48.5241C182.761 48.5241 183.755 48.1282 184.528 47.3364C185.302 46.5445 185.688 45.3936 185.688 43.8835V43.1101L182.457 43.5797C181.131 43.7638 180.127 44.0769 179.446 44.5189C178.764 44.9608 178.424 45.5133 178.424 46.1762C178.424 46.9312 178.732 47.5113 179.349 47.9164C179.966 48.3216 180.698 48.5241 181.545 48.5241ZM197.124 50.5406C195.854 50.5406 194.781 50.3334 193.906 49.9191C193.031 49.5047 192.382 49.0305 191.959 48.4965C191.535 47.9625 191.324 47.5205 191.324 47.1706C191.324 46.9865 191.388 46.8438 191.517 46.7425C191.646 46.6412 191.784 46.5905 191.931 46.5905H193.091C193.202 46.5905 193.289 46.609 193.354 46.6458C193.418 46.6826 193.506 46.7655 193.616 46.8944C194.04 47.41 194.514 47.8151 195.039 48.1098C195.564 48.4044 196.268 48.5518 197.152 48.5518C198.146 48.5518 198.943 48.3676 199.541 47.9993C200.14 47.631 200.439 47.097 200.439 46.3972C200.439 45.9368 200.31 45.5685 200.052 45.2923C199.794 45.0161 199.366 44.7675 198.768 44.5465C198.169 44.3255 197.281 44.0861 196.102 43.8283C194.5 43.4784 193.368 42.972 192.705 42.3091C192.042 41.6461 191.71 40.7898 191.71 39.7402C191.71 39.0588 191.913 38.4005 192.318 37.7651C192.723 37.1298 193.326 36.6142 194.127 36.2183C194.928 35.8224 195.881 35.6244 196.986 35.6244C198.146 35.6244 199.136 35.8178 199.956 36.2045C200.775 36.5912 201.392 37.0424 201.806 37.558C202.221 38.0736 202.428 38.5063 202.428 38.8562C202.428 39.022 202.368 39.1601 202.248 39.2706C202.129 39.3811 201.986 39.4363 201.82 39.4363H200.77C200.513 39.4363 200.328 39.335 200.218 39.1325C199.905 38.7826 199.642 38.511 199.431 38.3176C199.219 38.1242 198.91 37.9585 198.505 37.8204C198.1 37.6823 197.594 37.6132 196.986 37.6132C196.084 37.6132 195.393 37.802 194.914 38.1795C194.436 38.557 194.196 39.0588 194.196 39.6849C194.196 40.0716 194.298 40.3985 194.5 40.6655C194.703 40.9325 195.089 41.1811 195.66 41.4113C196.231 41.6415 197.078 41.8763 198.202 42.1157C199.951 42.484 201.189 43.0088 201.917 43.6902C202.644 44.3715 203.008 45.2462 203.008 46.3143C203.008 47.1062 202.782 47.8244 202.331 48.4689C201.88 49.1134 201.208 49.6198 200.315 49.9881C199.422 50.3564 198.358 50.5406 197.124 50.5406ZM206.903 50.2643C206.718 50.2643 206.567 50.2045 206.447 50.0848C206.327 49.9651 206.267 49.8132 206.267 49.629V31.2877C206.267 31.0851 206.327 30.9286 206.447 30.8181C206.567 30.7076 206.718 30.6523 206.903 30.6523H208.173C208.376 30.6523 208.532 30.7076 208.643 30.8181C208.753 30.9286 208.809 31.0851 208.809 31.2877V37.7237C209.343 37.0424 209.973 36.5221 210.701 36.163C211.428 35.8039 212.326 35.6244 213.394 35.6244C215.162 35.6244 216.538 36.1907 217.523 37.3232C218.509 38.4557 219.001 39.9519 219.001 41.8118V49.629C219.001 49.8132 218.941 49.9651 218.822 50.0848C218.702 50.2045 218.55 50.2643 218.366 50.2643H217.068C216.884 50.2643 216.732 50.2045 216.612 50.0848C216.492 49.9651 216.432 49.8132 216.432 49.629V41.9776C216.432 40.6517 216.11 39.6205 215.466 38.8839C214.821 38.1473 213.891 37.779 212.676 37.779C211.497 37.779 210.558 38.1519 209.858 38.8977C209.158 39.6435 208.809 40.6701 208.809 41.9776V49.629C208.809 49.8132 208.749 49.9651 208.629 50.0848C208.509 50.2045 208.357 50.2643 208.173 50.2643H206.903Z" fill="white"/>
<path d="M62.7405 50.2643C62.5564 50.2643 62.409 50.2045 62.2985 50.0848C62.1881 49.9651 62.1328 49.8132 62.1328 49.629V31.5915C62.1328 31.3889 62.1881 31.2278 62.2985 31.1081C62.409 30.9884 62.5564 30.9286 62.7405 30.9286H70.2815C72.2335 30.9286 73.7067 31.3981 74.7011 32.3373C75.6955 33.2765 76.1927 34.5011 76.1927 36.0111C76.1927 37.0424 75.9533 37.9033 75.4745 38.5938C74.9957 39.2844 74.4341 39.7862 73.7895 40.0993C74.5814 40.486 75.2443 41.0845 75.7784 41.8947C76.3124 42.705 76.5794 43.6349 76.5794 44.6846C76.5794 45.7158 76.3446 46.655 75.875 47.5021C75.4054 48.3492 74.7103 49.0213 73.7895 49.5185C72.8688 50.0157 71.7731 50.2643 70.5024 50.2643H62.7405ZM69.8671 39.1325C71.0641 39.1325 71.9756 38.8608 72.6018 38.3176C73.2279 37.7744 73.5409 37.0147 73.5409 36.0387C73.5409 35.0812 73.2325 34.3538 72.6156 33.8566C71.9987 33.3593 71.0825 33.1107 69.8671 33.1107H64.7293V39.1325H69.8671ZM70.1434 48.0822C71.3219 48.0822 72.2473 47.7645 72.9194 47.1292C73.5916 46.4939 73.9276 45.679 73.9276 44.6846C73.9276 43.6718 73.5916 42.8523 72.9194 42.2262C72.2473 41.6001 71.3219 41.287 70.1434 41.287H64.7293V48.0822H70.1434ZM80.6123 33.1936C80.4282 33.1936 80.2762 33.1338 80.1565 33.0141C80.0368 32.8944 79.977 32.7424 79.977 32.5583V31.1219C79.977 30.9378 80.0368 30.7812 80.1565 30.6523C80.2762 30.5234 80.4282 30.459 80.6123 30.459H82.242C82.4262 30.459 82.5827 30.5234 82.7116 30.6523C82.8405 30.7812 82.905 30.9378 82.905 31.1219V32.5583C82.905 32.7424 82.8405 32.8944 82.7116 33.0141C82.5827 33.1338 82.4262 33.1936 82.242 33.1936H80.6123ZM80.8333 50.2643C80.6491 50.2643 80.4972 50.2045 80.3775 50.0848C80.2578 49.9651 80.198 49.8132 80.198 49.629V36.5359C80.198 36.3518 80.2578 36.1999 80.3775 36.0802C80.4972 35.9605 80.6491 35.9006 80.8333 35.9006H82.0487C82.2328 35.9006 82.3848 35.9605 82.5044 36.0802C82.6241 36.1999 82.684 36.3518 82.684 36.5359V49.629C82.684 49.8132 82.6241 49.9651 82.5044 50.0848C82.3848 50.2045 82.2328 50.2643 82.0487 50.2643H80.8333ZM92.3519 50.2643C89.4975 50.2643 88.0704 48.653 88.0704 45.4304V38.0276H85.8882C85.7041 38.0276 85.5567 37.9723 85.4463 37.8618C85.3358 37.7513 85.2805 37.604 85.2805 37.4199V36.5359C85.2805 36.3518 85.3358 36.1999 85.4463 36.0802C85.5567 35.9605 85.7041 35.9006 85.8882 35.9006H88.0704V31.2877C88.0704 31.1035 88.1256 30.9516 88.2361 30.8319C88.3466 30.7122 88.4939 30.6523 88.6781 30.6523H89.8935C90.0776 30.6523 90.2296 30.7122 90.3493 30.8319C90.469 30.9516 90.5288 31.1035 90.5288 31.2877V35.9006H93.954C94.1381 35.9006 94.2901 35.9605 94.4098 36.0802C94.5295 36.1999 94.5893 36.3518 94.5893 36.5359V37.4199C94.5893 37.604 94.5295 37.7513 94.4098 37.8618C94.2901 37.9723 94.1381 38.0276 93.954 38.0276H90.5288V45.237C90.5288 46.1762 90.6807 46.8852 90.9846 47.364C91.2884 47.8428 91.8086 48.0822 92.5452 48.0822H94.2302C94.4144 48.0822 94.5617 48.142 94.6722 48.2617C94.7827 48.3814 94.8379 48.5333 94.8379 48.7175V49.629C94.8379 49.8132 94.7827 49.9651 94.6722 50.0848C94.5617 50.2045 94.4144 50.2643 94.2302 50.2643H92.3519ZM103.29 50.5406C101.32 50.5406 99.7824 49.9835 98.6775 48.8694C97.5725 47.7553 96.9925 46.1946 96.9372 44.1874L96.9096 43.0825L96.9372 41.9776C96.9925 39.9703 97.5725 38.4097 98.6775 37.2956C99.7824 36.1814 101.32 35.6244 103.29 35.6244C104.616 35.6244 105.735 35.8592 106.647 36.3288C107.558 36.7984 108.239 37.383 108.691 38.0828C109.142 38.7826 109.386 39.4823 109.423 40.1821C109.441 40.3479 109.381 40.4952 109.243 40.6241C109.105 40.753 108.953 40.8174 108.787 40.8174H107.572C107.388 40.8174 107.25 40.776 107.158 40.6931C107.065 40.6103 106.973 40.4583 106.881 40.2374C106.55 39.335 106.094 38.6951 105.514 38.3176C104.934 37.9401 104.202 37.7513 103.318 37.7513C102.158 37.7513 101.237 38.1104 100.556 38.8286C99.8744 39.5468 99.5061 40.6425 99.4509 42.1157L99.4233 43.0825L99.4509 44.0493C99.5061 45.5225 99.8744 46.6182 100.556 47.3364C101.237 48.0545 102.158 48.4136 103.318 48.4136C104.22 48.4136 104.957 48.2249 105.528 47.8474C106.099 47.4699 106.55 46.83 106.881 45.9276C106.973 45.7066 107.065 45.5547 107.158 45.4718C107.25 45.389 107.388 45.3475 107.572 45.3475H108.787C108.953 45.3475 109.105 45.412 109.243 45.5409C109.381 45.6698 109.441 45.8171 109.423 45.9829C109.386 46.6642 109.142 47.3548 108.691 48.0545C108.239 48.7543 107.558 49.3436 106.647 49.8224C105.735 50.3012 104.616 50.5406 103.29 50.5406ZM118.566 50.5406C116.54 50.5406 114.979 49.9697 113.884 48.828C112.788 47.6862 112.203 46.167 112.13 44.2703L112.102 43.0825L112.13 41.8947C112.203 39.998 112.797 38.4787 113.911 37.337C115.025 36.1953 116.577 35.6244 118.566 35.6244C120.555 35.6244 122.106 36.1953 123.22 37.337C124.334 38.4787 124.928 39.998 125.002 41.8947C125.039 42.2999 125.057 42.6958 125.057 43.0825C125.057 43.4692 125.039 43.8651 125.002 44.2703C124.928 46.167 124.343 47.6862 123.248 48.828C122.152 49.9697 120.591 50.5406 118.566 50.5406ZM118.566 48.4689C119.744 48.4689 120.679 48.096 121.369 47.3502C122.06 46.6044 122.433 45.5317 122.488 44.1321C122.507 43.948 122.516 43.5981 122.516 43.0825C122.516 42.5669 122.507 42.217 122.488 42.0328C122.433 40.6333 122.06 39.5606 121.369 38.8148C120.679 38.069 119.744 37.6961 118.566 37.6961C117.387 37.6961 116.453 38.069 115.762 38.8148C115.071 39.5606 114.699 40.6333 114.643 42.0328L114.616 43.0825L114.643 44.1321C114.699 45.5317 115.071 46.6044 115.762 47.3502C116.453 48.096 117.387 48.4689 118.566 48.4689ZM128.952 33.1936C128.768 33.1936 128.616 33.1338 128.496 33.0141C128.376 32.8944 128.316 32.7424 128.316 32.5583V31.1219C128.316 30.9378 128.376 30.7812 128.496 30.6523C128.616 30.5234 128.768 30.459 128.952 30.459H130.581C130.766 30.459 130.922 30.5234 131.051 30.6523C131.18 30.7812 131.244 30.9378 131.244 31.1219V32.5583C131.244 32.7424 131.18 32.8944 131.051 33.0141C130.922 33.1338 130.766 33.1936 130.581 33.1936H128.952ZM129.173 50.2643C128.989 50.2643 128.837 50.2045 128.717 50.0848C128.597 49.9651 128.537 49.8132 128.537 49.629V36.5359C128.537 36.3518 128.597 36.1999 128.717 36.0802C128.837 35.9605 128.989 35.9006 129.173 35.9006H130.388C130.572 35.9006 130.724 35.9605 130.844 36.0802C130.964 36.1999 131.023 36.3518 131.023 36.5359V49.629C131.023 49.8132 130.964 49.9651 130.844 50.0848C130.724 50.2045 130.572 50.2643 130.388 50.2643H129.173ZM135.802 50.2643C135.618 50.2643 135.466 50.2045 135.346 50.0848C135.227 49.9651 135.167 49.8132 135.167 49.629V36.5359C135.167 36.3518 135.227 36.1999 135.346 36.0802C135.466 35.9605 135.618 35.9006 135.802 35.9006H136.99C137.192 35.9006 137.349 35.9559 137.46 36.0664C137.57 36.1769 137.625 36.3334 137.625 36.5359V37.7513C138.178 37.07 138.818 36.5452 139.545 36.1769C140.272 35.8085 141.179 35.6244 142.266 35.6244C144.034 35.6244 145.406 36.1907 146.382 37.3232C147.358 38.4557 147.846 39.9519 147.846 41.8118V49.629C147.846 49.8132 147.786 49.9651 147.666 50.0848C147.546 50.2045 147.394 50.2643 147.21 50.2643H145.94C145.755 50.2643 145.604 50.2045 145.484 50.0848C145.364 49.9651 145.304 49.8132 145.304 49.629V41.9776C145.304 40.6517 144.982 39.6205 144.338 38.8839C143.693 38.1473 142.772 37.779 141.575 37.779C140.397 37.779 139.458 38.1519 138.758 38.8977C138.058 39.6435 137.708 40.6701 137.708 41.9776V49.629C137.708 49.8132 137.648 49.9651 137.529 50.0848C137.409 50.2045 137.257 50.2643 137.073 50.2643H135.802ZM165.911 50.5406C163.462 50.5406 161.597 49.873 160.317 48.5379C159.037 47.2028 158.351 45.3752 158.259 43.0549C158.241 42.5577 158.232 41.7474 158.232 40.6241C158.232 39.4823 158.241 38.6537 158.259 38.1381C158.351 35.8177 159.037 33.9901 160.317 32.655C161.597 31.3199 163.462 30.6523 165.911 30.6523C167.55 30.6523 168.94 30.9424 170.082 31.5225C171.223 32.1025 172.084 32.8621 172.664 33.8013C173.245 34.7405 173.562 35.7441 173.617 36.8122C173.617 36.9779 173.558 37.1114 173.438 37.2127C173.318 37.314 173.175 37.3646 173.01 37.3646H171.629C171.444 37.3646 171.297 37.3186 171.187 37.2265C171.076 37.1344 170.993 36.9779 170.938 36.7569C170.625 35.339 170.059 34.3446 169.239 33.7737C168.42 33.2028 167.31 32.9174 165.911 32.9174C162.707 32.9174 161.04 34.7036 160.911 38.2762C160.893 38.7734 160.883 39.5376 160.883 40.5688C160.883 41.6001 160.893 42.3827 160.911 42.9168C161.04 46.4709 162.707 48.2479 165.911 48.2479C167.292 48.2479 168.397 47.9625 169.225 47.3916C170.054 46.8207 170.625 45.8355 170.938 44.436C170.993 44.215 171.076 44.0585 171.187 43.9664C171.297 43.8743 171.444 43.8283 171.629 43.8283H173.01C173.175 43.8283 173.318 43.8789 173.438 43.9802C173.558 44.0815 173.617 44.215 173.617 44.3807C173.562 45.4488 173.245 46.4524 172.664 47.3916C172.084 48.3308 171.223 49.0904 170.082 49.6705C168.94 50.2505 167.55 50.5406 165.911 50.5406ZM180.993 50.5406C180.09 50.5406 179.257 50.3564 178.493 49.9881C177.729 49.6198 177.121 49.118 176.67 48.4827C176.219 47.8474 175.993 47.143 175.993 46.3696C175.993 45.1542 176.49 44.1598 177.485 43.3863C178.479 42.6129 179.833 42.0973 181.545 41.8395L185.688 41.2594V40.4583C185.688 38.5616 184.593 37.6132 182.401 37.6132C181.554 37.6132 180.873 37.7836 180.357 38.1242C179.842 38.4649 179.464 38.8654 179.225 39.3258C179.151 39.51 179.073 39.6343 178.99 39.6987C178.907 39.7632 178.792 39.7954 178.645 39.7954H177.567C177.402 39.7954 177.259 39.7356 177.139 39.6159C177.02 39.4962 176.96 39.3534 176.96 39.1877C176.96 38.7642 177.158 38.2716 177.554 37.7099C177.95 37.1482 178.562 36.6602 179.391 36.2459C180.219 35.8316 181.232 35.6244 182.429 35.6244C184.492 35.6244 185.969 36.1032 186.862 37.0608C187.756 38.0184 188.202 39.2153 188.202 40.6517V49.629C188.202 49.8132 188.142 49.9651 188.023 50.0848C187.903 50.2045 187.751 50.2643 187.567 50.2643H186.351C186.167 50.2643 186.02 50.2045 185.909 50.0848C185.799 49.9651 185.744 49.8132 185.744 49.629V48.4136C185.339 49.0213 184.749 49.5277 183.976 49.9329C183.202 50.338 182.208 50.5406 180.993 50.5406ZM181.545 48.5241C182.761 48.5241 183.755 48.1282 184.528 47.3364C185.302 46.5445 185.688 45.3936 185.688 43.8835V43.1101L182.457 43.5797C181.131 43.7638 180.127 44.0769 179.446 44.5189C178.764 44.9608 178.424 45.5133 178.424 46.1762C178.424 46.9312 178.732 47.5113 179.349 47.9164C179.966 48.3216 180.698 48.5241 181.545 48.5241ZM197.124 50.5406C195.854 50.5406 194.781 50.3334 193.906 49.9191C193.031 49.5047 192.382 49.0305 191.959 48.4965C191.535 47.9625 191.324 47.5205 191.324 47.1706C191.324 46.9865 191.388 46.8438 191.517 46.7425C191.646 46.6412 191.784 46.5905 191.931 46.5905H193.091C193.202 46.5905 193.289 46.609 193.354 46.6458C193.418 46.6826 193.506 46.7655 193.616 46.8944C194.04 47.41 194.514 47.8151 195.039 48.1098C195.564 48.4044 196.268 48.5518 197.152 48.5518C198.146 48.5518 198.943 48.3676 199.541 47.9993C200.14 47.631 200.439 47.097 200.439 46.3972C200.439 45.9368 200.31 45.5685 200.052 45.2923C199.794 45.0161 199.366 44.7675 198.768 44.5465C198.169 44.3255 197.281 44.0861 196.102 43.8283C194.5 43.4784 193.368 42.972 192.705 42.3091C192.042 41.6461 191.71 40.7898 191.71 39.7402C191.71 39.0588 191.913 38.4005 192.318 37.7651C192.723 37.1298 193.326 36.6142 194.127 36.2183C194.928 35.8224 195.881 35.6244 196.986 35.6244C198.146 35.6244 199.136 35.8178 199.956 36.2045C200.775 36.5912 201.392 37.0424 201.806 37.558C202.221 38.0736 202.428 38.5063 202.428 38.8562C202.428 39.022 202.368 39.1601 202.248 39.2706C202.129 39.3811 201.986 39.4363 201.82 39.4363H200.77C200.513 39.4363 200.328 39.335 200.218 39.1325C199.905 38.7826 199.642 38.511 199.431 38.3176C199.219 38.1242 198.91 37.9585 198.505 37.8204C198.1 37.6823 197.594 37.6132 196.986 37.6132C196.084 37.6132 195.393 37.802 194.914 38.1795C194.436 38.557 194.196 39.0588 194.196 39.6849C194.196 40.0716 194.298 40.3985 194.5 40.6655C194.703 40.9325 195.089 41.1811 195.66 41.4113C196.231 41.6415 197.078 41.8763 198.202 42.1157C199.951 42.484 201.189 43.0088 201.917 43.6902C202.644 44.3715 203.008 45.2462 203.008 46.3143C203.008 47.1062 202.782 47.8244 202.331 48.4689C201.88 49.1134 201.208 49.6198 200.315 49.9881C199.422 50.3564 198.358 50.5406 197.124 50.5406ZM206.903 50.2643C206.718 50.2643 206.567 50.2045 206.447 50.0848C206.327 49.9651 206.267 49.8132 206.267 49.629V31.2877C206.267 31.0851 206.327 30.9286 206.447 30.8181C206.567 30.7076 206.718 30.6523 206.903 30.6523H208.173C208.376 30.6523 208.532 30.7076 208.643 30.8181C208.753 30.9286 208.809 31.0851 208.809 31.2877V37.7237C209.343 37.0424 209.973 36.5221 210.701 36.163C211.428 35.8039 212.326 35.6244 213.394 35.6244C215.162 35.6244 216.538 36.1907 217.523 37.3232C218.509 38.4557 219.001 39.9519 219.001 41.8118V49.629C219.001 49.8132 218.941 49.9651 218.822 50.0848C218.702 50.2045 218.55 50.2643 218.366 50.2643H217.068C216.884 50.2643 216.732 50.2045 216.612 50.0848C216.492 49.9651 216.432 49.8132 216.432 49.629V41.9776C216.432 40.6517 216.11 39.6205 215.466 38.8839C214.821 38.1473 213.891 37.779 212.676 37.779C211.497 37.779 210.558 38.1519 209.858 38.8977C209.158 39.6435 208.809 40.6701 208.809 41.9776V49.629C208.809 49.8132 208.749 49.9651 208.629 50.0848C208.509 50.2045 208.357 50.2643 208.173 50.2643H206.903Z" fill="white"/>
</g>
</g>
<defs>
<clipPath id="clip0_2062_40939">
<rect width="220" height="80" fill="white"/>
</clipPath>
</defs>
</svg>
