<svg width="160" height="80" viewBox="0 0 160 80" fill="none" xmlns="http://www.w3.org/2000/svg">
<g clip-path="url(#clip0_2062_52033)">
<mask id="mask0_2062_52033" style="mask-type:luminance" maskUnits="userSpaceOnUse" x="0" y="0" width="160" height="81">
<path d="M160 0.5H0V80.5H160V0.5Z" fill="white"/>
</mask>
<g mask="url(#mask0_2062_52033)">
<path d="M20 60.5C31.0457 60.5 40 51.5457 40 40.5C40 29.4543 31.0457 20.5 20 20.5C8.9543 20.5 0 29.4543 0 40.5C0 51.5457 8.9543 60.5 20 60.5Z" fill="white"/>
<path fill-rule="evenodd" clip-rule="evenodd" d="M13.2253 44.4831L11.4492 45.2122L12.3119 41.7747L14.088 41.0456L16.6252 30.4727H22.8669L20.9385 38.2331L22.6131 37.5039L21.8012 40.9414L20.0759 41.6706L19.1117 46.0456H28.5503L27.4847 50.5247H11.7537L13.2253 44.4831Z" fill="#C4C4C4"/>
<path fill-rule="evenodd" clip-rule="evenodd" d="M50.6924 47.1654H61.3488V50.5508H46.582V26.332H50.6924V47.1654Z" fill="white"/>
<path d="M64.0846 27.9493C64.0338 27.3764 64.2875 26.7514 64.6935 26.3347C65.0995 25.918 65.7084 25.7097 66.2666 25.7618C66.8755 25.7097 67.4845 25.918 67.8904 26.3868C68.2964 26.8034 68.4994 27.3764 68.4994 27.9493C68.4994 28.5222 68.2964 29.043 67.8904 29.4597C67.4337 29.8764 66.8755 30.0847 66.2666 30.0847C65.6577 30.1368 65.0995 29.9284 64.6428 29.4597C64.2875 29.0951 64.0846 28.5222 64.0846 27.9493ZM68.2457 50.5534H64.3383V32.6368H68.2457V50.5534Z" fill="white"/>
<path fill-rule="evenodd" clip-rule="evenodd" d="M77.4364 28.2617V32.5846H80.4812V35.4492H77.4364V45.4492C77.3857 45.97 77.5379 46.4909 77.8424 46.9596C78.1976 47.3242 78.7051 47.4805 79.2125 47.4284C79.6692 47.4284 80.1259 47.3763 80.5826 47.2721V50.3971C79.72 50.6575 78.8573 50.7617 77.9946 50.7617C75.0007 50.7617 73.4783 49.095 73.4783 45.6576V35.6055H70.4844V32.7409H73.2754V28.2617H77.4364Z" fill="white"/>
<path d="M91.1857 50.8641C88.9529 50.9682 86.7708 50.0828 85.147 48.4682C83.5739 46.7495 82.7112 44.4057 82.8127 42.062V41.5932C82.762 39.9266 83.1172 38.312 83.8276 36.8016C84.4366 35.4474 85.4007 34.3536 86.6186 33.5203C87.8365 32.7391 89.2574 32.3224 90.6782 32.3224C92.8095 32.1661 94.8393 33.0516 96.2602 34.6661C97.681 36.5411 98.3915 38.8849 98.1885 41.2807V42.8953H86.7709C86.8216 44.1974 87.329 45.4474 88.2425 46.437C89.1051 47.3224 90.2215 47.7391 91.4394 47.7391C93.1647 47.7911 94.8393 46.9578 95.8542 45.4995L97.9348 47.5828C97.2243 48.6766 96.2602 49.5099 95.1438 50.0828C93.8752 50.5516 92.505 50.8641 91.1857 50.8641ZM90.6782 35.4995C89.6633 35.4474 88.7499 35.9161 88.0902 36.6974C87.3798 37.6349 86.9231 38.7286 86.8216 39.8745H94.2811V39.6141C94.2811 38.5203 93.9259 37.4266 93.2662 36.5411C92.6065 35.812 91.6424 35.4474 90.6782 35.4995Z" fill="white"/>
<path fill-rule="evenodd" clip-rule="evenodd" d="M108.342 47.6333C109.255 47.6853 110.118 47.3728 110.777 46.7999C111.386 46.227 111.742 45.4458 111.792 44.6124H115.446C115.395 45.7062 115.091 46.7999 114.431 47.7374C113.771 48.727 112.858 49.5083 111.843 50.0291C110.777 50.602 109.559 50.8624 108.342 50.8624C106.16 50.9666 104.028 50.0812 102.557 48.4145C101.034 46.5395 100.273 44.1437 100.425 41.7478V41.3312C100.324 38.9353 101.085 36.5916 102.557 34.7687C104.028 33.102 106.16 32.2166 108.392 32.3208C110.27 32.2687 112.046 32.8937 113.467 34.1958C114.786 35.4978 115.497 37.2166 115.497 39.0916H111.843C111.843 38.1541 111.437 37.2687 110.828 36.5916C110.168 35.9145 109.306 35.5499 108.392 35.602C107.276 35.602 106.261 36.1228 105.601 37.0083C104.84 38.3103 104.485 39.7687 104.586 41.2791V41.852C104.383 43.4145 104.688 44.977 105.449 46.3312C106.109 47.2687 107.225 47.7374 108.342 47.6333Z" fill="white"/>
<path d="M117.879 41.3864C117.879 39.7197 118.184 38.1052 118.894 36.6468C119.503 35.2927 120.467 34.1989 121.685 33.4177C122.954 32.6364 124.426 32.2718 125.897 32.2718C127.978 32.2197 130.008 33.0531 131.479 34.6156C133.002 36.2822 133.864 38.5218 133.864 40.8135V41.751C133.864 43.3656 133.56 45.0322 132.9 46.4906C132.291 47.7927 131.327 48.9385 130.109 49.7197C128.79 50.501 127.318 50.8656 125.846 50.8135C123.614 50.9177 121.432 49.9802 119.96 48.3135C118.438 46.4385 117.626 44.0427 117.727 41.5947L117.879 41.3864ZM121.838 41.751C121.736 43.2614 122.142 44.8239 122.954 46.0739C123.715 47.0635 124.832 47.6364 126.049 47.6364C127.267 47.6364 128.384 47.0635 129.145 46.0739C129.957 44.6677 130.312 43.0531 130.211 41.4385C130.312 39.9281 129.906 38.4177 129.043 37.1677C128.333 36.1781 127.166 35.6052 125.999 35.6052C124.781 35.6052 123.664 36.1781 122.954 37.1677C122.091 38.5218 121.635 40.1364 121.685 41.751H121.838Z" fill="white"/>
<path d="M137.371 27.9492C137.371 27.3763 137.574 26.8034 137.98 26.3867C138.437 25.9701 138.995 25.7617 139.604 25.7617C140.213 25.7096 140.822 25.918 141.228 26.3867C141.634 26.8034 141.837 27.3763 141.837 27.9492C141.837 28.5221 141.634 29.043 141.228 29.4596C140.771 29.8763 140.213 30.0846 139.604 30.0846C138.995 30.1367 138.386 29.9284 137.98 29.4596C137.574 29.0951 137.371 28.5221 137.371 27.9492ZM141.583 50.5534H137.523V32.6367H141.431L141.583 50.5534Z" fill="white"/>
<path fill-rule="evenodd" clip-rule="evenodd" d="M149.345 32.635V34.7183C150.563 33.1558 152.491 32.2704 154.42 32.3225C158.022 32.3225 160.002 34.4579 160.002 38.7287V50.5517H156.145V38.9371C156.196 38.0517 155.942 37.1662 155.434 36.4371C154.826 35.8121 153.963 35.5517 153.1 35.6037C151.578 35.5517 150.208 36.4371 149.548 37.7912V50.5517H145.742V32.635H149.345Z" fill="white"/>
</g>
</g>
<defs>
<clipPath id="clip0_2062_52033">
<rect width="160" height="80" fill="white"/>
</clipPath>
</defs>
</svg>
