<svg width="180" height="80" viewBox="0 0 180 80" fill="none" xmlns="http://www.w3.org/2000/svg">
<path fill-rule="evenodd" clip-rule="evenodd" d="M22 62.5C9.84974 62.5 0 52.6503 0 40.5C0 28.3497 9.84974 18.5 22 18.5C34.1503 18.5 44 28.3497 44 40.5C44 52.6503 34.1503 62.5 22 62.5ZM32.01 40.7195L22.0003 24.6258L11.99 40.7166L22.0003 46.1501L32.01 40.7195ZM22.0003 48.7699L12.0552 42.7538L22.0003 56.3742L31.938 42.7538L22.0003 48.7699Z" fill="white"/>
<path d="M71.9016 47.2278C72.1012 47.2278 72.2736 47.3001 72.4187 47.4445C72.5639 47.5889 72.6364 47.7604 72.6364 47.9589V48.9337C72.6364 49.1323 72.5639 49.3037 72.4187 49.4482C72.2736 49.5926 72.1012 49.6648 71.9016 49.6648H60.9067C60.7071 49.6648 60.5347 49.5926 60.3896 49.4482C60.2444 49.3037 60.1719 49.1323 60.1719 48.9337V31.442C60.1719 31.2434 60.2444 31.0719 60.3896 30.9275C60.5347 30.7831 60.7071 30.7109 60.9067 30.7109H71.6839C71.8835 30.7109 72.0559 30.7831 72.201 30.9275C72.3462 31.0719 72.4187 31.2434 72.4187 31.442V32.4168C72.4187 32.6153 72.3462 32.7868 72.201 32.9312C72.0559 33.0756 71.8835 33.1478 71.6839 33.1478H62.7573V38.8611H71.0852C71.2848 38.8611 71.4571 38.9333 71.6023 39.0777C71.7474 39.2221 71.82 39.3936 71.82 39.5922V40.5669C71.82 40.7655 71.7474 40.937 71.6023 41.0814C71.4571 41.2258 71.2848 41.298 71.0852 41.298H62.7573V47.2278H71.9016Z" fill="white"/>
<path d="M79.467 44.9275C79.467 45.2705 79.4943 45.5954 79.5487 45.9023C79.6213 46.1911 79.7392 46.4438 79.9025 46.6604C80.0658 46.877 80.2926 47.0485 80.5829 47.1749C80.8913 47.2832 81.2814 47.3374 81.7531 47.3374H83.1955C83.3951 47.3374 83.5675 47.4096 83.7126 47.554C83.8578 47.6984 83.9303 47.8699 83.9303 48.0684V48.9349C83.9303 49.1335 83.8578 49.3049 83.7126 49.4494C83.5675 49.5938 83.3951 49.666 83.1955 49.666H81.481C79.9025 49.666 78.7594 49.2598 78.0519 48.4475C77.3443 47.6352 76.9905 46.4619 76.9905 44.9275V37.9146H74.9765C74.777 37.9146 74.6046 37.8424 74.4594 37.698C74.3143 37.5536 74.2417 37.3821 74.2417 37.1835V36.317C74.2417 36.1185 74.3143 35.947 74.4594 35.8026C74.6046 35.6582 74.777 35.586 74.9765 35.586H76.9905V31.1724C76.9905 30.9739 77.063 30.8024 77.2082 30.658C77.3533 30.5136 77.5257 30.4414 77.7253 30.4414H78.7322C78.9318 30.4414 79.1042 30.5136 79.2493 30.658C79.3945 30.8024 79.467 30.9739 79.467 31.1724V35.586H82.9234C83.123 35.586 83.2953 35.6582 83.4405 35.8026C83.5856 35.947 83.6582 36.1185 83.6582 36.317V37.1835C83.6582 37.3821 83.5856 37.5536 83.4405 37.698C83.2953 37.8424 83.123 37.9146 82.9234 37.9146H79.467V44.9275Z" fill="white"/>
<path d="M99.2359 48.9349C99.2359 49.1335 99.1633 49.3049 99.0182 49.4494C98.8731 49.5938 98.7007 49.666 98.5011 49.666H97.4942C97.2946 49.666 97.1222 49.5938 96.9771 49.4494C96.8319 49.3049 96.7593 49.1335 96.7593 48.9349V41.7866C96.7593 40.3966 96.4237 39.3587 95.7524 38.6727C95.0811 37.9868 94.1467 37.6438 92.9492 37.6438C91.8062 37.6438 90.8809 37.9868 90.1733 38.6727C89.4838 39.3587 89.1391 40.3966 89.1391 41.7866V48.9349C89.1391 49.1335 89.0665 49.3049 88.9214 49.4494C88.7762 49.5938 88.6038 49.666 88.4043 49.666H87.3973C87.1977 49.666 87.0254 49.5938 86.8802 49.4494C86.7351 49.3049 86.6625 49.1335 86.6625 48.9349V31.1724C86.6625 30.9739 86.7351 30.8024 86.8802 30.658C87.0254 30.5136 87.1977 30.4414 87.3973 30.4414H88.4043C88.6038 30.4414 88.7762 30.5136 88.9214 30.658C89.0665 30.8024 89.1391 30.9739 89.1391 31.1724V37.1564C89.4838 36.7051 89.9918 36.29 90.6631 35.9109C91.3526 35.5138 92.2507 35.3152 93.3574 35.3152C94.2102 35.3152 94.9994 35.4596 95.7252 35.7484C96.4509 36.0192 97.0678 36.4163 97.5758 36.9398C98.102 37.4453 98.5102 38.077 98.8005 38.8352C99.0908 39.5934 99.2359 40.4418 99.2359 41.3804V48.9349Z" fill="white"/>
<path d="M102.54 41.2694C102.613 40.4391 102.813 39.6629 103.139 38.9408C103.466 38.2188 103.892 37.587 104.418 37.0454C104.944 36.5039 105.57 36.0797 106.296 35.7728C107.04 35.4659 107.866 35.3125 108.773 35.3125C109.752 35.3125 110.623 35.475 111.385 35.7999C112.166 36.1068 112.828 36.558 113.372 37.1537C113.916 37.7494 114.334 38.4715 114.624 39.3199C114.914 40.1683 115.059 41.116 115.059 42.163V42.894C115.059 43.0926 114.987 43.2641 114.842 43.4085C114.697 43.5529 114.524 43.6251 114.325 43.6251H104.963V43.7876C104.999 45.0151 105.371 45.9628 106.078 46.6307C106.804 47.2805 107.702 47.6054 108.773 47.6054C109.771 47.6054 110.515 47.47 111.004 47.1993C111.512 46.9104 111.921 46.5946 112.229 46.2516C112.374 46.1072 112.501 46.0079 112.61 45.9537C112.719 45.8996 112.882 45.8725 113.1 45.8725H113.916C114.116 45.8725 114.297 45.9447 114.461 46.0891C114.624 46.2335 114.688 46.405 114.651 46.6036C114.597 46.9285 114.443 47.2895 114.189 47.6867C113.935 48.0657 113.563 48.4268 113.073 48.7697C112.601 49.0947 112.002 49.3744 111.277 49.6091C110.569 49.8257 109.734 49.934 108.773 49.934C107.866 49.934 107.049 49.7806 106.323 49.4737C105.598 49.1488 104.963 48.7156 104.418 48.174C103.892 47.6144 103.466 46.9646 103.139 46.2245C102.813 45.4663 102.613 44.645 102.54 43.7605C102.45 42.9301 102.45 42.0998 102.54 41.2694ZM104.963 41.3507H112.61V41.2694C112.61 40.1683 112.256 39.2928 111.549 38.643C110.859 37.9751 109.934 37.6411 108.773 37.6411C108.247 37.6411 107.757 37.7314 107.303 37.9119C106.85 38.0743 106.45 38.318 106.106 38.643C105.761 38.9498 105.489 39.3289 105.289 39.7802C105.09 40.2315 104.981 40.7279 104.963 41.2694V41.3507Z" fill="white"/>
<path d="M125.528 35.5859C125.727 35.5859 125.899 35.6581 126.045 35.8025C126.19 35.9469 126.262 36.1184 126.262 36.3169V37.1834C126.262 37.382 126.19 37.5535 126.045 37.6979C125.899 37.8423 125.727 37.9145 125.528 37.9145H123.949C121.863 37.9145 120.819 38.9524 120.819 41.0283V48.9348C120.819 49.1334 120.747 49.3048 120.602 49.4493C120.456 49.5937 120.284 49.6659 120.084 49.6659H119.078C118.878 49.6659 118.706 49.5937 118.56 49.4493C118.415 49.3048 118.343 49.1334 118.343 48.9348V36.3169C118.343 36.1184 118.415 35.9469 118.56 35.8025C118.706 35.6581 118.878 35.5859 119.078 35.5859H120.084C120.284 35.5859 120.456 35.6581 120.602 35.8025C120.747 35.9469 120.819 36.1184 120.819 36.3169V37.1563C121.182 36.6148 121.618 36.2177 122.126 35.9649C122.634 35.7122 123.296 35.5859 124.112 35.5859H125.528Z" fill="white"/>
<path d="M127.683 41.2694C127.755 40.4391 127.955 39.6629 128.281 38.9408C128.608 38.2188 129.034 37.587 129.56 37.0454C130.087 36.5039 130.713 36.0797 131.438 35.7728C132.182 35.4659 133.008 35.3125 133.915 35.3125C134.895 35.3125 135.766 35.475 136.528 35.7999C137.308 36.1068 137.97 36.558 138.514 37.1537C139.059 37.7494 139.476 38.4715 139.766 39.3199C140.056 40.1683 140.202 41.116 140.202 42.163V42.894C140.202 43.0926 140.129 43.2641 139.984 43.4085C139.839 43.5529 139.666 43.6251 139.467 43.6251H130.105V43.7876C130.141 45.0151 130.513 45.9628 131.221 46.6307C131.946 47.2805 132.844 47.6054 133.915 47.6054C134.913 47.6054 135.657 47.47 136.147 47.1993C136.655 46.9104 137.063 46.5946 137.371 46.2516C137.516 46.1072 137.643 46.0079 137.752 45.9537C137.861 45.8996 138.024 45.8725 138.242 45.8725H139.059C139.258 45.8725 139.44 45.9447 139.603 46.0891C139.766 46.2335 139.83 46.405 139.793 46.6036C139.739 46.9285 139.585 47.2895 139.331 47.6867C139.077 48.0657 138.705 48.4268 138.215 48.7697C137.743 49.0947 137.144 49.3744 136.419 49.6091C135.711 49.8257 134.877 49.934 133.915 49.934C133.008 49.934 132.191 49.7806 131.466 49.4737C130.74 49.1488 130.105 48.7156 129.56 48.174C129.034 47.6144 128.608 46.9646 128.281 46.2245C127.955 45.4663 127.755 44.645 127.683 43.7605C127.592 42.9301 127.592 42.0998 127.683 41.2694ZM130.105 41.3507H137.752V41.2694C137.752 40.1683 137.398 39.2928 136.691 38.643C136.001 37.9751 135.076 37.6411 133.915 37.6411C133.389 37.6411 132.899 37.7314 132.445 37.9119C131.992 38.0743 131.593 38.318 131.248 38.643C130.903 38.9498 130.631 39.3289 130.431 39.7802C130.232 40.2315 130.123 40.7279 130.105 41.2694V41.3507Z" fill="white"/>
<path d="M143.349 36.3169C143.349 36.1184 143.421 35.9469 143.567 35.8025C143.712 35.6581 143.884 35.5859 144.084 35.5859H145.091C145.29 35.5859 145.463 35.6581 145.608 35.8025C145.753 35.9469 145.825 36.1184 145.825 36.3169V43.4653C145.825 44.8552 146.134 45.8932 146.751 46.5791C147.386 47.265 148.302 47.608 149.499 47.608C150.643 47.608 151.541 47.265 152.194 46.5791C152.847 45.8932 153.174 44.8552 153.174 43.4653V36.3169C153.174 36.1184 153.246 35.9469 153.391 35.8025C153.536 35.6581 153.709 35.5859 153.908 35.5859H154.915C155.115 35.5859 155.287 35.6581 155.432 35.8025C155.578 35.9469 155.65 36.1184 155.65 36.3169V48.9348C155.65 49.1334 155.578 49.3048 155.432 49.4493C155.287 49.5937 155.115 49.6659 154.915 49.6659H153.908C153.709 49.6659 153.536 49.5937 153.391 49.4493C153.246 49.3048 153.174 49.1334 153.174 48.9348V48.0954C152.829 48.5467 152.339 48.9709 151.704 49.368C151.069 49.7471 150.198 49.9366 149.091 49.9366C148.238 49.9366 147.458 49.8013 146.751 49.5305C146.043 49.2417 145.435 48.8445 144.927 48.3391C144.419 47.8156 144.029 47.1838 143.757 46.4437C143.485 45.6856 143.349 44.8281 143.349 43.8714V36.3169Z" fill="white"/>
<path d="M162.2 37.1537C162.364 36.9371 162.554 36.7205 162.772 36.5039C162.989 36.2692 163.234 36.0707 163.507 35.9082C163.797 35.7277 164.133 35.5833 164.514 35.475C164.895 35.3667 165.339 35.3125 165.847 35.3125C166.954 35.3125 167.87 35.5201 168.596 35.9353C169.322 36.3324 169.893 36.91 170.31 37.6682C170.546 37.3433 170.791 37.0364 171.045 36.7476C171.317 36.4588 171.626 36.206 171.971 35.9894C172.333 35.7728 172.733 35.6103 173.168 35.502C173.622 35.3757 174.148 35.3125 174.746 35.3125C176.579 35.3125 177.913 35.8631 178.747 36.9642C179.582 38.0473 179.999 39.5365 179.999 41.4319V48.9322C179.999 49.1308 179.926 49.3022 179.781 49.4467C179.636 49.5911 179.464 49.6633 179.264 49.6633H178.257C178.058 49.6633 177.885 49.5911 177.74 49.4467C177.595 49.3022 177.522 49.1308 177.522 48.9322V41.7027C177.522 40.3127 177.25 39.2928 176.706 38.643C176.162 37.9751 175.363 37.6411 174.311 37.6411C173.349 37.6411 172.569 37.957 171.971 38.5888C171.39 39.2206 171.1 40.1954 171.1 41.5131V48.9322C171.1 49.1308 171.027 49.3022 170.882 49.4467C170.737 49.5911 170.564 49.6633 170.365 49.6633H169.358C169.158 49.6633 168.986 49.5911 168.841 49.4467C168.696 49.3022 168.623 49.1308 168.623 48.9322V41.7027C168.623 40.3127 168.351 39.2928 167.807 38.643C167.262 37.9751 166.464 37.6411 165.412 37.6411C164.45 37.6411 163.67 37.957 163.071 38.5888C162.491 39.2206 162.2 40.1954 162.2 41.5131V48.9322C162.2 49.1308 162.128 49.3022 161.983 49.4467C161.837 49.5911 161.665 49.6633 161.465 49.6633H160.458C160.259 49.6633 160.087 49.5911 159.941 49.4467C159.796 49.3022 159.724 49.1308 159.724 48.9322V36.3143C159.724 36.1158 159.796 35.9443 159.941 35.7999C160.087 35.6555 160.259 35.5833 160.458 35.5833H161.465C161.665 35.5833 161.837 35.6555 161.983 35.7999C162.128 35.9443 162.2 36.1158 162.2 36.3143V37.1537Z" fill="white"/>
</svg>
