<svg width="160" height="80" viewBox="0 0 160 80" fill="none" xmlns="http://www.w3.org/2000/svg">
<g clip-path="url(#clip0_2062_48021)">
<mask id="mask0_2062_48021" style="mask-type:luminance" maskUnits="userSpaceOnUse" x="0" y="0" width="160" height="81">
<path d="M160 0.5H0V80.5H160V0.5Z" fill="white"/>
</mask>
<g mask="url(#mask0_2062_48021)">
<path d="M47.7148 50.3881V30.3328H53.4772C55.0928 30.2776 56.6546 30.7196 58.0548 31.493C59.4011 32.2665 60.4782 33.4267 61.1783 34.8632C61.8784 36.4102 62.2554 38.1229 62.2015 39.8356V40.8853C62.2554 42.598 61.8784 44.3107 61.0706 45.8577C60.3705 47.2941 59.2934 48.4543 57.9471 49.2277C56.493 50.0012 54.8774 50.4433 53.2618 50.3881H47.7148ZM51.0538 33.0951V47.4046H53.2618C54.8235 47.5151 56.3315 46.8521 57.3547 45.6919C58.3779 44.2555 58.9164 42.5427 58.8087 40.7747V39.6698C58.9164 37.9019 58.4317 36.1339 57.4624 34.6975C56.4392 33.5372 54.9851 32.8741 53.4772 32.9846L51.0538 33.0951Z" fill="white"/>
<path d="M64.6795 42.7642C64.6257 41.383 64.9488 40.0018 65.5412 38.7863C66.0797 37.6813 66.8876 36.7421 67.9108 36.0791C68.9879 35.4162 70.1726 35.1399 71.4113 35.1399C73.1884 35.0847 74.9118 35.7476 76.1504 37.0736C77.4429 38.4548 78.143 40.3333 78.143 42.2117V42.9852C78.143 44.3664 77.8737 45.6924 77.2813 46.9079C76.7966 48.0128 75.935 48.9521 74.9656 49.615C73.8885 50.278 72.6499 50.6095 71.4113 50.5543C69.5802 50.6648 67.7492 49.8913 66.5106 48.4548C65.2181 46.9079 64.5718 44.9189 64.6795 42.8747V42.7642ZM67.9646 43.0957C67.9108 44.3664 68.2339 45.6371 68.8801 46.6869C69.4725 47.5156 70.4419 48.0128 71.4651 47.9576C72.4884 48.0128 73.4577 47.5156 74.0501 46.6316C74.7502 45.4714 75.0733 44.1454 74.9656 42.7642C75.0195 41.4935 74.6964 40.2228 73.9963 39.1731C73.4039 38.3443 72.4345 37.9023 71.4651 37.9023C70.4958 37.9023 69.5264 38.3996 68.934 39.1731C68.18 40.3885 67.8569 41.7145 67.9646 43.0957Z" fill="white"/>
<path d="M80.3524 42.8184C80.2447 40.8295 80.8371 38.8958 81.9142 37.2935C82.9374 35.9676 84.4992 35.1941 86.1148 35.2493C87.6227 35.1941 89.0767 35.8571 89.9923 37.0173V35.5256H92.9542V49.7797C93.0081 51.4924 92.3618 53.2051 91.177 54.3654C89.8307 55.5256 88.1612 56.1333 86.3841 56.0781C85.307 56.0781 84.2299 55.8571 83.2605 55.4151C82.345 55.0284 81.5372 54.4206 80.9448 53.5919L82.5066 51.6029C83.3682 52.7632 84.7684 53.4261 86.1686 53.4261C87.0842 53.4814 87.9997 53.1499 88.7536 52.5422C89.4537 51.8239 89.7768 50.8847 89.723 49.8902V48.8958C88.7536 50.0007 87.4073 50.5532 85.9532 50.498C84.3376 50.5532 82.7759 49.7797 81.8065 48.4538C80.7294 46.7963 80.1909 44.8074 80.3524 42.8184ZM83.5837 43.0947C83.5298 44.3101 83.8529 45.5808 84.4992 46.6306C85.0377 47.4593 86.0071 47.9565 86.9764 47.9013C88.1612 47.9013 89.2383 47.2383 89.7768 46.1886V39.6692C89.2383 38.6195 88.1612 37.9565 86.9764 37.9565C86.0071 37.9013 85.0377 38.3985 84.4453 39.2272C83.7991 40.4427 83.476 41.7687 83.5837 43.0947Z" fill="white"/>
<path d="M102.86 50.6085C100.975 50.719 99.1444 49.9455 97.8519 48.6196C96.5056 47.1831 95.8055 45.2494 95.9132 43.3157V42.929C95.9132 41.5477 96.1824 40.1665 96.7748 38.9511C97.3134 37.8461 98.1212 36.9069 99.0905 36.2439C100.114 35.5809 101.245 35.2494 102.483 35.2494C104.207 35.1389 105.93 35.8571 107.061 37.1831C108.246 38.7301 108.784 40.719 108.677 42.6527V43.9787H99.1982C99.2521 45.0284 99.6829 46.0781 100.383 46.8516C101.083 47.5698 102.052 47.9566 103.022 47.9013C104.476 47.9566 105.876 47.2936 106.738 46.0781L108.515 47.7908C107.923 48.6748 107.115 49.393 106.199 49.8903C105.122 50.3875 103.991 50.6638 102.86 50.6085ZM102.483 37.9013C101.676 37.8461 100.868 38.2328 100.329 38.8406C99.7368 39.614 99.3598 40.5533 99.2521 41.5477H105.445V41.2715C105.445 40.3323 105.122 39.4483 104.584 38.7301C104.045 38.1776 103.237 37.8461 102.483 37.9013Z" fill="white"/>
<path fill-rule="evenodd" clip-rule="evenodd" d="M117.132 47.9582C117.886 48.0134 118.586 47.7372 119.179 47.2399C119.717 46.798 120.04 46.135 120.04 45.4167H123.11C123.056 46.356 122.787 47.2399 122.248 48.0134C121.71 48.8422 120.956 49.5051 120.094 49.9471C119.233 50.3891 118.263 50.6101 117.294 50.6101C115.463 50.7206 113.686 50.0024 112.501 48.6212C111.208 47.019 110.562 44.9748 110.724 42.9306V42.5991C110.616 40.6101 111.262 38.6764 112.501 37.1847C113.739 35.8035 115.517 35.0852 117.294 35.1405C118.856 35.0852 120.363 35.6377 121.548 36.6875C122.625 37.7372 123.272 39.2289 123.272 40.7206H120.202C120.202 39.9471 119.879 39.1736 119.34 38.6212C118.802 38.0687 118.048 37.7924 117.294 37.7924C116.324 37.7372 115.409 38.1792 114.87 38.9527C114.224 40.0024 113.901 41.2731 114.009 42.5438V43.041C113.901 44.3118 114.224 45.5825 114.87 46.6322C115.301 47.4609 116.163 47.9582 117.132 47.9582Z" fill="white"/>
<path d="M124.886 42.767C124.832 41.3858 125.155 40.0045 125.747 38.7891C126.232 37.6841 127.094 36.7449 128.117 36.0819C129.194 35.4189 130.379 35.0874 131.617 35.1427C133.395 35.0874 135.118 35.8056 136.357 37.0764C137.649 38.4576 138.349 40.336 138.349 42.2145V42.988C138.349 44.3692 138.08 45.6951 137.488 46.9106C137.003 48.0156 136.195 48.9548 135.172 49.6178C134.095 50.2808 132.856 50.6123 131.617 50.557C129.733 50.6675 127.955 49.894 126.663 48.4576C125.37 46.9106 124.724 44.9217 124.832 42.8775L124.886 42.767ZM128.171 43.0985C128.063 44.3692 128.386 45.6399 129.032 46.6896C129.625 47.5184 130.594 48.0156 131.617 47.9603C132.641 48.0156 133.61 47.5183 134.202 46.6344C134.903 45.4741 135.226 44.1482 135.118 42.767C135.172 41.4962 134.849 40.2808 134.149 39.1758C133.556 38.3471 132.587 37.8498 131.564 37.8498C130.54 37.7946 129.625 38.2918 129.032 39.1206C128.386 40.336 128.063 41.7172 128.171 43.0985Z" fill="white"/>
<path d="M141.153 31.6574C141.099 31.1601 141.314 30.6629 141.691 30.3314C142.068 29.9999 142.553 29.8342 143.038 29.8894C143.522 29.8342 144.061 30.0552 144.384 30.3867C144.707 30.7182 144.869 31.2154 144.869 31.6574C144.869 32.0994 144.707 32.5414 144.384 32.8729C144.007 33.2043 143.522 33.4253 143.038 33.3701C142.553 33.4253 142.014 33.2043 141.691 32.8729C141.314 32.5414 141.153 32.0994 141.153 31.6574ZM144.599 50.3867H141.314V35.5248H144.599V50.3867Z" fill="white"/>
<path fill-rule="evenodd" clip-rule="evenodd" d="M151.168 35.5292V37.2419C152.191 35.9159 153.753 35.1977 155.369 35.253C158.385 35.253 159.946 37.0209 160 40.5568V50.3911H156.931V40.7226C156.984 39.9491 156.769 39.2309 156.338 38.6231C155.8 38.1259 155.099 37.9049 154.399 37.9601C153.161 37.9049 152.03 38.6231 151.491 39.7834V50.3358H148.152V35.5292H151.168Z" fill="white"/>
<path d="M20 60.5C31.0457 60.5 40 51.5457 40 40.5C40 29.4543 31.0457 20.5 20 20.5C8.9543 20.5 0 29.4543 0 40.5C0 51.5457 8.9543 60.5 20 60.5Z" fill="white"/>
<path d="M16.0098 38.9516H21.2875V41.8245H16.0098V47.8466H19.3487C20.4258 47.9019 21.5567 47.6809 22.58 47.2941C23.3339 46.9627 24.034 46.4654 24.5726 45.8024C25.0572 45.1395 25.3804 44.366 25.5419 43.5372C25.7573 42.598 25.8112 41.6588 25.8112 40.6643C25.8112 39.7251 25.7573 38.7306 25.5419 37.7914C25.3804 36.9627 25.0572 36.1892 24.5726 35.5262C24.034 34.8632 23.3878 34.3107 22.58 34.0345C21.5567 33.6477 20.4258 33.4267 19.3487 33.482H16.0098V38.9516ZM12.6709 41.8245H10.8398V38.9516H12.6709V30.5538H20.6412C21.9337 30.4986 23.2801 30.7748 24.4649 31.3273C25.4881 31.8245 26.4036 32.5428 27.1037 33.482C27.8038 34.4212 28.3423 35.5262 28.6654 36.6312C28.9886 37.9019 29.204 39.2278 29.1501 40.5538C29.1501 41.8798 28.9886 43.1505 28.6654 44.4212C28.3423 45.5262 27.8038 46.5759 27.1037 47.5151C26.4036 48.4544 25.4881 49.1726 24.4649 49.6698C23.2801 50.2223 21.9876 50.4986 20.6412 50.4433H12.6709V41.8245Z" fill="#C6C6C6"/>
</g>
</g>
<defs>
<clipPath id="clip0_2062_48021">
<rect width="160" height="80" fill="white"/>
</clipPath>
</defs>
</svg>
