<svg width="100" height="80" viewBox="0 0 100 80" fill="none" xmlns="http://www.w3.org/2000/svg">
<path fill-rule="evenodd" clip-rule="evenodd" d="M43.089 40.6485H48.1411C48.2897 39.1634 47.9925 37.9752 46.5066 37.6782C44.4263 37.3812 43.3862 38.7178 43.089 40.6485ZM63.446 37.9752H63.2974C61.6629 37.8267 59.8798 37.2327 58.3939 38.1238C57.5023 38.7178 57.6509 39.4604 58.3939 40.203C59.8798 41.0941 61.2171 40.797 62.5544 42.2822C64.6347 45.2525 62.703 48.6683 59.5826 49.7079C57.3537 50.1535 53.7875 50.005 51.5587 49.2624L52.153 46.1436C54.0847 46.5891 55.2735 46.8861 57.2051 46.7376C59.1368 46.4406 59.5826 44.6584 57.5023 43.7673C55.8678 43.1733 54.6791 42.7277 53.7875 41.3911C53.0446 39.7574 53.3418 37.3812 54.3819 36.0446C56.4622 33.9653 61.2171 34.2624 63.8917 34.7079H64.0403H64.1889L63.446 37.9752ZM69.984 10.5C86.6261 10.5 99.9993 23.8663 99.9993 40.5C99.9993 57.1337 86.6261 70.5 69.984 70.5C56.165 70.5 44.5749 61.2921 41.0087 48.5198C43.6834 50.1535 47.8439 50.599 50.6671 49.1139L51.2615 45.698C48.5869 47.1832 42.3461 47.4802 42.4946 43.6188V43.3218H51.7073C52.5988 38.2723 52.153 34.8564 46.5066 34.4109C44.5749 34.4109 42.9404 34.7079 41.3059 35.896L41.0087 36.1931L40.7116 36.4901L40.4144 36.7871C40.4144 36.9356 40.2658 37.0842 40.1172 37.2327C41.7517 22.2327 54.5305 10.5 69.984 10.5ZM71.767 49.8564H75.779L77.1163 41.8366C77.2649 41.2426 77.4135 40.6485 77.7107 40.0545C78.4536 38.8663 80.0881 38.4208 81.4255 38.5693H81.574V38.4208L81.7226 38.1238V37.8267L81.8712 37.3812C82.0198 36.7871 82.1684 36.1931 82.4656 35.7475L82.6142 35.4505L82.7628 35.1535V35.005L82.9114 34.8564L83.06 34.7079H82.9114V34.5594C80.8311 34.2624 79.3452 35.4505 78.1565 37.0842L78.4536 34.7079H74.4417L71.767 49.8564ZM94.0557 36.0446C97.0275 38.4208 97.3247 42.8762 95.6902 46.1436C93.0155 51.4901 84.1001 51.6386 81.574 46.1436C80.0881 42.1337 81.4255 36.9356 85.586 35.1535C88.2606 34.1139 91.6782 34.2624 94.0557 36.0446ZM86.0318 44.2129C86.7747 47.0347 89.8951 46.5891 91.2325 44.2129C91.6782 42.8762 91.9754 41.3911 91.8268 39.9059C91.0839 36.9356 87.9635 37.5297 86.6261 39.9059C86.0318 41.2426 85.7346 42.7277 86.0318 44.2129ZM66.715 31.2921H70.7269L69.984 34.7079H72.51L71.9156 37.9752L69.3896 37.8267L68.0523 45.698C68.0523 46.4406 68.2009 46.5891 68.7952 46.7376C69.5382 46.8861 70.4297 46.8861 71.0241 46.5891H71.1727L70.7269 49.2624C69.5382 50.005 67.4579 50.005 66.1206 49.8564C64.1889 49.4109 63.7431 48.6683 64.0403 46.7376L66.715 31.2921ZM95.0958 49.1139H96.2845V49.2624H95.8388V50.302H95.5416V49.2624H95.0958V49.1139ZM96.4331 49.1139H96.7303L97.1761 50.005L97.6219 49.1139H97.919V50.302H97.6219V49.4109L97.3247 50.302H97.0275L96.7303 49.4109V50.302H96.4331V49.1139Z" fill="#C4C4C4"/>
<path fill-rule="evenodd" clip-rule="evenodd" d="M30.0154 10.5C38.7822 10.5 46.6576 14.2129 52.1554 20.1535H47.6977L46.3604 21.9356H53.6413C54.0871 22.5297 54.5329 23.1238 54.9786 23.7178H45.023L43.8343 25.5H56.0188C56.316 26.0941 56.7617 26.6881 57.0589 27.4307H42.9428L42.0512 29.0644H57.8019C58.0991 29.6584 58.2476 30.2525 58.5448 30.9951H41.4569L41.0111 32.6287H58.9906C59.1392 33.2228 59.2878 33.8168 59.4364 34.4109C58.9906 34.4109 58.5448 34.4109 57.9505 34.5594H47.1033C46.9547 34.5594 46.8061 34.4109 46.509 34.4109C46.0632 34.4109 45.766 34.4109 45.3202 34.5594H40.4167L40.1195 36.1931H41.0111L40.7139 36.4901L40.4167 36.7871C38.1879 39.4604 37.4449 44.2129 39.5252 47.1832C39.971 47.7772 40.5653 48.2228 41.1597 48.6683L41.6055 49.8564H45.023C46.0632 50.005 47.1033 50.005 48.1435 49.8564H55.1272C55.8702 50.005 56.7617 50.005 57.5047 49.8564H58.5448C58.2476 50.599 58.0991 51.3416 57.8019 51.9356H42.1998L43.0914 53.5693H57.0589C56.6131 54.3119 56.316 55.0545 55.8702 55.6485H44.1315L45.1716 57.4307H54.8301C54.3843 58.0248 53.9385 58.7673 53.3441 59.3614H46.509L47.8463 60.995H52.0068C46.509 66.7871 38.6336 70.5 30.0154 70.5C13.3732 70.5 0 57.1337 0 40.5C0 23.8663 13.3732 10.5 30.0154 10.5ZM50.9667 36.1931H54.3843C53.9385 36.6386 53.6413 37.3812 53.4927 37.9752H51.8582C51.7096 37.2327 51.4125 36.6386 50.9667 36.1931ZM59.8821 37.6782C59.8821 37.8267 59.8821 37.8267 59.8821 37.9752H58.5448C58.9906 37.8267 59.4364 37.6782 59.8821 37.6782ZM47.2519 37.9752H44.5773C45.023 37.6782 45.766 37.5297 46.509 37.6782C46.8061 37.6782 47.1033 37.8267 47.2519 37.9752ZM43.24 39.6089H48.1435C48.1435 39.9059 48.1435 40.3515 48.1435 40.6485H43.0914C43.0914 40.3515 43.24 39.9059 43.24 39.6089ZM52.0068 39.6089H53.3441C53.3441 40.203 53.4927 40.797 53.7899 41.3911H52.0068C52.0068 40.797 52.0068 40.203 52.0068 39.6089ZM57.9505 39.6089H60.0307C60.0307 39.9059 60.0307 40.203 60.0307 40.5C60.0307 40.6485 60.0307 40.797 60.0307 40.797C59.585 40.6485 58.9906 40.5 58.3962 40.203C58.2476 40.0545 58.0991 39.9059 57.9505 39.6089ZM51.7096 43.0248H55.8702C56.316 43.3218 56.9103 43.4703 57.5047 43.7673C58.0991 44.0644 58.5448 44.3614 58.6934 44.8069H42.6456C42.497 44.3614 42.497 44.0644 42.497 43.6188V43.3218H51.7096C51.7096 43.3218 51.7096 43.1733 51.7096 43.0248ZM44.7259 46.4406H49.035C47.6977 46.7376 45.9146 46.8861 44.7259 46.4406ZM51.1153 46.4406H52.0068L51.7096 48.2228H50.8181L51.1153 46.4406ZM53.4927 46.4406H58.2476C57.9505 46.5891 57.6533 46.7376 57.2075 46.7376C55.8702 46.8861 54.8301 46.7376 53.4927 46.4406ZM36.9991 46.7376L36.4048 49.8564H32.8386L32.9872 49.5594V49.2624V49.1139V48.8168L33.1358 48.6683V48.3713V48.2228L32.9872 48.5198C31.0555 50.302 27.7865 50.7475 25.5576 49.1139C23.0316 46.7376 24.2203 43.0248 26.895 41.2426L27.3407 41.0941C29.421 40.203 31.7985 40.3515 34.0273 40.3515L34.1759 40.203C34.4731 38.8663 33.7301 37.9752 32.3928 37.8267C31.0555 37.8267 27.4893 37.9752 26.4492 38.5693L27.4893 35.302C29.2724 34.4109 32.5414 34.4109 34.6217 34.7079C36.9991 35.302 38.9308 36.4901 38.4851 39.3119L36.9991 46.7376ZM33.5815 43.0248C33.5815 42.8762 33.5815 42.8762 33.2844 42.8762C32.0956 42.7277 30.4611 43.0248 29.421 43.7673C28.3809 44.6584 28.0837 46.4406 29.5696 46.7376C30.9069 46.8861 32.2442 46.5891 32.9872 45.401C33.433 44.6584 33.433 43.9158 33.5815 43.0248ZM7.13236 49.8564H3.269L6.538 31.2921H13.3732L13.9675 42.4307L18.5739 31.2921H25.5576L22.2886 49.8564H18.4253L20.8027 36.0446H20.6541L15.0077 49.8564H10.55C10.2528 45.2525 10.1042 40.6485 9.807 36.0446H9.65841L7.13236 49.8564Z" fill="white"/>
<path d="M95.1133 49.1133H96.302V49.2619H95.8562V50.302H95.5591V49.2619H95.1133V49.1133Z" stroke="#FEFEFE" stroke-width="0.314943"/>
<path fill-rule="evenodd" clip-rule="evenodd" d="M96.4336 49.1133H96.7308L97.1766 50.0048L97.6223 49.1133H97.9195V50.302H97.6223V49.4105L97.3252 50.302H97.028L96.7308 49.4105V50.302H96.4336V49.1133Z" fill="#FEFEFE"/>
</svg>
