<svg width="100" height="80" viewBox="0 0 100 80" fill="none" xmlns="http://www.w3.org/2000/svg">
<path fill-rule="evenodd" clip-rule="evenodd" d="M0 35.7907C0 45.8397 11.9529 45.3372 13.8047 46.0072C16.1616 46.8446 15.9933 51.0316 10.6061 51.0316C7.74411 51.0316 5.38721 50.6967 2.6936 49.8593C2.0202 49.6918 1.3468 49.3568 0.673401 49.1893V56.7261C2.6936 57.731 9.59596 57.8984 12.4579 57.8984C19.8653 57.8984 26.5993 52.874 24.7475 45.3372C22.8956 37.1306 12.1212 37.968 10.6061 37.1306C8.75421 36.2932 8.75421 33.9484 10.7744 33.111C13.468 31.9386 18.8552 33.111 21.5488 33.9484C22.3906 34.2834 23.2323 34.6183 23.9057 34.7858V27.584C22.7273 27.2491 22.0539 26.9141 19.697 26.4117C16.33 25.7417 14.9832 25.7417 11.6162 25.7417C5.55556 25.7417 0 29.7613 0 35.7907ZM27.1044 27.4166V57.5635H35.8586V48.5194C36.0269 48.8544 35.8586 48.6869 36.0269 49.0218L36.8687 50.5292C37.2054 51.1991 37.5421 51.8691 37.8788 52.7065C38.2155 53.5439 39.2256 56.5586 39.2256 57.5635H49.8317C49.6633 57.2285 49.495 56.5586 49.3266 56.0561L47.3064 51.5341C43.0976 42.9925 43.9394 47.5145 47.6431 40.3127C48.3165 39.3078 50.1684 35.4557 50.3367 34.1159H40.404C40.0673 35.7907 36.8687 41.3176 35.8586 42.1551V25.7417C34.1751 25.7417 28.4512 27.4166 27.1044 27.4166ZM79.4613 27.2491V57.5635H87.8788V25.7417C86.532 25.7417 81.3131 27.0816 79.4613 27.2491ZM91.5825 27.2491V57.5635H100V25.7417C98.9899 25.7417 92.5926 27.2491 91.5825 27.2491ZM51.3468 44.1648V57.5635H59.7643V47.5145C59.7643 42.825 60.4377 40.9827 65.1515 40.9827V33.9484C63.6364 33.9484 64.9832 33.7809 62.4579 33.9484C59.9327 34.2834 58.0808 34.2834 55.3872 35.9582C53.0303 37.4655 51.3468 40.3127 51.3468 44.1648ZM67.6768 57.5635H76.0943V34.2834H67.6768V57.5635ZM67.8451 27.7515C67.8451 29.0914 68.0135 29.9288 69.0236 30.9337C72.7273 34.6183 78.6195 29.0914 74.7475 25.0718C72.2222 22.3921 67.8451 24.7368 67.8451 27.7515Z" fill="white"/>
</svg>
