<?xml version="1.0" encoding="utf-8"?>
<!-- Generator: Adobe Illustrator 23.0.1, SVG Export Plug-In . SVG Version: 6.00 Build 0)  -->
<svg version="1.1" id="Layer_1" xmlns="http://www.w3.org/2000/svg" xmlns:xlink="http://www.w3.org/1999/xlink" x="0px" y="0px"
	 viewBox="0 0 318.7 56.1" style="enable-background:new 0 0 318.7 56.1;" xml:space="preserve">
<style type="text/css">
	.st0{fill:#FFFFFF;}
</style>
<g>
	<polygon class="st0" points="125.7,0 131.8,0 143.9,28.4 155.7,0 161.8,0 161.8,43.6 155.4,43.6 155.4,16.4 155.2,16.4 145.9,39.2 
		141.9,39.2 132.2,16.4 132.1,16.4 132.1,43.6 125.7,43.6 	"/>
	<rect x="170.9" y="12.5" class="st0" width="6" height="31"/>
	<polygon class="st0" points="185.8,0 209.7,0 209.7,6.2 192.2,6.2 192.2,19.1 209.7,19.1 209.7,24.9 192.2,24.9 192.2,43.6 
		185.8,43.6 	"/>
	<rect x="216" y="12.5" class="st0" width="6" height="31"/>
	<path class="st0" d="M230.3,12.5h6v3.3h0.1c2-2.5,4.6-3.7,7.8-3.7c2.5,0,4.8,0.9,6.8,2.7s3.1,4.5,3.2,8.1v20.6h-6V25.1
		c0-2.2-0.6-3.8-1.7-5c-1.1-1.2-2.5-1.7-4.3-1.7c-1.7,0-3.2,0.6-4.3,1.7s-1.7,2.8-1.7,5v18.5h-6L230.3,12.5L230.3,12.5z"/>
	<rect x="262.2" y="12.5" class="st0" width="6" height="31"/>
	<path class="st0" d="M277.2,0.1h6v12.4h4.4v4.8h-4.4v18.1c0,1.6,0.7,2.3,2.1,2.3h2.3v5.9h-3.1c-2.1,0-3.9-0.7-5.2-2
		c-1.4-1.3-2.1-3.2-2.1-5.6V17.3h-3v-4.8h3L277.2,0.1L277.2,0.1z"/>
	<path class="st0" d="M291.6,12.5h6.4l7.1,21.7h0.1l7.1-21.7h6.4L305.8,50c-0.8,2.3-2,3.9-3.4,4.8c-1.5,0.9-3.2,1.3-5,1.3h-2v-5.9
		h1.8c0.8,0,1.5-0.2,2.2-0.7s1.1-1.1,1.4-2l1.6-5.2L291.6,12.5z"/>
	<circle class="st0" cx="173.9" cy="3.7" r="3.7"/>
	<circle class="st0" cx="219" cy="3.7" r="3.7"/>
	<circle class="st0" cx="265.2" cy="3.7" r="3.7"/>
	<g>
		<g>
			<circle class="st0" cx="45.8" cy="14.3" r="1.8"/>
			<circle class="st0" cx="41.3" cy="10.5" r="2"/>
			<circle class="st0" cx="36.1" cy="7.1" r="2.1"/>
			<circle class="st0" cx="30" cy="4.8" r="2.1"/>
			<circle class="st0" cx="23.3" cy="4.1" r="2.5"/>
			<circle class="st0" cx="16" cy="5.6" r="2.8"/>
			<circle class="st0" cx="9" cy="10.5" r="3.1"/>
			<circle class="st0" cx="4" cy="17.5" r="3.3"/>
			<circle class="st0" cx="3.6" cy="27.5" r="3.6"/>
			<circle class="st0" cx="9.3" cy="36.3" r="4.1"/>
			<circle class="st0" cx="53" cy="22.8" r="3.6"/>
			<circle class="st0" cx="60.8" cy="14.8" r="3.8"/>
			<circle class="st0" cx="44" cy="30.5" r="4"/>
			<circle class="st0" cx="33.8" cy="36.8" r="4.8"/>
			<circle class="st0" cx="21.1" cy="39.8" r="5.5"/>
			<circle class="st0" cx="71.3" cy="8.3" r="4.6"/>
			<circle class="st0" cx="84" cy="5" r="5"/>
			<circle class="st0" cx="95.3" cy="8.6" r="4.1"/>
			<circle class="st0" cx="101" cy="18.1" r="3.6"/>
			<circle class="st0" cx="100.8" cy="28" r="3.1"/>
			<circle class="st0" cx="95.6" cy="35" r="2.8"/>
			<circle class="st0" cx="89" cy="39.5" r="2.8"/>
			<circle class="st0" cx="81.6" cy="41" r="2.5"/>
			<circle class="st0" cx="74.6" cy="40.5" r="2.1"/>
			<circle class="st0" cx="68.8" cy="38" r="2"/>
			<circle class="st0" cx="63.5" cy="35" r="1.8"/>
		</g>
	</g>
</g>
</svg>
