<svg width="80" height="80" viewBox="0 0 80 80" fill="none" xmlns="http://www.w3.org/2000/svg">
<path d="M51.2891 35.3992C51.2891 35.9992 51.5861 36.5992 52.4772 36.2992C53.3683 35.9992 53.9623 35.3992 53.9623 34.1992V32.6992C53.9623 32.6992 53.3683 32.9992 52.4772 33.5992C51.5861 33.8992 51.2891 34.4992 51.2891 35.3992Z" fill="white"/>
<path d="M37.0318 32.9983C36.1407 33.2983 35.8438 34.1983 35.8438 35.6983L38.5169 35.0983C38.5169 35.0983 38.5169 34.7983 38.5169 34.4983C38.5169 33.2983 38.2199 32.6983 37.0318 32.9983Z" fill="white"/>
<path d="M64.6525 21L64.3555 21.6H64.6525C64.9495 21.6 64.9495 21.6 64.9495 21.3C64.9495 21 64.9495 21 64.6525 21Z" fill="white"/>
<path d="M64.657 20.3984C63.7659 20.3984 63.1719 20.9984 63.1719 21.8984C63.1719 22.7984 63.7659 23.3984 64.657 23.3984C65.5481 23.3984 66.1422 22.7984 66.1422 21.8984C66.1422 20.9984 65.5481 20.3984 64.657 20.3984ZM64.9541 22.7984C64.9541 22.4984 64.9541 22.4984 64.9541 22.1984C64.9541 21.8984 64.9541 21.8984 64.657 21.8984H64.36V22.7984H64.063V20.6984H64.657C64.9541 20.6984 65.2511 20.6984 65.2511 21.2984C65.2511 21.5984 65.2511 21.8984 64.9541 21.8984C65.2511 21.8984 65.2511 21.8984 65.2511 22.1984C65.2511 22.4984 65.2511 22.4984 64.9541 22.7984C65.2511 22.7984 65.2511 22.7984 65.2511 22.7984H64.9541Z" fill="white"/>
<path d="M64.6269 10.5H15.0746C12.0896 10.5 10 12.6 10 15.6V65.7C10 68.4 12.0896 70.5 15.0746 70.5H64.9254C67.6119 70.5 70 68.4 70 65.4V15.6C69.7015 12.6 67.6119 10.5 64.6269 10.5ZM17.1642 36L19.8507 35.4V36.6C19.8507 36.6 20.7463 34.8 22.5373 34.5C24.6269 33.9 25.5224 35.4 25.5224 37.2V44.7L22.5373 45.3V38.1C22.5373 36.9 21.9403 36.9 21.3433 36.9C20.7463 37.2 20.1493 38.1 20.1493 39.3V44.1C19.8507 43.8 18.9552 43.5 18.3582 43.5C18.0597 43.5 17.7612 43.5 17.1642 43.8V36ZM15.6716 58.8C14.7761 59.1 13.5821 59.4 13.5821 59.4H13.2836C12.3881 59.4 11.4925 58.5 11.4925 57.6C11.4925 57.3 11.4925 57 11.791 56.7L15.6716 55.5V58.8ZM15.6716 54.9C14.7761 55.2 13.5821 55.5 13.5821 55.5H13.2836C12.3881 55.5 11.4925 54.6 11.4925 53.7C11.4925 53.4 11.4925 53.1 11.791 52.8L15.6716 51.9V54.9ZM15.6716 50.7C14.7761 51 13.5821 51.3 13.5821 51.3H13.2836C12.3881 51.3 11.4925 50.4 11.4925 49.5C11.4925 49.2 11.4925 48.9 11.791 48.6L15.6716 47.7V50.7ZM15.6716 47.1L12.6866 47.7V30.9L15.6716 30.3V47.1ZM27.0149 60.6V67.2C27.0149 67.2 23.1343 67.2 21.6418 67.2C18.6567 67.2 16.5672 64.8 16.5672 62.1V46.5C16.5672 45.6 17.4627 44.7 18.3582 44.7C19.5522 44.7 20.1493 45.6 20.1493 46.5C20.1493 47.4 20.1493 55.5 20.1493 55.5C20.1493 55.8 20.4478 55.8 20.4478 55.8C20.7463 55.8 20.7463 55.5 20.7463 55.5C20.7463 55.2 20.7463 48 20.7463 48L25.5224 51.3C26.1194 51.9 26.7164 52.5 26.7164 53.4C27.0149 53.4 27.0149 57 27.0149 60.6ZM32.6866 34.5L30.597 35.1C30.597 35.1 30.597 39.3 30.597 40.5C30.597 42.9 31.194 43.5 31.194 43.5L28.209 44.1C28.209 44.1 27.9104 43.5 27.9104 41.1V35.7L26.4179 36V33.9L27.9104 33.6V31.2L30.8955 30.6V33L32.9851 32.4V34.5H32.6866ZM41.3433 36L35.9701 37.5C35.9701 39.3 36.2687 40.2 37.4627 39.9C38.3582 39.6 38.6567 39 38.6567 38.4V38.1L41.3433 37.5C41.3433 37.5 41.3433 37.8 41.3433 38.1C41.3433 39 41.0448 41.7 37.4627 42.6C33.8806 42.9 32.9851 40.8 32.9851 37.8C32.9851 36 33.2836 34.5 33.8806 33.6C34.4776 32.4 35.6716 31.5 37.1642 31.2C40.4478 30.6 41.3433 32.4 41.3433 34.8C41.3433 35.7 41.3433 36 41.3433 36ZM48.209 31.2C48.209 31.2 47.6119 31.2 46.7164 31.5C45.8209 31.8 45.2239 32.7 45.2239 34.2V39.9L42.2388 40.5V30L44.9254 29.4V30.9C44.9254 30.9 45.5224 29.1 47.3134 28.8C47.9104 28.8 48.209 28.8 48.209 28.8V31.2ZM54.7761 37.8C54.7761 37.8 54.4776 37.2 54.4776 36.9C54.4776 36.9 53.8806 38.4 51.791 38.7C49.7015 39.3 48.5075 37.8 48.5075 36C48.5075 33.6 50 32.7 52.0896 31.8C53.8806 30.9 54.1791 30.6 54.1791 30C54.1791 29.4 53.8806 28.8 52.9851 29.1C52.0896 29.4 51.791 30 51.791 30.6C51.791 30.9 51.791 31.2 51.791 31.2L49.1045 31.8C49.1045 31.8 49.1045 30.9 49.403 30.3C49.7015 28.8 51.194 27.9 53.2836 27.3C56.2687 26.7 57.1642 27.9 57.1642 30V34.5C57.1642 36.9 57.4627 37.2 57.4627 37.2L54.7761 37.8ZM62.8358 36C59.2537 36.9 58.6567 34.8 58.3582 31.5C58.3582 28.2 58.9552 25.8 62.5373 24.9C64.9254 24.3 65.5224 24.9 66.1194 25.5C66.7164 26.1 66.7164 27 66.7164 27.9V28.2L64.0299 28.8V28.5C64.0299 27.3 63.7313 26.7 62.8358 27C61.6418 27.3 61.3433 28.2 61.3433 30.3C61.3433 30.9 61.3433 31.2 61.3433 31.2C61.3433 33.3 61.6418 34.2 62.8358 33.9C64.0299 33.6 64.0299 32.7 64.0299 31.8V31.2L66.7164 30.6V30.9C66.7164 33.9 65.2239 35.4 62.8358 36ZM64.9254 23.7C64.0299 23.7 63.1343 22.8 63.1343 21.9C63.1343 21 64.0299 20.1 64.9254 20.1C65.8209 20.1 66.7164 21 66.7164 21.9C66.7164 23.1 65.8209 23.7 64.9254 23.7Z" fill="white"/>
</svg>
