<svg width="140" height="80" viewBox="0 0 140 80" fill="none" xmlns="http://www.w3.org/2000/svg">
<g clip-path="url(#clip0_2062_48036)">
<mask id="mask0_2062_48036" style="mask-type:luminance" maskUnits="userSpaceOnUse" x="0" y="0" width="140" height="81">
<path d="M140 0.5H0V80.5H140V0.5Z" fill="white"/>
</mask>
<g mask="url(#mask0_2062_48036)">
<path d="M24.1269 24C10.7804 24 0 30.3012 0 38.1184C0 41.4271 1.95766 44.4591 5.29098 46.911C3.70967 45.07 2.81282 42.7424 2.75131 40.3198C2.75131 32.239 13.3333 25.6742 26.3226 25.6742C34.6956 25.6346 42.0633 28.337 46.2961 32.4631C42.4998 27.4802 33.9813 24 24.1269 24Z" fill="white"/>
<path d="M21.9971 42.0999C22.8321 42.1472 23.6608 41.9303 24.3648 41.4803C24.7002 41.2737 24.974 40.9813 25.1578 40.6336C25.3415 40.2859 25.4285 39.8955 25.4097 39.503C25.3944 37.8806 24.8305 36.3108 23.8092 35.0473C22.7834 33.6748 21.4154 32.5932 19.841 31.9099C18.6219 31.4229 17.3183 31.181 16.005 31.198C14.6923 31.1489 13.3837 31.3733 12.1629 31.8567C10.9421 32.3402 9.83596 33.0722 8.91512 34.0059C8.02934 34.875 7.32991 35.9144 6.85925 37.061C6.38859 38.2076 6.15649 39.4375 6.17704 40.6762C6.1569 41.9152 6.40257 43.1442 6.89759 44.2809C7.39261 45.4176 8.12556 46.4358 9.04739 47.2674C10.9973 49.05 13.5723 49.9969 16.2167 49.9039C17.7135 49.9112 19.203 49.6935 20.6346 49.2579C22.0485 48.9185 23.3259 48.1602 24.2986 47.0828C24.6903 46.6504 24.9193 46.096 24.9468 45.5141C24.9468 44.1959 24.1796 43.4709 22.6452 43.4709C21.73 43.6416 20.8408 43.9296 19.9997 44.3277C18.8811 44.8439 17.6728 45.1393 16.4415 45.1978C15.3894 45.2311 14.3518 44.9462 13.4654 44.3804C13.0666 44.1228 12.7327 43.7772 12.4895 43.3703C12.2464 42.9634 12.1005 42.5061 12.0633 42.034L21.9971 42.0999ZM13.386 36.3919C14.1352 35.7975 15.0748 35.4932 16.0315 35.535C16.9392 35.527 17.8203 35.8399 18.5182 36.4183C18.8604 36.6894 19.1419 37.0288 19.3446 37.4147C19.5474 37.8007 19.6669 38.2246 19.6955 38.6593H12.0633C12.2253 37.7729 12.6932 36.9708 13.386 36.3919Z" fill="#C4C4C4"/>
<path d="M28.6385 47.2409C29.5664 48.1545 30.6744 48.8665 31.8925 49.3316C33.1106 49.7968 34.4122 50.005 35.7152 49.9433C37.2142 49.9894 38.7061 49.7199 40.0935 49.1523C41.7204 48.4273 42.5273 47.5177 42.5273 46.5158C42.5406 45.9191 42.3172 45.3412 41.9056 44.9076C41.6962 44.6853 41.4415 44.5103 41.1586 44.3944C40.8757 44.2784 40.5711 44.2242 40.2654 44.2353C39.6735 44.2666 39.0917 44.4005 38.5459 44.6308C37.82 44.8885 37.0545 45.0179 36.284 45.013C35.6818 45.0433 35.0804 44.9408 34.5226 44.713C33.9647 44.4851 33.4641 44.1375 33.0565 43.6948C32.3497 42.8107 31.9921 41.6994 32.0512 40.5706C32.0066 39.4622 32.3477 38.3724 33.0168 37.4859C33.3861 37.0421 33.8553 36.6914 34.3863 36.4624C34.9172 36.2333 35.4949 36.1323 36.0723 36.1676C36.8488 36.1396 37.6239 36.2513 38.3607 36.4972C38.9251 36.7291 39.5239 36.8672 40.1332 36.9059C40.4494 36.9161 40.7646 36.863 41.0599 36.7498C41.3553 36.6366 41.6248 36.4655 41.8527 36.2467C42.074 36.0473 42.2499 35.8029 42.3686 35.53C42.4872 35.2572 42.5459 34.9622 42.5405 34.6649C42.5405 33.4389 41.7469 32.5293 40.1728 31.9229C38.8461 31.4669 37.449 31.2482 36.0459 31.277C34.7224 31.2139 33.3996 31.4145 32.155 31.8672C30.9103 32.3199 29.7688 33.0156 28.7972 33.9135C27.8939 34.7827 27.1844 35.8317 26.7149 36.9923C26.2455 38.153 26.0265 39.3991 26.0724 40.6497C26.0334 41.865 26.2419 43.0755 26.6852 44.2083C27.1285 45.3411 27.7975 46.3727 28.6517 47.2409H28.6385Z" fill="#C4C4C4"/>
<path d="M45.3556 47.269C46.2954 48.1893 47.4133 48.9094 48.6413 49.3853C49.8693 49.8612 51.1816 50.0831 52.4984 50.0373C53.8123 50.0883 55.123 49.8727 56.3508 49.4036C57.5787 48.9345 58.6981 48.2218 59.6412 47.3086C60.514 46.4344 61.1988 45.392 61.6537 44.2451C62.1086 43.0982 62.3239 41.871 62.2867 40.6383C62.3281 39.3972 62.1148 38.1608 61.6599 37.0048C61.205 35.8487 60.5181 34.7974 59.6412 33.9153C58.7014 33.0146 57.586 32.3159 56.3642 31.8624C55.1423 31.4089 53.8401 31.2103 52.5381 31.2788C51.2336 31.231 49.9328 31.447 48.7144 31.9137C47.4959 32.3804 46.3848 33.0882 45.4482 33.9943C44.5543 34.8658 43.8499 35.9111 43.3789 37.0655C42.9078 38.2198 42.6802 39.4584 42.7101 40.7042C42.6783 41.9244 42.8964 43.1382 43.3513 44.2715C43.8062 45.4048 44.4881 46.4337 45.3556 47.2954V47.269ZM49.5619 37.58C49.9097 37.1386 50.3535 36.7818 50.8599 36.5364C51.3663 36.291 51.9221 36.1635 52.4852 36.1635C53.0482 36.1635 53.604 36.291 54.1104 36.5364C54.6168 36.7818 55.0606 37.1386 55.4084 37.58C56.0432 38.4466 56.3691 39.4999 56.3343 40.5724C56.3776 41.6481 56.0663 42.7083 55.4481 43.5911C55.124 44.0698 54.6835 44.4587 54.1676 44.7215C53.6518 44.9843 53.0774 45.1125 52.4984 45.0939C51.9314 45.1166 51.3677 44.9969 50.8592 44.7459C50.3508 44.4948 49.9137 44.1204 49.5883 43.6571C48.9516 42.7814 48.6258 41.7191 48.6624 40.6383C48.6231 39.557 48.9389 38.4925 49.5619 37.6063V37.58Z" fill="#C4C4C4"/>
<path d="M70.4488 30.7634H73.0943C75.8192 30.7634 77.1816 31.7917 77.1816 33.8481C77.1816 35.9441 75.8588 36.9987 73.0943 36.9987H70.4488V30.7634ZM70.4488 45.9628V41.9158H74.4171C76.8398 42.0681 79.2334 41.3215 81.1366 39.8198C81.9632 39.0731 82.6119 38.1517 83.0353 37.1231C83.4587 36.0945 83.646 34.9846 83.5837 33.8745C83.6493 32.7356 83.4438 31.5975 82.9841 30.5528C82.5243 29.5081 81.8233 28.5866 80.9382 27.8633C78.9525 26.3968 76.5143 25.6693 74.0467 25.8069H68.6102C67.4692 25.6883 66.3235 25.9831 65.3827 26.6373C65.0418 27.0443 64.7866 27.5155 64.632 28.0227C64.4775 28.53 64.4269 29.0631 64.4832 29.5902V45.9496C64.4832 48.4938 65.4753 49.7725 67.4594 49.7725C69.4435 49.7725 70.4488 48.4542 70.4488 45.9628Z" fill="white"/>
<path d="M90.8329 37.6834C91.1602 37.2527 91.5877 36.9077 92.0785 36.678C92.5693 36.4484 93.1087 36.341 93.6503 36.3652C94.1928 36.3353 94.7342 36.44 95.2259 36.6701C95.7177 36.9002 96.1444 37.2484 96.4678 37.6834C97.0648 38.5255 97.367 39.5401 97.3276 40.5704C97.3669 41.613 97.0652 42.6401 96.4678 43.4969C96.1444 43.9319 95.7177 44.2801 95.2259 44.5102C94.7342 44.7403 94.1928 44.8451 93.6503 44.8151C93.1026 44.8424 92.5564 44.7367 92.0587 44.5071C91.561 44.2774 91.1267 43.9308 90.7932 43.4969C90.1952 42.641 89.8976 41.6122 89.9467 40.5704C89.9182 39.5313 90.2447 38.5134 90.8726 37.6834H90.8329ZM100.343 49.7717C102.261 49.7717 103.214 48.4535 103.214 45.9356V35.3897C103.214 32.8455 102.261 31.58 100.343 31.58C99.7753 31.5753 99.2168 31.7266 98.7291 32.0172C98.2415 32.3079 97.8435 32.7267 97.5789 33.2278C96.9831 32.5957 96.2576 32.099 95.4519 31.7715C94.6461 31.4439 93.779 31.2932 92.9096 31.3295C91.6576 31.2924 90.4133 31.5361 89.2686 32.0426C88.1238 32.5492 87.1079 33.3056 86.2959 34.256C84.6977 36.007 83.8235 38.2958 83.8488 40.6627C83.8124 42.9926 84.6469 45.2528 86.1901 47.0034C86.9758 47.9437 87.9643 48.6952 89.0819 49.2019C90.1996 49.7086 91.4175 49.9574 92.6451 49.9299C93.5542 49.9757 94.4623 49.8224 95.3056 49.4807C96.1489 49.1391 96.9068 48.6175 97.526 47.9525C97.739 48.5071 98.1192 48.9823 98.6142 49.3128C99.1092 49.6433 99.6949 49.8128 100.291 49.7981L100.343 49.7717Z" fill="white"/>
<path d="M116.664 33.6219L113.119 42.006L109.812 34.0965C109.588 33.4512 109.262 32.8458 108.846 32.3037C108.586 32.0528 108.277 31.8577 107.938 31.7308C107.599 31.6038 107.237 31.5475 106.875 31.5655C106.127 31.5423 105.397 31.8066 104.838 32.3037C104.58 32.5394 104.375 32.8269 104.236 33.1472C104.097 33.4675 104.027 33.8134 104.031 34.1624C104.038 34.6594 104.151 35.1492 104.362 35.5993L110.209 47.9776L107.814 52.6969C107.525 53.2474 107.362 53.8554 107.338 54.4765C107.324 54.8218 107.387 55.1659 107.525 55.4832C107.662 55.8005 107.87 56.0828 108.132 56.3089C108.713 56.7895 109.455 57.0342 110.209 56.9944C111.24 56.9944 112.087 56.2825 112.762 54.8852L121.69 35.8629C121.971 35.2956 122.128 34.6758 122.153 34.0438C122.153 32.3696 121.201 31.5391 119.283 31.5391C118.185 31.5391 117.338 32.2246 116.73 33.6219H116.664Z" fill="white"/>
<path d="M136.351 44.6443H130.623L138.322 35.667C138.963 35.0514 139.377 34.2389 139.499 33.3601C139.531 33.0696 139.459 32.7771 139.294 32.5354C139.129 32.2937 138.882 32.1187 138.6 32.0419C137.695 31.823 136.765 31.7299 135.835 31.7651H126.576C124.102 31.7651 122.872 32.556 122.872 34.1379C122.872 35.7198 124.089 36.5503 126.536 36.5503H131.523L123.586 45.8702C123.062 46.415 122.756 47.1326 122.727 47.8871C122.727 48.9813 123.745 49.5218 125.769 49.5218H136.351C138.785 49.5218 140.002 48.7176 140.002 47.1094C140.002 45.4616 138.798 44.6443 136.391 44.6443H136.351Z" fill="white"/>
</g>
</g>
<defs>
<clipPath id="clip0_2062_48036">
<rect width="140" height="80" fill="white"/>
</clipPath>
</defs>
</svg>
