<svg width="200" height="80" viewBox="0 0 200 80" fill="none" xmlns="http://www.w3.org/2000/svg">
<g clip-path="url(#clip0_2054_9823)">
<path d="M180.633 25.0041C182.443 24.9959 184.254 25.0025 186.062 25.0025C186.066 30.6147 186.058 36.2269 186.067 41.8391C188.487 38.7199 190.878 35.5747 193.28 32.4425C195.638 32.4343 197.993 32.4392 200.351 32.4392C197.202 36.1568 194.041 39.8645 190.887 43.5788C194.065 47.2687 197.25 50.9487 200.428 54.6369C198.065 54.6337 195.703 54.6516 193.342 54.6271C190.927 51.477 188.503 48.3318 186.067 45.1979C186.058 48.3448 186.067 51.4917 186.062 54.6385C184.252 54.6369 182.443 54.6418 180.633 54.6353C180.633 44.7577 180.633 34.8817 180.633 25.0041Z" fill="white"/>
<path d="M12.0267 26.6729C13.853 26.6729 15.6778 26.6697 17.5041 26.6746C17.5089 33.0727 17.5025 39.4708 17.5073 45.8673C17.5185 47.0119 17.4355 48.1826 17.1357 49.2897C16.7273 50.8321 15.8628 52.2328 14.6155 53.2078C13.3219 54.2366 11.7651 54.7356 10.1461 54.8807C8.58133 55.0062 7.01498 54.8823 5.52998 54.3328C3.82486 53.6969 2.33188 52.4724 1.46576 50.8289C0.685776 49.3631 0.425781 47.7586 0.425781 46.1053C2.23458 46.1069 4.04338 46.1053 5.85218 46.1069C5.90163 47.3543 6.17279 48.7272 7.27338 49.4544C8.28784 50.0952 9.8829 50.0886 10.8511 49.35C11.7412 48.6326 12.0171 47.4684 12.0235 46.3597C12.0283 39.8001 12.0219 33.2325 12.0267 26.6729Z" fill="white"/>
<path d="M45.9234 26.9478C47.7497 26.9445 49.5745 26.9445 51.3992 26.9478C51.3976 28.7756 51.4008 30.6034 51.3976 32.4312C53.0022 32.4393 54.6053 32.4312 56.2099 32.436C56.2099 33.9703 56.2099 35.5047 56.2099 37.0406C54.6069 37.0439 53.0038 37.039 51.4024 37.0422C51.396 40.5788 51.4024 44.117 51.3976 47.6536C51.4008 48.2634 51.463 49.0069 51.9304 49.4455C52.3531 49.8009 53.0022 49.8873 53.5302 49.902C54.4234 49.9151 55.3167 49.9004 56.2083 49.9069C56.2115 51.482 56.2099 53.0587 56.2099 54.6338C54.5782 54.5995 52.9209 54.7218 51.2971 54.5457C49.7722 54.3484 48.3159 53.7843 47.3095 52.5451C46.244 51.2325 45.9377 49.4781 45.9265 47.8166C45.9202 44.2246 45.9281 40.6342 45.9218 37.0422C45.0684 37.039 44.2166 37.0439 43.3633 37.039C43.3633 35.5063 43.3633 33.972 43.3633 32.4377C44.2166 32.4311 45.0716 32.4393 45.925 32.4312C45.9234 30.6034 45.9249 28.7756 45.9234 26.9478Z" fill="white"/>
<path d="M97.1322 32.5921C99.1595 33.2786 100.866 34.8585 101.747 36.8461C102.412 38.3429 102.643 39.9865 102.635 41.6202C102.637 45.959 102.637 50.2962 102.635 54.6349C100.823 54.6333 99.0127 54.6382 97.2023 54.6317C97.2007 50.5114 97.2023 46.3895 97.2007 42.2692C97.1928 40.7789 96.8642 39.2788 95.8003 38.1945C94.7252 37.0613 93.1333 36.7401 91.6467 36.9358C90.4457 37.0711 89.3195 37.6662 88.5922 38.6625C87.8298 39.7093 87.6033 40.9941 87.5857 42.2724C87.5809 46.3911 87.5857 50.513 87.5841 54.6333C85.7721 54.6349 83.9601 54.6349 82.1497 54.6333C82.1513 47.2341 82.145 39.8332 82.1513 32.434C83.9617 32.4356 85.7737 32.4323 87.5841 32.4356C87.5841 33.3536 87.5857 34.2699 87.5825 35.1879C87.9685 34.7085 88.3801 34.2585 88.8618 33.8786C91.1985 32.0149 94.3536 31.6904 97.1322 32.5921Z" fill="white"/>
<path d="M167.097 32.1824C168.37 32.0243 169.721 32.1237 170.957 32.4727C173.013 33.0596 174.79 34.5499 175.763 36.4886C176.525 37.9903 176.822 39.7741 176.819 41.4535C176.817 45.8461 176.82 50.2387 176.817 54.6312C175.008 54.6296 173.199 54.6345 171.391 54.628C171.387 50.5093 171.392 46.3874 171.389 42.2687C171.375 40.7768 171.051 39.267 169.977 38.1827C168.898 37.0511 167.306 36.7364 165.817 36.9337C164.62 37.0723 163.497 37.6707 162.772 38.667C162.023 39.6925 161.782 41.0133 161.772 42.2687C161.769 46.389 161.771 50.5093 161.771 54.6296C159.959 54.6329 158.147 54.6296 156.333 54.6312C156.332 47.232 156.332 39.8311 156.333 32.4319C158.145 32.4286 159.957 32.4319 161.768 32.4303C161.774 33.345 161.769 34.2581 161.771 35.1728C163.071 33.4917 165.028 32.4417 167.097 32.1824Z" fill="white"/>
<path fill-rule="evenodd" clip-rule="evenodd" d="M41.0084 37.145C40.1295 35.5242 38.7976 34.2133 37.1914 33.3589C34.8482 32.0741 31.9995 31.8214 29.4123 32.3105C26.8745 32.7964 24.5457 34.228 23.0767 36.4194C21.4465 38.8195 20.9377 41.6843 21.11 44.5638C21.2663 47.2313 22.1771 49.8042 23.9954 51.7592C25.6639 53.6033 27.9703 54.6517 30.3948 54.924C32.454 55.1164 34.4846 54.9648 36.4002 54.1234C39.0752 52.9446 41.0977 50.5184 41.9287 47.6764C39.9732 47.6634 38.016 47.6682 36.0605 47.6748C35.6186 48.5748 34.995 49.3493 34.1081 49.8173C33.1415 50.339 31.942 50.4401 30.8749 50.2885C29.3708 50.0798 28.0006 49.1161 27.2813 47.7481C26.8618 46.9688 26.6767 46.1176 26.5874 45.2388C29.5814 45.2351 32.5755 45.2356 35.5695 45.2361C37.8153 45.2365 40.061 45.2369 42.3067 45.2355C42.7039 42.4865 42.3961 39.576 41.0084 37.145ZM36.8414 41.4514C36.7951 40.3394 36.4968 39.278 35.7472 38.4465C33.9192 36.322 30.3208 36.0611 28.2775 37.9965C27.2917 38.9063 26.8244 40.1356 26.625 41.4514C30.0305 41.4547 33.4359 41.4547 36.8414 41.4514Z" fill="white"/>
<path fill-rule="evenodd" clip-rule="evenodd" d="M71.8421 32.5566C70.0221 32.0202 68.0713 31.9436 66.2099 32.2827C63.5063 32.7882 60.9478 34.3469 59.3719 36.6704C57.9331 38.7379 57.3605 41.2326 57.4004 43.7452C57.4243 46.3051 58.091 48.8177 59.6367 50.8623C61.211 52.9901 63.5653 54.3826 66.1317 54.8196C68.5483 55.2109 71.1498 54.9875 73.3797 53.9065C75.364 52.9689 77.0133 51.3808 78.0788 49.4324C79.4378 47.0257 79.752 44.1838 79.374 41.4625C79.0773 39.3966 78.2159 37.4302 76.8936 35.8372C75.5905 34.2638 73.7641 33.1436 71.8421 32.5566ZM70.1161 37.2498C69.0665 36.9041 67.9101 36.8895 66.8478 37.1878C65.3245 37.6297 64.0246 38.8444 63.4471 40.3509C63.0276 41.4156 62.8968 42.6124 62.9112 43.7504C62.9383 45.0255 63.1521 46.3478 63.7614 47.4744C64.4712 48.8065 65.7887 49.7603 67.2482 50.0212C68.6008 50.2853 70.0539 50.0245 71.231 49.2924C72.3189 48.6092 73.1132 47.5021 73.5263 46.2793C73.9219 45.0874 73.9825 43.8548 73.8916 42.6075C73.7895 41.4172 73.4689 40.2254 72.7639 39.2553C72.094 38.3455 71.18 37.6036 70.1161 37.2498Z" fill="white"/>
<path fill-rule="evenodd" clip-rule="evenodd" d="M111.879 25.0019C110.068 25.0003 108.256 24.9986 106.446 25.0019C106.445 31.587 106.445 38.1729 106.446 44.7585C106.446 48.0512 106.446 51.3439 106.446 54.6363C108.256 54.6396 110.067 54.638 111.877 54.6363C111.879 53.5912 111.879 52.5444 111.877 51.4976C113.074 53.1265 114.758 54.3412 116.723 54.7619C118.962 55.2364 121.397 55.0309 123.419 53.8814C125.148 52.9292 126.523 51.4324 127.415 49.6502C128.702 47.1474 128.989 44.325 128.691 41.5434C128.44 39.3503 127.584 37.203 126.217 35.4893C124.804 33.73 122.728 32.5234 120.526 32.194C119.138 31.9837 117.693 32.0473 116.34 32.4321C114.544 32.9473 112.943 34.0968 111.877 35.6638C111.879 33.6326 111.879 31.6019 111.879 29.5712C111.878 28.0482 111.878 26.5252 111.879 25.0019ZM122.129 39.4954C120.901 37.5536 118.479 36.6144 116.291 37.1622C115.002 37.4867 113.836 38.2824 113.069 39.3943C112.326 40.4281 111.981 41.6574 111.898 42.9276C111.812 44.32 112.007 45.8037 112.669 47.0412C113.201 48.0162 113.989 48.9016 114.964 49.4249C116.273 50.1228 117.867 50.2728 119.267 49.782C121.253 49.0972 122.631 47.2972 123.072 45.2379C123.454 43.2634 123.263 41.1862 122.129 39.4954Z" fill="white"/>
<path fill-rule="evenodd" clip-rule="evenodd" d="M146.914 35.5857C145.563 33.7775 143.48 32.4649 141.261 32.178C139.291 31.9073 137.253 32.178 135.473 33.1008C133.353 34.1835 131.766 36.1368 130.888 38.3641C130.006 40.606 129.833 43.1578 130.12 45.54C130.404 47.7949 131.227 49.9505 132.691 51.6804C134.201 53.5017 136.377 54.705 138.704 54.9463C140.073 55.0572 141.422 54.9985 142.733 54.555C144.4 53.9958 145.888 52.8723 146.914 51.4196C146.912 52.4924 146.912 53.5669 146.914 54.6398C147.826 54.639 148.738 54.639 149.65 54.639C150.563 54.639 151.476 54.639 152.388 54.6382V32.4405C150.564 32.4388 148.739 32.4388 146.914 32.4405C146.912 33.4889 146.912 34.5373 146.914 35.5857ZM145.842 39.5498C144.592 37.5819 142.128 36.6036 139.901 37.1645C137.593 37.7091 135.956 39.7912 135.639 42.1472C135.428 43.688 135.562 45.3559 136.219 46.7761C136.854 48.0772 137.921 49.1712 139.263 49.6946C141.214 50.4902 143.606 50.0027 145.094 48.4815C146.058 47.5244 146.638 46.2429 146.819 44.888C147.063 43.0668 146.873 41.1053 145.842 39.5498Z" fill="white"/>
</g>
<defs>
<clipPath id="clip0_2054_9823">
<rect width="200" height="80" fill="white"/>
</clipPath>
</defs>
</svg>
