<svg width="160" height="80" viewBox="0 0 160 80" fill="none" xmlns="http://www.w3.org/2000/svg">
<path d="M41.6133 24.7854V20.3958C41.6133 17.2873 43.5193 15.5 47.037 15.5C48.53 15.5 49.7674 15.9075 50.7308 16.7048C51.6943 17.502 52.1877 18.6866 52.1877 20.2936V20.4878H49.1259V20.2936C49.1259 18.8947 48.1242 18.2537 46.847 18.2537C45.3924 18.2537 44.6651 18.8951 44.6651 20.1775V25.0001C44.6651 26.2812 45.3924 26.9226 46.847 26.924C48.1625 26.924 49.1259 26.341 49.1259 24.8827V24.6886H52.1877V24.8827C52.1877 26.4959 51.6965 27.7007 50.7345 28.4965C49.7724 29.2929 48.5336 29.6812 47.0411 29.6812C43.5198 29.6812 41.6133 27.8948 41.6133 24.7854Z" fill="white"/>
<path fill-rule="evenodd" clip-rule="evenodd" d="M54.5742 29.3893V15.791H60.5465C63.3767 15.791 64.8845 17.3448 64.8845 20.0646C64.8845 21.9103 64.1572 23.2311 62.6837 23.9891L65.2777 28.4041V29.3942H62.3148L59.4468 24.3484H57.6197V29.3942L54.5742 29.3893ZM57.6197 21.8331H60.0364C61.2151 21.8331 61.8047 21.3474 61.8047 20.1039C61.8047 18.8804 61.2151 18.4134 60.0364 18.4134H57.6197V21.8331Z" fill="white"/>
<path d="M71.3742 29.3893V24.0078L66.9531 16.7811V15.791H69.9594L72.9272 21.1912L76.0517 15.791H78.8589V16.7806L74.44 23.8913V29.3888L71.3742 29.3893Z" fill="white"/>
<path fill-rule="evenodd" clip-rule="evenodd" d="M80.6328 29.3893V15.791H86.8033C89.2592 15.791 90.7327 17.4421 90.7327 20.0646C90.7327 22.687 89.2592 24.3194 86.8033 24.3194H83.6783V29.3893H80.6328ZM83.6783 21.6947H86.2304C86.9956 21.6947 87.6452 21.151 87.6452 20.0623C87.6452 18.9732 86.9997 18.4134 86.2327 18.4134H83.681L83.6783 21.6947Z" fill="white"/>
<path d="M95.6086 29.3893V18.4148H91.8164V15.791H102.427V18.4134H98.6541V29.3879L95.6086 29.3893Z" fill="white"/>
<path fill-rule="evenodd" clip-rule="evenodd" d="M115.03 24.7667C115.03 26.3017 114.538 27.5065 113.536 28.3805C112.533 29.2549 111.197 29.6812 109.508 29.6812C107.818 29.6812 106.481 29.2549 105.479 28.3805C104.478 27.5065 103.991 26.3017 103.991 24.7667V20.4346C103.991 17.3266 106.109 15.5 109.508 15.5C112.907 15.5 115.03 17.3266 115.03 20.4346V24.7667ZM111.984 20.2784C111.984 19.1719 111.138 18.2599 109.508 18.2599C107.877 18.2599 107.032 19.1732 107.032 20.2784V24.9028C107.032 26.0103 107.877 26.9213 109.508 26.9213C111.138 26.9213 111.984 26.008 111.984 24.9028V20.2784ZM42.3359 47.7338V34.1356H48.506C50.9623 34.1356 52.4359 35.7867 52.4359 38.4091C52.4359 41.0316 50.9623 42.6639 48.506 42.6639H45.3814V47.7338H42.3359ZM45.3814 40.0388H47.9331C48.6987 40.0388 49.3484 39.4943 49.3484 38.4064C49.3484 37.3191 48.7001 36.7553 47.9331 36.7553H45.3814V40.0388ZM54.578 47.7338V34.1356H60.5503C63.3805 34.1356 64.8883 35.6894 64.8883 38.4091C64.8883 40.2544 64.161 41.5752 62.6875 42.3336L65.2815 46.7482V47.7392H62.3186L59.4506 42.6929H57.6235V47.7387L54.578 47.7338ZM57.6235 40.1768H60.0402C61.2189 40.1768 61.8085 39.6907 61.8085 38.4484C61.8085 37.2057 61.2189 36.758 60.0402 36.758H57.6235V40.1768ZM78.1958 43.1103C78.1958 44.6445 77.7047 45.8492 76.7033 46.7232C75.7015 47.5977 74.3643 48.0253 72.675 48.0253C70.9857 48.0253 69.6489 47.5977 68.6458 46.7232C67.6431 45.8492 67.1533 44.6445 67.1533 43.1108V38.7774C67.1533 35.6693 69.2751 33.8441 72.675 33.8441C76.0754 33.8441 78.1958 35.6693 78.1958 38.7774V43.1103ZM75.1553 38.6225C75.1553 37.5146 74.3111 36.604 72.6804 36.604C71.0498 36.604 70.2037 37.5159 70.2037 38.6225V43.2518C70.2037 44.3579 71.0484 45.2703 72.6804 45.2703C74.312 45.2703 75.1553 44.357 75.1553 43.2518V38.6225Z" fill="white"/>
<path d="M80.4336 43.1257V38.7356C80.4336 35.6276 82.3396 33.8398 85.856 33.8398C87.3503 33.8398 88.5878 34.2474 89.5561 35.0446C90.5245 35.8418 91.0094 37.0252 91.0094 38.6383V38.8365H87.9471V38.6424C87.9471 37.2434 86.9445 36.6024 85.6673 36.6024C84.2145 36.6024 83.4877 37.2434 83.4868 38.525V43.3435C83.4868 44.6251 84.2136 45.2661 85.6673 45.2661C86.9842 45.2661 87.9471 44.6831 87.9471 43.2261V43.032H91.0094V43.2261C91.0094 44.8384 90.5182 46.0427 89.5561 46.8404C88.5941 47.6376 87.3553 48.0246 85.856 48.0246C82.3396 48.0246 80.4336 46.2378 80.4336 43.1257ZM93.4224 47.7336V34.1353H102.481V36.7578H96.4679V39.6717H101.571V42.1781H96.4679V45.1107H102.519V47.7336H93.4224ZM105.634 46.8011C104.593 45.9852 104.081 44.8192 104.081 43.3235H107.128C107.114 43.7679 107.276 44.2 107.58 44.5282C108.208 45.1308 108.955 45.2661 109.839 45.2661C111.156 45.2661 111.844 44.7617 111.844 43.9644C111.846 43.7844 111.795 43.6075 111.697 43.4558C111.599 43.304 111.459 43.184 111.292 43.1105C110.92 42.8958 110.232 42.6244 109.21 42.2941L108.11 41.9245C107.09 41.5951 106.44 41.3041 105.634 40.701C104.848 40.0993 104.415 39.1874 104.415 38.0206C104.415 36.7587 104.868 35.7499 105.791 34.9928C106.713 34.2358 107.972 33.8474 109.564 33.8474C111.116 33.8474 112.37 34.2358 113.336 35.0321C114.302 35.828 114.77 36.9747 114.77 38.491H111.708C111.708 37.247 110.745 36.6065 109.488 36.6065C108.231 36.6065 107.503 37.0716 107.503 37.8679C107.503 38.2955 107.7 38.5084 107.994 38.7419C108.141 38.8678 108.493 38.995 108.714 39.0749L108.76 39.0914L109.761 39.4409L110.782 39.79C113.434 40.7033 114.929 41.7138 114.929 43.8118C114.929 46.3574 113.042 48.0273 109.57 48.0273C107.992 48.0251 106.675 47.6175 105.634 46.8011ZM118.043 46.8011C117.002 45.9852 116.492 44.8192 116.492 43.3235H119.537C119.523 43.7678 119.685 44.2001 119.989 44.5282C120.618 45.1308 121.364 45.2661 122.248 45.2661C123.565 45.2661 124.253 44.7617 124.253 43.9644C124.256 43.7845 124.205 43.6077 124.107 43.4559C124.009 43.3042 123.869 43.1841 123.703 43.1105C123.329 42.8958 122.641 42.6244 121.621 42.2941L120.52 41.9245C119.499 41.5951 118.849 41.3041 118.044 40.701C117.258 40.0993 116.826 39.1874 116.826 38.0206C116.826 36.7587 117.278 35.7499 118.201 34.9928C119.125 34.2358 120.382 33.8474 121.974 33.8474C123.525 33.8474 124.781 34.2358 125.747 35.0321C126.713 35.828 127.181 36.9747 127.181 38.491H124.119C124.119 37.247 123.157 36.6065 121.899 36.6065C120.641 36.6065 119.915 37.0716 119.915 37.8679C119.915 38.2955 120.111 38.5084 120.406 38.7419C120.553 38.8678 120.905 38.995 121.126 39.0749L121.171 39.0914L122.174 39.4409L123.195 39.79C125.848 40.7033 127.341 41.7138 127.341 43.8118C127.341 46.3574 125.455 48.0273 121.982 48.0273C120.401 48.0251 119.084 47.6175 118.043 46.8011ZM129.793 47.7336V34.1353H132.838V47.7336H129.793ZM135.864 47.7336V34.1353H138.655L143.548 42.1165V34.1353H146.594V47.7336H143.803L138.91 39.7498V47.7336H135.864ZM150.582 46.7043C149.679 45.8097 149.226 44.6255 149.226 43.1288V38.7392C149.226 35.6503 151.25 33.8439 154.728 33.8439C156.28 33.8439 157.534 34.2514 158.521 35.0861C159.507 35.9213 159.999 37.0881 159.999 38.5843H156.937C156.937 37.3608 155.994 36.6038 154.56 36.6038C153.047 36.6038 152.28 37.3608 152.28 38.6044V43.1253C152.28 44.3693 153.105 45.2625 154.521 45.2625C155.012 45.2724 155.499 45.1625 155.938 44.9425C156.376 44.7225 156.753 44.3992 157.035 44.001V42.7958H154.677V40.2935H159.999V47.7358H158.369L157.74 46.5315C157.052 47.4448 155.735 48.0273 154.32 48.0273C152.743 48.0251 151.506 47.5783 150.582 46.7043Z" fill="white"/>
<path fill-rule="evenodd" clip-rule="evenodd" d="M41.6133 63.6755V55.6631H43.1076V58.1378C43.5515 57.7618 44.1215 57.5632 44.7057 57.5811C45.9472 57.5811 46.8443 58.3382 46.8443 59.7639V61.6266C46.8443 63.0483 45.9509 63.8089 44.7057 63.8089C44.3731 63.811 44.0433 63.7479 43.7354 63.6232C43.4276 63.4986 43.1477 63.3149 42.9121 63.0827L42.476 63.6728L41.6133 63.6755ZM43.1076 61.8462C43.5333 62.2663 43.9581 62.4769 44.396 62.4769C44.5231 62.4798 44.6493 62.457 44.7671 62.4099C44.8849 62.3628 44.9917 62.2923 45.081 62.2029C45.1702 62.1135 45.24 62.007 45.2861 61.8899C45.3322 61.7729 45.3536 61.6477 45.3491 61.5222V59.8822C45.3556 59.693 45.3033 59.5065 45.1992 59.3477C45.095 59.1889 44.944 59.0656 44.7667 58.9944C44.649 58.9474 44.5229 58.9246 44.396 58.9274C43.9581 58.9274 43.5338 59.1318 43.1071 59.5519L43.1076 61.8462Z" fill="white"/>
<path d="M49.0364 65.494V64.9592L49.6003 63.675L47.5312 58.4123V57.7195H48.91L50.3367 61.6695L51.6815 57.7258H53.0377V58.4186L50.2562 65.5002L49.0364 65.494ZM56.2339 60.9816V58.4123C56.2339 56.5947 57.3603 55.5488 59.3955 55.5488C60.2564 55.5488 60.9697 55.7872 61.5322 56.2528C62.0952 56.7183 62.3833 57.412 62.3833 58.3328V58.4462H60.7516V58.3328C60.7516 57.4575 60.1137 57.0259 59.2907 57.0259C58.3377 57.0259 57.8656 57.4914 57.8656 58.2989V61.0954C57.8656 61.9025 58.3377 62.368 59.2907 62.368C60.1187 62.368 60.7516 61.9596 60.7516 61.0611V60.9477H62.3833V61.0611C62.3833 61.9819 62.0961 62.6859 61.5322 63.1528C60.9683 63.6197 60.2564 63.8451 59.3955 63.8451C57.3603 63.8451 56.2339 62.8046 56.2339 60.9816Z" fill="white"/>
<path fill-rule="evenodd" clip-rule="evenodd" d="M63.4453 61.6047V59.7871C63.4453 58.4792 64.3767 57.582 66.066 57.582C67.7332 57.582 68.6763 58.4792 68.6763 59.7871V61.6047C68.6763 62.9117 67.7332 63.8098 66.066 63.8098C64.3767 63.8125 63.4453 62.9117 63.4453 61.6047ZM67.1811 61.5418V59.8554C67.1811 59.309 66.7906 58.9229 66.066 58.9229C65.3414 58.9229 64.9392 59.3202 64.9392 59.8554V61.5418C64.9392 62.0765 65.331 62.4738 66.066 62.4738C66.801 62.4738 67.1811 62.0828 67.1811 61.5418Z" fill="white"/>
<path d="M69.9648 63.6737V57.7183H71.4578V63.6737H69.9648ZM73.0117 63.6737V57.7183H73.874L74.3105 58.3088C74.5435 58.075 74.8217 57.8903 75.1286 57.7654C75.4354 57.6406 75.7647 57.5781 76.0965 57.5821C77.3953 57.5821 78.189 58.445 78.189 59.8895V63.6737H76.6883V59.98C76.6883 59.2863 76.306 58.923 75.7583 58.923C75.2979 58.923 74.8843 59.1275 74.5042 59.5475V63.6737H73.0117ZM80.1158 63.2197C79.8756 63.0281 79.6819 62.7855 79.5492 62.51C79.4169 62.2343 79.3488 61.9327 79.3501 61.6275H80.8327C80.89 62.1623 81.4182 62.4689 82.2363 62.4689C82.7771 62.4689 83.1216 62.2762 83.1216 61.9646C83.1216 61.7477 82.9839 61.611 82.7198 61.5543L81.0521 61.1343C80.0061 60.8732 79.4779 60.3157 79.4779 59.4859C79.4779 58.3039 80.3979 57.5771 81.9261 57.5771C83.4778 57.5771 84.4204 58.315 84.4664 59.6215H82.9672C82.9329 59.1564 82.541 58.9181 81.806 58.9181C81.1966 58.9181 80.9207 59.1225 80.9207 59.3948C80.9207 59.5881 81.0932 59.7368 81.4376 59.8162L83.1509 60.2362C84.0935 60.4634 84.5644 60.9932 84.5644 61.8498C84.5644 63.0671 83.5757 63.805 82.0476 63.805C81.2539 63.8126 80.611 63.617 80.1158 63.2197Z" fill="white"/>
<path fill-rule="evenodd" clip-rule="evenodd" d="M85.9727 63.6739V55.7178H89.5694C91.0059 55.7178 91.8799 56.6842 91.8799 58.2295C91.8799 59.7748 91.0059 60.7296 89.5694 60.7296H87.606V63.6739H85.9727ZM87.606 59.3204H89.2719C89.8132 59.3204 90.2263 58.9424 90.2263 58.2179C90.2263 57.4939 89.8132 57.127 89.2719 57.127H87.606V59.3204ZM92.9734 63.3445C92.591 63.0383 92.3996 62.5879 92.3996 62.0379C92.3996 60.7988 93.2275 60.1052 94.8361 60.1052H96.0762V59.7266C96.0762 59.1919 95.7548 58.9196 95.1105 58.9196C94.4663 58.9196 94.1449 59.1919 94.1449 59.6008H92.6867C92.6867 58.3732 93.5146 57.5823 95.1105 57.5823C96.7064 57.5823 97.5714 58.3884 97.5714 59.6271V63.6739H96.7141L96.2766 63.095C95.7767 63.5669 95.1087 63.8248 94.4176 63.8127C93.896 63.8257 93.3859 63.6603 92.9734 63.3445ZM96.0762 61.8902V61.2305H94.8351C94.1345 61.2305 93.8921 61.5255 93.8921 61.8447C93.8921 62.2647 94.1688 62.4754 94.7318 62.4754C94.9855 62.4808 95.2373 62.4312 95.4696 62.3301C95.7018 62.229 95.9089 62.0788 96.0762 61.8902Z" fill="white"/>
<path d="M99.0703 63.6741V57.7188H100.564V63.6741H99.0703Z" fill="white"/>
<path fill-rule="evenodd" clip-rule="evenodd" d="M107.18 55.6621V63.6749H106.313L105.876 63.0844C105.641 63.3173 105.361 63.5018 105.053 63.627C104.745 63.7522 104.415 63.8157 104.082 63.8137C102.843 63.8137 101.949 63.0567 101.949 61.6288V59.7656C101.949 58.3439 102.843 57.5833 104.088 57.5833C104.67 57.5656 105.238 57.7629 105.681 58.1368V55.6621H107.18ZM105.686 59.5487C105.26 59.1286 104.835 58.9242 104.397 58.9242C104.27 58.9212 104.144 58.9441 104.026 58.9913C103.908 59.0385 103.802 59.1091 103.713 59.1987C103.624 59.2882 103.554 59.3946 103.508 59.5116C103.462 59.6285 103.44 59.7535 103.444 59.879V61.5189C103.44 61.6445 103.461 61.7696 103.508 61.8866C103.554 62.0037 103.624 62.1101 103.713 62.1996C103.802 62.289 103.909 62.3595 104.026 62.4067C104.144 62.4539 104.27 62.4769 104.397 62.4742C104.835 62.4742 105.26 62.2697 105.686 61.8435V59.5487Z" fill="white"/>
<path d="M18.9102 26.2164C20.3444 24.7983 22.2854 23.9953 24.3136 23.981C25.4239 23.9772 26.5317 24.086 27.6196 24.3055V16.1614C26.5422 16.0181 25.4563 15.9463 24.3692 15.9463H24.2744C20.9405 15.9603 17.6451 16.6503 14.5917 17.9736C11.5382 19.2969 8.79179 21.2253 6.52208 23.6397C4.25237 26.0542 2.50764 28.9032 1.39576 32.0108C0.283879 35.1184 -0.171529 38.4184 0.0576919 41.7069C0.286912 44.9955 1.19589 48.2025 2.72843 51.1299C4.26097 54.0573 6.3845 56.6428 8.96774 58.7265C11.551 60.8102 14.539 62.3479 17.7472 63.2445C20.9553 64.1411 24.3154 64.3776 27.6196 63.9393V55.7952C24.946 56.3347 22.1781 56.2 19.571 55.4034C16.9639 54.6068 14.6016 53.174 12.702 51.2371C10.8024 49.3003 9.42653 46.9217 8.70134 44.3207C7.97615 41.7197 7.92495 38.9801 8.55247 36.3544C8.60439 36.1754 8.7344 36.033 8.91318 36.033C9.09602 36.0491 9.20572 36.1455 9.25403 36.3544C10.026 38.7461 11.367 40.9197 13.1645 42.6929C16.1362 45.631 20.1666 47.2816 24.3692 47.2816C25.6693 47.2659 26.6445 47.1914 27.6196 47.0664V38.9219C26.6309 39.1214 25.6233 39.2299 24.6102 39.2451C24.5299 39.2433 24.4495 39.2406 24.3692 39.2362V39.2469C22.8423 39.247 21.3496 38.7993 20.08 37.9606C18.8104 37.1219 17.8209 35.9298 17.2365 34.535C16.6522 33.1402 16.4993 31.6054 16.7972 30.1247C17.0951 28.644 17.8304 27.2839 18.9102 26.2164Z" fill="white"/>
</svg>
