<svg width="80" height="81" viewBox="0 0 80 81" fill="none" xmlns="http://www.w3.org/2000/svg">
<g clip-path="url(#clip0_1832_49297)">
<path fill-rule="evenodd" clip-rule="evenodd" d="M40 0.0903931C62.1333 0.0903931 80 17.9571 80 40.0904C80 62.2237 62.1333 80.0904 40 80.0904C17.8667 80.0904 0 62.2237 0 40.0904C0 17.9571 17.8667 0.0903931 40 0.0903931ZM40 3.82373C60 3.82373 76.2667 20.0904 76.2667 40.0904C76.2667 60.0904 60 76.3571 40 76.3571C20 76.3571 3.73333 60.0904 3.73333 40.0904C3.73333 20.0904 20 3.82373 40 3.82373ZM40 7.55706C58 7.55706 72.5333 22.0904 72.5333 40.0904C72.5333 58.0904 58 72.6237 40 72.6237C22 72.6237 7.46667 58.0904 7.46667 40.0904C7.46667 22.0904 22 7.55706 40 7.55706ZM24.6667 52.8904H19.8667V34.7571C18.1333 36.4904 16.1333 37.6904 13.7333 38.4904V34.0904C15.0667 33.6904 16.4 32.8904 17.8667 31.8237C19.3333 30.6237 20.2667 29.2904 20.8 27.8237H24.6667V52.8904ZM36 39.4237C34.8 38.8904 33.8667 38.0904 33.3333 37.2904C32.6667 36.3571 32.4 35.2904 32.4 34.2237C32.4 32.3571 33.0667 30.8904 34.4 29.5571C35.7333 28.3571 37.4667 27.8237 39.8667 27.8237C42.2667 27.8237 44.1333 28.3571 45.4667 29.5571C46.8 30.8904 47.3333 32.3571 47.3333 34.2237C47.3333 35.4237 47.0667 36.3571 46.5333 37.2904C45.8667 38.2237 45.0667 38.8904 44 39.4237C45.3333 39.9571 46.4 40.7571 47.0667 41.8237C47.8667 42.8904 48.1333 44.0904 48.1333 45.5571C48.1333 47.8237 47.4667 49.6904 46 51.1571C44.5333 52.6237 42.5333 53.2904 40.1333 53.2904C37.8667 53.2904 36 52.7571 34.5333 51.5571C32.6667 50.0904 31.8667 48.2237 31.8667 45.6904C31.8667 44.3571 32.1333 43.1571 32.8 41.9571C33.4667 40.8904 34.5333 39.9571 36 39.4237ZM36.9333 34.6237C36.9333 35.5571 37.2 36.2237 37.7333 36.7571C38.2667 37.2904 39.0667 37.5571 39.8667 37.5571C40.8 37.5571 41.6 37.2904 42.1333 36.7571C42.6667 36.2237 42.9333 35.5571 42.9333 34.6237C42.9333 33.6904 42.6667 32.8904 42.1333 32.3571C41.6 31.8237 40.8 31.5571 40 31.5571C39.0667 31.5571 38.2667 31.8237 37.7333 32.3571C37.2 32.8904 36.9333 33.6904 36.9333 34.6237ZM36.5333 45.2904C36.5333 46.6237 36.8 47.6904 37.4667 48.3571C38.2667 49.1571 39.0667 49.5571 40 49.5571C41.0667 49.5571 41.8667 49.1571 42.5333 48.3571C43.0667 47.6904 43.4667 46.6237 43.4667 45.2904C43.4667 44.0904 43.0667 43.1571 42.5333 42.4904C41.8667 41.8237 40.9333 41.4237 40 41.4237C38.8 41.4237 38 41.8237 37.3333 42.6237C36.8 43.4237 36.5333 44.3571 36.5333 45.2904ZM57.7333 49.2904V42.7571H51.2V38.3571H57.7333V31.8237H62.1333V38.3571H68.6667V42.7571H62.1333V49.2904H57.7333Z" fill="white"/>
</g>
<defs>
<clipPath id="clip0_1832_49297">
<rect width="80" height="80" fill="white" transform="translate(0 0.0903931)"/>
</clipPath>
</defs>
</svg>
