<svg width="180" height="81" viewBox="0 0 180 81" fill="none" xmlns="http://www.w3.org/2000/svg">
<path d="M9.6 12.0903H170.4C173.1 12.0903 175.5 13.2818 177.3 14.7712C178.8 16.5584 180 18.9414 180 21.6222V58.5584C180 61.2393 178.8 63.6222 177.3 65.4095C175.5 67.1967 173.1 68.0903 170.4 68.0903H9.6C6.9 68.0903 4.5 67.1967 2.7 65.4095C1.2 63.6222 0 61.2393 0 58.5584V21.6222C0 18.9414 1.2 16.5584 2.7 14.7712C4.5 13.2818 6.9 12.0903 9.6 12.0903ZM170.4 14.4733H9.6C7.5 14.4733 5.7 15.3669 4.5 16.5584C3.3 17.7499 2.4 19.5371 2.4 21.6222V58.5584C2.4 60.6435 3.3 62.4308 4.5 63.6222C5.7 65.1116 7.5 65.7074 9.6 65.7074H170.4C172.5 65.7074 174.3 65.1116 175.5 63.6222C176.7 62.4308 177.6 60.6435 177.6 58.5584V21.6222C177.6 19.5371 176.7 17.7499 175.5 16.5584C174.3 15.3669 172.5 14.4733 170.4 14.4733ZM65.4 33.5371H67.2V28.1754H68.7C70.2 28.1754 70.8 29.0691 71.1 30.5584C71.4 32.3457 71.7 33.2393 72 33.5371H73.8C73.5 33.2393 73.2 32.0478 72.6 30.2605C72.3 29.0691 72 28.1754 70.8 27.5797C72.3 27.2818 73.2 26.0903 73.2 24.3031C73.2 23.4095 72.9 22.5159 72.3 21.9201C71.4 21.3244 70.5 21.0265 68.7 21.0265C67.5 21.0265 66.3 21.0265 65.4 21.3244V33.5371ZM67.2 22.5159C67.5 22.218 67.8 22.218 68.7 22.218C70.5 22.218 71.7 23.1116 71.7 24.601C71.7 26.0903 70.5 26.9839 68.7 26.9839H67.2V22.5159ZM82.2 26.3882H77.1V22.5159H82.5V21.0265H75.6V33.5371H82.8V32.3457H77.1V27.8776H82.2V26.3882ZM84 32.9414C84.9 33.5371 86.1 33.835 87.3 33.835C90.3 33.835 91.8 32.0478 91.8 30.2605C91.8 28.4733 90.6 27.2818 88.5 26.6861C86.7 25.7925 86.1 25.1967 86.1 24.0052C86.1 23.4095 86.7 22.218 88.5 22.218C89.7 22.218 90.3 22.5159 90.9 22.8137L91.2 21.6222C90.6 21.3244 89.7 21.0265 88.5 21.0265C86.1 21.0265 84.3 22.5159 84.3 24.3031C84.3 26.0903 85.8 27.2818 87.6 27.8776C89.4 28.4733 90 29.0691 90 30.2605C90 31.7499 89.1 32.6435 87.6 32.6435C86.4 32.6435 85.2 32.0478 84.6 31.7499L84 32.9414ZM93.9 33.5371H95.7V28.7712H96.9C98.4 28.7712 99.9 28.1754 100.8 27.2818C101.4 26.6861 101.7 25.7925 101.7 24.601C101.7 23.7074 101.4 22.8137 100.8 22.218C99.9 21.3244 98.7 21.0265 97.2 21.0265C95.7 21.0265 94.8 21.0265 93.9 21.3244V33.5371ZM95.7 22.5159C96 22.5159 96.6 22.218 97.2 22.218C99 22.218 100.2 23.1116 100.2 24.8988C100.2 26.3882 99 27.5797 96.9 27.5797C96.3 27.5797 96 27.2818 95.7 27.2818V22.5159ZM109.2 21.0265C105.6 21.0265 103.2 23.4095 103.2 27.5797C103.2 31.452 105.6 33.835 108.9 33.835C112.2 33.835 114.9 31.452 114.9 27.2818C114.9 23.4095 112.5 21.0265 109.2 21.0265ZM108.9 22.218C111.6 22.218 113.1 24.8988 113.1 27.2818C113.1 30.2605 111.6 32.6435 108.9 32.6435C106.5 32.6435 105 30.2605 105 27.5797C105 24.601 106.2 22.218 108.9 22.218ZM118.5 33.5371V28.1754C118.5 26.0903 118.5 24.601 118.2 23.1116C119.1 24.601 119.7 25.7925 120.6 27.2818L124.8 33.5371H126.3V21.0265H124.8V26.3882C124.8 28.4733 124.8 29.9627 125.1 31.452C124.5 30.2605 123.6 29.0691 122.7 27.5797L118.8 21.0265H117V33.5371H118.5ZM128.7 32.9414C129.3 33.5371 130.5 33.835 131.7 33.835C134.7 33.835 136.2 32.0478 136.2 30.2605C136.2 28.4733 135 27.2818 132.9 26.6861C131.1 25.7925 130.5 25.1967 130.5 24.0052C130.5 23.4095 131.1 22.218 132.9 22.218C134.1 22.218 134.7 22.5159 135.3 22.8137L135.6 21.6222C135 21.3244 134.1 21.0265 132.9 21.0265C130.5 21.0265 128.7 22.5159 128.7 24.3031C128.7 26.0903 130.2 27.2818 132.3 27.8776C133.8 28.4733 134.4 29.0691 134.4 30.2605C134.4 31.7499 133.5 32.6435 132 32.6435C130.8 32.6435 129.6 32.0478 129 31.7499L128.7 32.9414ZM138.3 21.0265V33.5371H140.1V21.0265H138.3ZM142.8 33.5371C143.4 33.835 144.3 33.835 145.5 33.835C147.6 33.835 148.8 33.5371 149.7 32.6435C150.3 32.0478 150.9 31.1542 150.9 29.9627C150.9 28.1754 149.4 27.2818 148.2 26.9839C149.7 26.3882 150.3 25.4946 150.3 24.3031C150.3 23.1116 150 22.5159 149.4 21.9201C148.5 21.3244 147.6 21.0265 145.8 21.0265C144.6 21.0265 143.7 21.0265 142.8 21.3244V33.5371ZM144.6 22.5159C144.9 22.218 145.2 22.218 146.1 22.218C147.6 22.218 148.8 22.8137 148.8 24.3031C148.8 25.4946 147.6 26.3882 146.1 26.3882H144.6V22.5159ZM144.6 27.5797H145.8C147.6 27.5797 149.1 28.4733 149.1 29.9627C149.1 31.7499 147.6 32.6435 145.8 32.6435C145.2 32.6435 144.9 32.3457 144.6 32.3457V27.5797ZM153 33.5371H160.2V32.3457H154.8V21.0265H153V33.5371ZM168.3 26.3882H163.5V22.5159H168.6V21.0265H162V33.5371H168.9V32.3457H163.5V27.8776H168.3V26.3882ZM80.1 46.6435H72.9V50.5159H75.9V54.9839C75.6 55.2818 74.7 55.2818 73.8 55.2818C70.2 55.2818 67.8 52.601 67.8 48.4308C67.8 43.6648 70.5 41.2818 74.1 41.2818C76.2 41.2818 77.4 41.8776 78.6 42.4733L79.5 38.601C78.6 38.0052 76.5 37.4095 74.1 37.4095C67.8 37.4095 63.3 41.5797 63.3 48.4308C63.3 51.7074 64.2 54.3882 66 56.4733C67.8 58.2605 70.2 59.1542 73.8 59.1542C76.2 59.1542 78.9 58.5584 80.1 57.9627V46.6435ZM93.3 53.4946L94.8 58.8563H99.3L93.6 37.7074H87.9L82.2 58.8563H86.4L87.9 53.4946H93.3ZM88.5 49.9201L89.7 45.452C90 44.2605 90.3 42.4733 90.6 41.2818C90.9 42.4733 91.2 43.9627 91.5 45.452L92.7 49.9201H88.5ZM118.2 58.8563H122.4L121.5 37.7074H115.8L113.7 44.8563C113.1 47.2393 112.5 49.9201 111.9 52.3031C111.6 49.9201 111 47.2393 110.4 44.8563L108.6 37.7074H102.6L101.4 58.8563H105.6L105.9 50.8137C105.9 48.1329 106.2 44.8563 106.2 42.1754C106.8 44.8563 107.4 47.835 108 50.5159L110.1 58.5584H113.4L115.8 50.218C116.4 47.835 117.3 44.8563 117.9 42.1754V50.8137L118.2 58.8563ZM125.7 37.7074V58.8563H130.2V37.7074H125.7ZM137.7 58.8563V43.3669C138.6 45.7499 139.8 48.4308 141 50.8137L145.2 58.8563H149.7V37.7074H145.8V43.9627C145.8 46.9414 145.8 49.9201 146.1 52.8988C145.2 50.5159 144 47.835 142.8 45.452L138.9 37.7074H133.8V58.8563H137.7ZM169.2 46.6435H162.3V50.5159H165V54.9839C164.7 55.2818 164.1 55.2818 162.9 55.2818C159.6 55.2818 156.9 52.601 156.9 48.4308C156.9 43.6648 159.6 41.2818 163.2 41.2818C165.3 41.2818 166.8 41.8776 167.7 42.4733L168.6 38.601C167.7 38.0052 165.9 37.4095 163.5 37.4095C157.2 37.4095 152.4 41.5797 152.4 48.4308C152.4 51.7074 153.3 54.3882 155.1 56.4733C156.9 58.2605 159.3 59.1542 162.9 59.1542C165.3 59.1542 168 58.5584 169.2 57.9627V46.6435ZM32.4 58.5584H24.9V43.9627H22.8C19.8 44.2605 18.3 45.452 17.4 49.9201C16.5 54.3882 15.6 57.6648 15 58.5584H7.5C8.1 57.0691 9.3 52.3031 10.2 48.1329C11.1 44.8563 12.3 42.1754 14.7 41.2818V40.9839C11.7 40.0903 8.7 36.8137 8.7 32.0478C8.7 28.4733 9.9 26.0903 11.7 24.3031C14.1 22.218 17.7 21.3244 22.5 21.3244C26.4 21.3244 30 21.6222 32.4 22.218V25.4946C35.7 22.8137 39.9 21.3244 45 21.3244C49.2 21.3244 52.5 22.218 54 23.1116L52.5 29.6648C50.7 28.7712 48.6 28.1754 44.7 28.1754C38.7 28.1754 33.9 32.0478 33.9 40.0903C33.9 47.835 38.1 52.3031 44.4 52.3031C45.9 52.3031 47.4 52.0052 48 51.7074V43.9627H42.9V37.4095H55.2V56.7712C52.8 57.6648 48.6 58.8563 44.1 58.8563C39 58.8563 35.4 57.6648 32.4 55.5797V58.5584ZM24.9 27.8776C24.6 27.8776 23.4 27.5797 21.6 27.5797C18.3 27.5797 16.2 29.3669 16.2 32.6435C16.2 35.9201 18.3 38.0052 22.2 38.0052H24.9V27.8776Z" fill="white"/>
</svg>
