<svg width="160" height="80" viewBox="0 0 160 80" fill="none" xmlns="http://www.w3.org/2000/svg">
<path d="M10.0703 0H150.841C153.381 0 155.739 1.08844 157.372 2.72109C159.005 4.35374 159.912 6.53061 159.912 9.0703V70.9297C159.912 73.4694 159.005 75.6463 157.372 77.4603C155.739 79.093 153.381 80 150.841 80H10.0703C7.53061 80 5.35374 79.093 3.72109 77.4603V77.2789C2.08844 75.6463 1 73.4694 1 70.9297V9.0703C1 6.53061 2.08844 4.35374 3.72109 2.72109C5.35374 1.08844 7.53061 0 10.0703 0ZM150.841 1.81406H10.0703C8.07483 1.81406 6.26077 2.72109 4.99093 3.99093C3.72109 5.26077 2.81406 7.07483 2.81406 9.0703V70.9297C2.81406 72.9252 3.72109 74.7392 4.99093 76.0091C6.26077 77.2789 8.07483 78.1859 10.0703 78.1859H150.841C152.837 78.1859 154.651 77.2789 155.921 76.0091C157.372 74.7392 158.097 72.9252 158.097 70.9297V9.0703C158.097 7.07483 157.372 5.26077 155.921 3.99093C154.651 2.72109 152.837 1.81406 150.841 1.81406Z" fill="white"/>
<path d="M28.0293 35.3743H30.569V25.9411C31.1132 26.1226 31.2946 26.1226 31.8388 26.1226C33.8343 26.1226 36.0112 25.2155 37.281 23.5829C38.188 22.313 38.7322 20.8618 38.7322 18.8663C38.7322 16.8708 38.0066 15.0568 36.9182 13.9684C35.8298 12.8799 34.0157 12.3357 31.8388 12.3357C30.3876 12.3357 29.1177 12.5171 28.0293 12.6985V35.3743ZM30.569 14.694C30.9318 14.5126 31.476 14.5126 32.2016 14.5126C35.1041 14.5126 36.0112 16.508 36.0112 18.8663C36.0112 22.1316 34.1971 23.9457 31.6574 23.9457C31.2946 23.9457 30.9318 23.9457 30.569 23.7643V14.694ZM41.6347 35.3743H44.3558V25.3969H45.2629C47.6211 25.3969 48.5282 26.6668 49.0724 29.7507C49.4352 32.6532 49.9794 34.83 50.3422 35.3743H52.8819C52.7005 34.83 52.1563 32.8346 51.6121 29.5693C51.0678 26.6668 50.3422 25.0341 48.5282 24.4899V24.3085C50.8864 23.4015 52.3377 21.406 52.3377 18.5035C52.3377 16.6894 51.7935 15.0568 50.705 13.9684C49.4352 12.8799 47.8025 12.3357 45.4443 12.3357C44.1744 12.3357 42.7232 12.5171 41.6347 12.6985V35.3743ZM44.3558 14.5126C44.5372 14.5126 45.0815 14.5126 45.6257 14.5126C48.5282 14.5126 49.6166 16.1452 49.6166 18.8663C49.6166 21.5874 47.9839 23.4015 45.4443 23.4015H44.3558V14.5126ZM61.408 12.1543C57.4171 12.1543 54.696 16.3266 54.696 23.9457C54.696 31.7461 57.2356 35.7371 61.0452 35.7371C64.6733 35.7371 67.7572 32.4718 67.7572 23.7643C67.7572 16.508 65.3989 12.1543 61.408 12.1543ZM61.2266 14.5126C64.1291 14.5126 65.0361 19.5919 65.0361 23.9457C65.0361 28.2994 64.1291 33.3788 61.2266 33.3788C58.3241 33.3788 57.4171 28.6622 57.4171 23.9457C57.4171 19.2291 58.3241 14.5126 61.2266 14.5126ZM77.0089 35.3743L82.4511 12.5171H79.5486L77.3717 23.2201C76.8275 25.9411 76.2833 29.025 75.9205 32.1089H75.739C75.3762 29.2065 74.6506 25.7597 74.1064 23.2201L71.9295 12.5171H69.027L74.2878 35.3743H77.0089ZM91.34 28.4808L92.9726 35.3743H95.5123L90.4329 12.5171H87.5304L82.2697 35.3743H84.8093L86.2606 28.4808H91.34ZM86.6234 26.4854L87.8932 20.6804C88.2561 19.0477 88.4375 17.0523 88.8003 15.4196H88.9817C89.1631 17.0523 89.5259 18.8663 89.8887 20.6804L90.9771 26.4854H86.6234ZM98.4148 35.3743C99.1404 35.5557 100.047 35.5557 101.861 35.5557C104.401 35.5557 106.578 35.0114 107.848 33.5602C108.936 32.4718 109.481 30.8391 109.481 29.025C109.481 25.9411 108.029 23.7643 105.308 23.0387C107.485 22.1316 108.755 20.1362 108.755 17.7779C108.755 16.1452 108.392 14.8754 107.304 13.9684C106.034 12.6985 104.401 12.3357 102.224 12.3357C100.773 12.3357 99.5032 12.5171 98.4148 12.6985V35.3743ZM100.954 14.5126C101.317 14.5126 101.861 14.3312 102.406 14.3312C105.308 14.3312 106.215 15.9638 106.215 18.1407C106.215 20.499 104.401 22.1316 102.224 22.1316H100.954V14.5126ZM100.954 24.3085H102.224C104.583 24.3085 106.941 25.7597 106.941 29.025C106.941 31.9275 105.127 33.5602 102.406 33.5602C101.68 33.5602 101.317 33.3788 100.954 33.3788V24.3085ZM112.564 35.3743H121.816V33.1974H115.286V12.5171H112.564V35.3743ZM127.621 35.3743V25.5783L132.882 12.5171H130.161L128.165 18.1407C127.621 19.9548 127.077 21.5874 126.533 23.4015C125.988 21.5874 125.444 19.7733 124.719 18.1407L122.723 12.5171H120.002L125.081 25.7597V35.3743H127.621ZM58.6869 67.8459H61.2266V57.5058H67.0316V55.1475H61.2266V47.1656H67.3944V44.8074H58.6869V67.8459ZM76.6461 60.9525L78.2787 67.8459H80.8184L75.739 44.8074H72.8366L67.5758 67.8459H70.1155L71.5667 60.9525H76.6461ZM71.9295 58.7756L73.1994 52.9706C73.5622 51.5194 73.925 49.5239 74.1064 47.7099H74.2878C74.4692 49.5239 74.832 51.338 75.1948 52.9706L76.4647 58.7756H71.9295ZM83.7209 44.8074V67.8459H86.442V44.8074H83.7209ZM90.6143 67.8459H93.154V57.8686H94.2424C96.4193 57.8686 97.5078 58.957 97.8706 62.2223C98.4148 64.9434 98.7776 67.1203 99.1404 67.8459H101.861C101.499 67.1203 101.136 65.3062 100.592 62.0409C100.047 58.957 99.1404 57.3244 97.5078 56.9616V56.7801C99.6846 55.6917 101.136 53.8777 101.136 50.9752C101.136 49.1611 100.592 47.5284 99.5032 46.44C98.4148 45.1702 96.6007 44.8074 94.2424 44.8074C92.9726 44.8074 91.7028 44.8074 90.6143 45.1702V67.8459ZM93.154 46.9842C93.5168 46.9842 94.061 46.8028 94.6053 46.8028C97.3263 46.9842 98.4148 48.6169 98.4148 51.1566C98.4148 54.0591 96.7821 55.8731 94.2424 55.8731H93.154V46.9842Z" fill="white"/>
<path d="M10.0703 0H150.841C153.381 0 155.739 1.08844 157.372 2.72109C159.005 4.35374 159.912 6.53061 159.912 9.0703V70.9297C159.912 73.4694 159.005 75.6463 157.372 77.4603C155.739 79.093 153.381 80 150.841 80H10.0703C7.53061 80 5.35374 79.093 3.72109 77.4603V77.2789C2.08844 75.6463 1 73.4694 1 70.9297V9.0703C1 6.53061 2.08844 4.35374 3.72109 2.72109C5.35374 1.08844 7.53061 0 10.0703 0ZM150.841 1.81406H10.0703C8.07483 1.81406 6.26077 2.72109 4.99093 3.99093C3.72109 5.26077 2.81406 7.07483 2.81406 9.0703V70.9297C2.81406 72.9252 3.72109 74.7392 4.99093 76.0091C6.26077 77.2789 8.07483 78.1859 10.0703 78.1859H150.841C152.837 78.1859 154.651 77.2789 155.921 76.0091C157.372 74.7392 158.097 72.9252 158.097 70.9297V9.0703C158.097 7.07483 157.372 5.26077 155.921 3.99093C154.651 2.72109 152.837 1.81406 150.841 1.81406Z" fill="white"/>
<path d="M28.0293 35.3743H30.569V25.9411C31.1132 26.1226 31.2946 26.1226 31.8388 26.1226C33.8343 26.1226 36.0112 25.2155 37.281 23.5829C38.188 22.313 38.7322 20.8618 38.7322 18.8663C38.7322 16.8708 38.0066 15.0568 36.9182 13.9684C35.8298 12.8799 34.0157 12.3357 31.8388 12.3357C30.3876 12.3357 29.1177 12.5171 28.0293 12.6985V35.3743ZM30.569 14.694C30.9318 14.5126 31.476 14.5126 32.2016 14.5126C35.1041 14.5126 36.0112 16.508 36.0112 18.8663C36.0112 22.1316 34.1971 23.9457 31.6574 23.9457C31.2946 23.9457 30.9318 23.9457 30.569 23.7643V14.694ZM41.6347 35.3743H44.3558V25.3969H45.2629C47.6211 25.3969 48.5282 26.6668 49.0724 29.7507C49.4352 32.6532 49.9794 34.83 50.3422 35.3743H52.8819C52.7005 34.83 52.1563 32.8346 51.6121 29.5693C51.0678 26.6668 50.3422 25.0341 48.5282 24.4899V24.3085C50.8864 23.4015 52.3377 21.406 52.3377 18.5035C52.3377 16.6894 51.7935 15.0568 50.705 13.9684C49.4352 12.8799 47.8025 12.3357 45.4443 12.3357C44.1744 12.3357 42.7232 12.5171 41.6347 12.6985V35.3743ZM44.3558 14.5126C44.5372 14.5126 45.0815 14.5126 45.6257 14.5126C48.5282 14.5126 49.6166 16.1452 49.6166 18.8663C49.6166 21.5874 47.9839 23.4015 45.4443 23.4015H44.3558V14.5126ZM61.408 12.1543C57.4171 12.1543 54.696 16.3266 54.696 23.9457C54.696 31.7461 57.2356 35.7371 61.0452 35.7371C64.6733 35.7371 67.7572 32.4718 67.7572 23.7643C67.7572 16.508 65.3989 12.1543 61.408 12.1543ZM61.2266 14.5126C64.1291 14.5126 65.0361 19.5919 65.0361 23.9457C65.0361 28.2994 64.1291 33.3788 61.2266 33.3788C58.3241 33.3788 57.4171 28.6622 57.4171 23.9457C57.4171 19.2291 58.3241 14.5126 61.2266 14.5126ZM77.0089 35.3743L82.4511 12.5171H79.5486L77.3717 23.2201C76.8275 25.9411 76.2833 29.025 75.9205 32.1089H75.739C75.3762 29.2065 74.6506 25.7597 74.1064 23.2201L71.9295 12.5171H69.027L74.2878 35.3743H77.0089ZM91.34 28.4808L92.9726 35.3743H95.5123L90.4329 12.5171H87.5304L82.2697 35.3743H84.8093L86.2606 28.4808H91.34ZM86.6234 26.4854L87.8932 20.6804C88.2561 19.0477 88.4375 17.0523 88.8003 15.4196H88.9817C89.1631 17.0523 89.5259 18.8663 89.8887 20.6804L90.9771 26.4854H86.6234ZM98.4148 35.3743C99.1404 35.5557 100.047 35.5557 101.861 35.5557C104.401 35.5557 106.578 35.0114 107.848 33.5602C108.936 32.4718 109.481 30.8391 109.481 29.025C109.481 25.9411 108.029 23.7643 105.308 23.0387C107.485 22.1316 108.755 20.1362 108.755 17.7779C108.755 16.1452 108.392 14.8754 107.304 13.9684C106.034 12.6985 104.401 12.3357 102.224 12.3357C100.773 12.3357 99.5032 12.5171 98.4148 12.6985V35.3743ZM100.954 14.5126C101.317 14.5126 101.861 14.3312 102.406 14.3312C105.308 14.3312 106.215 15.9638 106.215 18.1407C106.215 20.499 104.401 22.1316 102.224 22.1316H100.954V14.5126ZM100.954 24.3085H102.224C104.583 24.3085 106.941 25.7597 106.941 29.025C106.941 31.9275 105.127 33.5602 102.406 33.5602C101.68 33.5602 101.317 33.3788 100.954 33.3788V24.3085ZM112.564 35.3743H121.816V33.1974H115.286V12.5171H112.564V35.3743ZM127.621 35.3743V25.5783L132.882 12.5171H130.161L128.165 18.1407C127.621 19.9548 127.077 21.5874 126.533 23.4015C125.988 21.5874 125.444 19.7733 124.719 18.1407L122.723 12.5171H120.002L125.081 25.7597V35.3743H127.621ZM58.6869 67.8459H61.2266V57.5058H67.0316V55.1475H61.2266V47.1656H67.3944V44.8074H58.6869V67.8459ZM76.6461 60.9525L78.2787 67.8459H80.8184L75.739 44.8074H72.8366L67.5758 67.8459H70.1155L71.5667 60.9525H76.6461ZM71.9295 58.7756L73.1994 52.9706C73.5622 51.5194 73.925 49.5239 74.1064 47.7099H74.2878C74.4692 49.5239 74.832 51.338 75.1948 52.9706L76.4647 58.7756H71.9295ZM83.7209 44.8074V67.8459H86.442V44.8074H83.7209ZM90.6143 67.8459H93.154V57.8686H94.2424C96.4193 57.8686 97.5078 58.957 97.8706 62.2223C98.4148 64.9434 98.7776 67.1203 99.1404 67.8459H101.861C101.499 67.1203 101.136 65.3062 100.592 62.0409C100.047 58.957 99.1404 57.3244 97.5078 56.9616V56.7801C99.6846 55.6917 101.136 53.8777 101.136 50.9752C101.136 49.1611 100.592 47.5284 99.5032 46.44C98.4148 45.1702 96.6007 44.8074 94.2424 44.8074C92.9726 44.8074 91.7028 44.8074 90.6143 45.1702V67.8459ZM93.154 46.9842C93.5168 46.9842 94.061 46.8028 94.6053 46.8028C97.3263 46.9842 98.4148 48.6169 98.4148 51.1566C98.4148 54.0591 96.7821 55.8731 94.2424 55.8731H93.154V46.9842Z" fill="white"/>
<path d="M10.0703 0H150.841C153.381 0 155.739 1.08844 157.372 2.72109C159.005 4.35374 159.912 6.53061 159.912 9.0703V70.9297C159.912 73.4694 159.005 75.6463 157.372 77.4603C155.739 79.093 153.381 80 150.841 80H10.0703C7.53061 80 5.35374 79.093 3.72109 77.4603V77.2789C2.08844 75.6463 1 73.4694 1 70.9297V9.0703C1 6.53061 2.08844 4.35374 3.72109 2.72109C5.35374 1.08844 7.53061 0 10.0703 0ZM150.841 1.81406H10.0703C8.07483 1.81406 6.26077 2.72109 4.99093 3.99093C3.72109 5.26077 2.81406 7.07483 2.81406 9.0703V70.9297C2.81406 72.9252 3.72109 74.7392 4.99093 76.0091C6.26077 77.2789 8.07483 78.1859 10.0703 78.1859H150.841C152.837 78.1859 154.651 77.2789 155.921 76.0091C157.372 74.7392 158.097 72.9252 158.097 70.9297V9.0703C158.097 7.07483 157.372 5.26077 155.921 3.99093C154.651 2.72109 152.837 1.81406 150.841 1.81406Z" fill="white"/>
<path d="M28.0293 35.3743H30.569V25.9411C31.1132 26.1226 31.2946 26.1226 31.8388 26.1226C33.8343 26.1226 36.0112 25.2155 37.281 23.5829C38.188 22.313 38.7322 20.8618 38.7322 18.8663C38.7322 16.8708 38.0066 15.0568 36.9182 13.9684C35.8298 12.8799 34.0157 12.3357 31.8388 12.3357C30.3876 12.3357 29.1177 12.5171 28.0293 12.6985V35.3743ZM30.569 14.694C30.9318 14.5126 31.476 14.5126 32.2016 14.5126C35.1041 14.5126 36.0112 16.508 36.0112 18.8663C36.0112 22.1316 34.1971 23.9457 31.6574 23.9457C31.2946 23.9457 30.9318 23.9457 30.569 23.7643V14.694ZM41.6347 35.3743H44.3558V25.3969H45.2629C47.6211 25.3969 48.5282 26.6668 49.0724 29.7507C49.4352 32.6532 49.9794 34.83 50.3422 35.3743H52.8819C52.7005 34.83 52.1563 32.8346 51.6121 29.5693C51.0678 26.6668 50.3422 25.0341 48.5282 24.4899V24.3085C50.8864 23.4015 52.3377 21.406 52.3377 18.5035C52.3377 16.6894 51.7935 15.0568 50.705 13.9684C49.4352 12.8799 47.8025 12.3357 45.4443 12.3357C44.1744 12.3357 42.7232 12.5171 41.6347 12.6985V35.3743ZM44.3558 14.5126C44.5372 14.5126 45.0815 14.5126 45.6257 14.5126C48.5282 14.5126 49.6166 16.1452 49.6166 18.8663C49.6166 21.5874 47.9839 23.4015 45.4443 23.4015H44.3558V14.5126ZM61.408 12.1543C57.4171 12.1543 54.696 16.3266 54.696 23.9457C54.696 31.7461 57.2356 35.7371 61.0452 35.7371C64.6733 35.7371 67.7572 32.4718 67.7572 23.7643C67.7572 16.508 65.3989 12.1543 61.408 12.1543ZM61.2266 14.5126C64.1291 14.5126 65.0361 19.5919 65.0361 23.9457C65.0361 28.2994 64.1291 33.3788 61.2266 33.3788C58.3241 33.3788 57.4171 28.6622 57.4171 23.9457C57.4171 19.2291 58.3241 14.5126 61.2266 14.5126ZM77.0089 35.3743L82.4511 12.5171H79.5486L77.3717 23.2201C76.8275 25.9411 76.2833 29.025 75.9205 32.1089H75.739C75.3762 29.2065 74.6506 25.7597 74.1064 23.2201L71.9295 12.5171H69.027L74.2878 35.3743H77.0089ZM91.34 28.4808L92.9726 35.3743H95.5123L90.4329 12.5171H87.5304L82.2697 35.3743H84.8093L86.2606 28.4808H91.34ZM86.6234 26.4854L87.8932 20.6804C88.2561 19.0477 88.4375 17.0523 88.8003 15.4196H88.9817C89.1631 17.0523 89.5259 18.8663 89.8887 20.6804L90.9771 26.4854H86.6234ZM98.4148 35.3743C99.1404 35.5557 100.047 35.5557 101.861 35.5557C104.401 35.5557 106.578 35.0114 107.848 33.5602C108.936 32.4718 109.481 30.8391 109.481 29.025C109.481 25.9411 108.029 23.7643 105.308 23.0387C107.485 22.1316 108.755 20.1362 108.755 17.7779C108.755 16.1452 108.392 14.8754 107.304 13.9684C106.034 12.6985 104.401 12.3357 102.224 12.3357C100.773 12.3357 99.5032 12.5171 98.4148 12.6985V35.3743ZM100.954 14.5126C101.317 14.5126 101.861 14.3312 102.406 14.3312C105.308 14.3312 106.215 15.9638 106.215 18.1407C106.215 20.499 104.401 22.1316 102.224 22.1316H100.954V14.5126ZM100.954 24.3085H102.224C104.583 24.3085 106.941 25.7597 106.941 29.025C106.941 31.9275 105.127 33.5602 102.406 33.5602C101.68 33.5602 101.317 33.3788 100.954 33.3788V24.3085ZM112.564 35.3743H121.816V33.1974H115.286V12.5171H112.564V35.3743ZM127.621 35.3743V25.5783L132.882 12.5171H130.161L128.165 18.1407C127.621 19.9548 127.077 21.5874 126.533 23.4015C125.988 21.5874 125.444 19.7733 124.719 18.1407L122.723 12.5171H120.002L125.081 25.7597V35.3743H127.621ZM58.6869 67.8459H61.2266V57.5058H67.0316V55.1475H61.2266V47.1656H67.3944V44.8074H58.6869V67.8459ZM76.6461 60.9525L78.2787 67.8459H80.8184L75.739 44.8074H72.8366L67.5758 67.8459H70.1155L71.5667 60.9525H76.6461ZM71.9295 58.7756L73.1994 52.9706C73.5622 51.5194 73.925 49.5239 74.1064 47.7099H74.2878C74.4692 49.5239 74.832 51.338 75.1948 52.9706L76.4647 58.7756H71.9295ZM83.7209 44.8074V67.8459H86.442V44.8074H83.7209ZM90.6143 67.8459H93.154V57.8686H94.2425C96.4193 57.8686 97.5078 58.957 97.8706 62.2223C98.4148 64.9434 98.7776 67.1203 99.1404 67.8459H101.861C101.499 67.1203 101.136 65.3062 100.592 62.0409C100.047 58.957 99.1404 57.3244 97.5078 56.9616V56.7801C99.6846 55.6917 101.136 53.8777 101.136 50.9752C101.136 49.1611 100.592 47.5284 99.5032 46.44C98.4148 45.1702 96.6007 44.8074 94.2425 44.8074C92.9726 44.8074 91.7028 44.8074 90.6143 45.1702V67.8459ZM93.154 46.9842C93.5168 46.9842 94.061 46.8028 94.6053 46.8028C97.3264 46.9842 98.4148 48.6169 98.4148 51.1566C98.4148 54.0591 96.7821 55.8731 94.2425 55.8731H93.154V46.9842Z" fill="white"/>
</svg>
