<svg width="80" height="81" viewBox="0 0 80 81" fill="none" xmlns="http://www.w3.org/2000/svg">
<g clip-path="url(#clip0_1832_49641)">
<path fill-rule="evenodd" clip-rule="evenodd" d="M37.3607 53.8106V47.4656C38.6276 47.6771 39.6833 47.6771 40.9501 47.6771C48.129 47.6771 54.4633 45.7737 59.1085 42.6012L50.0293 43.0242C48.9736 43.2357 48.3402 42.8127 47.7067 42.1782C47.0733 41.5437 46.651 40.9092 46.8622 39.8518C46.8622 38.1598 48.129 37.1023 49.8182 37.1023H71.566C72.6217 37.1023 73.4663 37.5253 74.3109 38.5828C74.9443 39.4288 75.1554 40.4862 74.7331 41.5437L71.3548 54.2335C70.7214 56.137 68.8211 57.406 66.7097 56.983L65.654 56.7715C64.5982 56.56 63.7537 55.9255 63.1202 54.868C62.4868 54.022 62.2757 52.7531 62.6979 51.6956L64.176 47.8886C58.2639 51.4841 50.0293 53.8106 41.1613 53.8106H37.3607ZM37.3607 14.6836V10.2422H41.1613C48.9736 10.2422 56.3636 11.9342 62.0645 15.1066C62.9091 15.5296 63.3314 16.1641 63.3314 17.0101C63.5425 17.8561 63.3314 18.4906 62.6979 19.1251L62.2757 19.3366C61.4311 20.1825 60.1642 20.394 59.1085 19.7595C54.4633 16.5871 48.129 14.4721 40.9501 14.4721C39.6833 14.4721 38.6276 14.6836 37.3607 14.6836ZM9.06745 0.090332H37.3607V63.1164H9.06745C6.32258 63.1164 4 61.0014 4 58.252V5.16626C4 2.4168 6.32258 0.090332 9.06745 0.090332ZM37.3607 10.2422V14.6836C25.1144 15.7411 15.6129 22.7205 15.6129 31.1804C15.6129 39.4288 25.1144 46.4082 37.3607 47.4656V53.8106C20.6804 52.5416 7.80059 43.2357 7.80059 32.0264C7.80059 20.817 20.6804 11.5112 37.3607 10.2422ZM15.6129 74.1143H8.85631V75.8062H13.7126C13.5015 76.4407 12.868 77.2867 12.2346 77.7097C11.6012 78.1327 10.7566 78.5557 9.70088 78.3442C5.68915 77.9212 4.84457 72.4223 8.22287 70.5188C9.27859 69.8843 10.9677 69.8843 12.2346 70.7303C13.7126 71.5763 11.8123 71.5763 14.9795 71.5763C14.7683 70.5188 13.5015 69.2498 12.4457 68.8268C10.9677 68.4038 9.27859 68.4038 7.80059 68.8268C5.68915 69.8843 3.78886 72.4223 4.63343 75.8062C5.26686 78.3442 7.80059 80.4592 10.9677 80.0362C13.0792 79.6132 14.5572 78.1327 15.1906 76.4407C15.4018 76.0177 15.824 74.7487 15.6129 74.1143ZM63.3314 73.9028V71.1533C64.5982 71.1533 65.8651 71.1533 65.8651 72.4223C65.8651 73.9028 64.5982 73.9028 63.3314 73.9028ZM60.5865 79.8247H63.3314V76.2292C63.5425 76.4407 65.2317 79.4017 65.4428 79.8247H68.8211C68.61 79.6132 66.4985 76.6522 66.0762 76.0177C66.4985 75.8062 66.9208 75.8062 67.5543 75.1717C67.7654 74.9602 68.1877 74.5372 68.3988 73.9028C69.0323 71.7878 68.1877 68.8268 65.0205 68.8268C63.7537 68.6153 62.0645 68.6153 60.5865 68.6153V79.8247ZM50.0293 75.5947C46.2287 75.5947 47.4956 75.3832 46.651 76.4407C45.8065 77.0752 44.9619 77.4982 43.695 77.0752C40.9501 76.2292 40.9501 71.9993 43.9062 71.3648C44.9619 71.1533 45.8065 71.3648 46.651 72.2108C47.4956 73.0568 46.2287 72.8453 50.0293 72.8453C50.0293 72.2108 49.607 71.3648 49.1848 70.9418C48.129 69.2498 46.2287 68.4038 43.9062 68.6153C41.1613 68.8268 38.8387 71.1533 38.8387 74.1143C38.8387 77.2867 40.9501 79.6132 43.695 80.0362C46.0176 80.2477 47.9179 79.4017 49.1848 77.4982C49.3959 77.0752 50.0293 76.2292 50.0293 75.5947ZM26.3812 79.8247H27.8592V70.3073C28.0704 70.5188 30.1818 76.4407 30.393 77.4982C30.6041 77.9212 31.2375 79.6132 31.4487 79.8247H32.5044C32.9267 78.7672 33.7713 76.2292 34.1936 74.9602C34.6158 74.3258 34.827 73.4798 35.2493 72.6338L36.0938 70.3073L35.8827 79.8247H37.5718V68.6153H35.0381C34.827 69.6728 33.1378 73.9028 32.7155 75.1717C32.7155 75.3832 32.0821 77.0752 31.871 77.2867L28.7038 68.8268L26.3812 68.6153V79.8247ZM54.8856 72.4223C54.8856 72.6338 55.9413 75.8062 55.9413 75.8062H53.8299L54.8856 72.4223ZM49.607 79.8247H52.3519L52.9853 78.1327H56.5748L57.2082 79.8247H60.1642C60.1642 79.6132 58.2639 74.7487 58.0528 74.3258C57.6305 73.2683 57.4194 72.4223 56.9971 71.5763C56.7859 70.9418 56.1525 69.0383 55.9413 68.6153H53.8299L51.7185 74.3258C51.2962 74.9602 49.607 79.4017 49.607 79.8247ZM75.7889 72.8453L72.6217 73.0568V71.1533H75.7889V68.8268H69.8768V79.8247H75.7889V77.2867H72.6217V75.3832H75.7889V72.8453ZM20.4692 70.9418C20.4692 71.1533 21.9472 74.7487 21.9472 74.9602H18.7801C18.7801 74.7487 20.2581 71.1533 20.4692 70.9418ZM15.1906 79.8247H16.8798L18.1466 76.6522H22.5806C22.7918 77.0752 23.0029 77.7097 23.2141 78.1327C23.2141 78.5557 23.6364 79.6132 23.8475 79.8247H25.5367C25.5367 79.4017 23.6364 74.9602 23.4252 74.3258C23.0029 73.6913 21.3138 69.0383 21.1026 68.6153H19.6246L15.1906 79.8247ZM75.7889 72.8453V75.3832H72.6217V77.2867H75.7889V79.8247H69.8768V68.8268H75.7889V71.1533C76 71.1533 76 71.1533 76 70.5188C76 70.0958 76 69.0383 75.7889 68.6153H69.8768C69.8768 68.8268 69.6657 79.4017 69.8768 79.8247H75.7889L76 77.2867H72.6217V75.3832H75.7889C76 75.1717 76 74.5372 76 74.1143C76 73.9028 76 73.0568 75.7889 72.8453Z" fill="white"/>
</g>
<defs>
<clipPath id="clip0_1832_49641">
<rect width="80" height="80" fill="white" transform="translate(0 0.090332)"/>
</clipPath>
</defs>
</svg>
