<svg width="80" height="80" viewBox="0 0 80 80" fill="none" xmlns="http://www.w3.org/2000/svg">
<g clip-path="url(#clip0_1832_27932)">
<path fill-rule="evenodd" clip-rule="evenodd" d="M40.2347 79.999C34.687 80.0454 29.2505 78.4485 24.6152 75.411C19.9798 72.3736 16.3544 68.0325 14.1992 62.9385C12.044 57.8446 11.456 52.2276 12.5098 46.8001C13.5637 41.3727 16.2119 36.3795 20.1185 32.4542C24.025 28.529 29.0138 25.8486 34.4517 24.7532C39.8895 23.6578 45.5314 24.1968 50.6614 26.3017C55.7914 28.4066 60.1782 31.9827 63.2651 36.576C66.352 41.1693 68 46.5729 67.9998 52.101C68.064 67.444 55.6326 79.935 40.2347 79.999ZM40.2347 27.133C26.4827 27.247 15.3931 38.387 15.3931 52.093C15.3931 65.796 26.4817 76.937 40.2337 77.05V77.058H40.2427C54.0791 77.056 65.2941 65.878 65.2921 52.091C65.2891 38.304 54.0711 27.129 40.2347 27.131V27.133ZM48.6487 42.383C39.1238 42.979 35.255 31.703 43.8737 31.166C53.0514 30.593 57.964 41.768 48.6487 42.381V42.383ZM38.4112 21.267C33.6034 21.4309 28.9233 22.851 24.8398 25.385C24.2377 23.475 21.5812 16.349 14.7368 12.395C17.145 12.5299 19.4782 13.2787 21.5127 14.5697C23.5472 15.8606 25.215 17.6506 26.3562 19.768C26.3562 19.768 23.7028 8.524 24.4303 0C29.8115 6.606 33.9483 17.405 33.9483 17.405C33.7018 15.0045 34.0726 12.581 35.0256 10.3627C35.9786 8.1444 37.4825 6.20427 39.3957 4.725C35.9173 11.985 37.8673 19.488 38.4112 21.267Z" fill="#F79520"/>
</g>
<defs>
<clipPath id="clip0_1832_27932">
<rect width="80" height="80" fill="white"/>
</clipPath>
</defs>
</svg>
