<svg width="80" height="80" viewBox="0 0 80 80" fill="none" xmlns="http://www.w3.org/2000/svg">
<g clip-path="url(#clip0_1832_25088)">
<path d="M79.8802 39.452H41.3039V53.068H63.5114C61.389 57.556 58.5969 60.852 55.1343 62.956C51.6726 65.06 47.4196 66.113 42.3762 66.114C34.6173 66.114 28.0937 63.56 22.8087 58.453C17.5226 53.346 14.8775 47.116 14.8745 39.763C14.8745 32.651 17.4229 26.61 22.5187 21.64C27.6134 16.67 33.9366 14.185 41.4861 14.185C50.1462 14.185 57.729 17.602 64.2334 24.437L74.5135 14.331C69.8195 9.304 65.0218 5.754 60.1223 3.681C54.3197 1.227 48.0811 0 41.4116 0C30.4327 0 21.2309 3.288 13.8072 9.863C13.8475 10.087 13.8072 10.318 13.6934 10.516C13.6721 10.7733 13.5501 11.012 13.3536 11.181C13.1571 11.35 12.9017 11.4358 12.6423 11.42C11.5757 12.3383 10.6262 13.3827 9.81498 14.53C9.63072 16.292 7.88179 17.559 6.75409 18.892C6.54164 19.308 6.32416 19.722 6.0956 20.124C5.47838 21.207 5.11692 22.359 4.75646 23.543C4.41815 24.645 3.97412 25.696 3.58244 26.773C2.74473 29.008 2.40843 31.348 1.69859 33.616C1.31598 34.825 0.829658 36.029 0.749108 37.308C0.668559 38.588 0.711854 39.802 0.49437 41.048C0.480731 41.1221 0.45631 41.1939 0.421875 41.261C1.63213 49.348 4.26913 57.285 9.16756 63.935C13.5384 69.873 20.0619 73.958 26.8331 76.705C33.8913 79.569 41.9865 80.039 49.4656 78.825C56.7211 77.647 63.7108 74.659 68.6425 69.097C73.6496 63.447 76.9995 56.673 78.8521 49.399C78.885 49.2388 78.9633 49.0912 79.0778 48.9737C79.1923 48.8562 79.3383 48.7737 79.4986 48.736C79.8338 46.723 80.002 44.686 80 42.645L79.8802 39.452Z" fill="black"/>
<path d="M79.6591 47.6032C78.9779 52.5511 77.3154 57.3157 74.7677 61.6212C71.292 67.5942 66.7912 72.1512 61.2655 75.2902C55.7398 78.4282 49.2576 80.0002 41.8208 80.0002C33.8635 80.0002 26.7651 78.2832 20.5265 74.8482C16.9905 72.9139 13.7924 70.4248 11.0559 67.4772C10.4689 66.8512 16.353 68.8532 25.5015 69.5802C32.8073 70.1632 42.4904 69.8002 50.5111 67.5642C58.6728 65.2892 66.314 60.6242 71.4863 56.2172C76.9496 51.5542 79.7124 47.1912 79.6591 47.6032Z" fill="url(#paint0_linear_1832_25088)"/>
<path d="M30.6189 78.6976C26.5834 77.9007 22.7189 76.4103 19.1994 74.2936C14.5226 71.4676 11.6813 68.2396 9.75525 66.0156C5.03575 60.7891 1.89332 54.3483 0.687693 47.4306C-0.632364 40.422 -0.0449622 33.1904 2.38924 26.4826C4.11999 21.6406 6.57365 17.4206 9.75324 13.8226C11.0563 12.3556 12.4663 10.9859 13.9719 9.72461C13.9719 9.72461 12.4062 16.6346 11.197 25.3806C9.47938 37.7716 12.4123 48.9526 12.4123 48.9526C13.8278 54.6443 16.0899 60.0945 19.1239 65.1236C22.2253 70.2121 26.1025 74.7913 30.6189 78.6976Z" fill="url(#paint1_linear_1832_25088)"/>
</g>
<defs>
<linearGradient id="paint0_linear_1832_25088" x1="14.6111" y1="66.2922" x2="79.2724" y2="51.4007" gradientUnits="userSpaceOnUse">
<stop offset="0.01" stop-color="#352711"/>
<stop offset="1" stop-color="#F2A50A"/>
</linearGradient>
<linearGradient id="paint1_linear_1832_25088" x1="13.5732" y1="16.9306" x2="24.3313" y2="71.1887" gradientUnits="userSpaceOnUse">
<stop offset="0.01" stop-color="#352711"/>
<stop offset="1" stop-color="#F2A50A"/>
</linearGradient>
<clipPath id="clip0_1832_25088">
<rect width="80" height="80" fill="white"/>
</clipPath>
</defs>
</svg>
