<svg width="80" height="80" viewBox="0 0 80 80" fill="none" xmlns="http://www.w3.org/2000/svg">
<path d="M49.6002 38.3455C50.9719 36.2488 51.6728 33.9084 51.6909 31.3153L51.6608 13.0556C51.6819 12.6495 51.6789 12.2734 51.6488 11.9245C51.357 8.56434 49.9732 5.73663 47.4945 3.44439C45.0187 1.15515 42.0797 0.0090246 38.6774 0.0060164L26.5664 0L26.5815 38.3455H49.6002ZM41.5412 9.8338C42.3535 10.5889 42.8077 11.5455 42.91 12.7036C42.919 12.8209 42.931 12.9352 42.9401 13.0526L42.9701 31.3123C42.9581 32.5306 42.5309 33.5595 41.6856 34.3987C40.8403 35.238 39.8145 35.6592 38.6082 35.6562H35.1639L35.1578 8.69971H38.6022C39.7514 8.69971 40.729 9.08175 41.5412 9.8338Z" fill="black"/>
<path d="M52.4977 47.5744C52.3082 45.3905 51.6433 43.4171 50.5062 41.6543H26.582L26.5971 79.9938L39.5714 79.9998C43.1452 79.9998 46.1925 78.7273 48.7103 76.1794C51.2282 73.6315 52.5037 70.5601 52.5368 66.9653L52.5067 48.7055C52.5278 48.2994 52.5247 47.9234 52.4947 47.5744H52.4977ZM43.813 66.9593C43.804 68.1776 43.3768 69.2064 42.5315 70.0457C41.6862 70.885 40.6875 71.3061 39.5414 71.3061H35.2366L35.2487 44.3466H39.5895C40.6905 44.3497 41.6471 44.7287 42.4653 45.4807C43.2836 46.2358 43.7408 47.1924 43.8431 48.3506C43.8521 48.4679 43.8641 48.5822 43.8732 48.6995L43.816 66.9593H43.813Z" fill="black"/>
<path d="M8 25.0947V55.1646L23.1733 40.1296L8 25.0947Z" fill="#F6DF46"/>
<path d="M71.2007 25.041V55.111L56.0273 40.076L71.2007 25.041Z" fill="#F6DF46"/>
</svg>
