<svg width="80" height="80" viewBox="0 0 80 80" fill="none" xmlns="http://www.w3.org/2000/svg">
<g clip-path="url(#clip0_1832_24010)">
<path d="M0 7.5C0 3.35786 3.35786 0 7.5 0H72.5C76.6421 0 80 3.35786 80 7.5V72.5C80 76.6421 76.6421 80 72.5 80H7.5C3.35786 80 0 76.6421 0 72.5V7.5Z" fill="black"/>
<mask id="mask0_1832_24010" style="mask-type:alpha" maskUnits="userSpaceOnUse" x="0" y="0" width="80" height="80">
<path d="M0 7.5C0 3.35786 3.35786 0 7.5 0H72.5C76.6421 0 80 3.35786 80 7.5V72.5C80 76.6421 76.6421 80 72.5 80H7.5C3.35786 80 0 76.6421 0 72.5V7.5Z" fill="black"/>
</mask>
<g mask="url(#mask0_1832_24010)">
<path d="M57.655 22.483V34.3653C57.655 34.7109 57.947 35.0033 58.292 35.0033H67.3707C68.1406 35.0033 68.7511 35.6146 68.7511 36.3855V44.7855C68.7511 45.5564 68.1406 46.1679 67.3707 46.1679H48.2046C47.4347 46.1679 46.8242 45.5564 46.8242 44.7855V-9.86772C46.8242 -10.6386 47.4347 -11.25 48.2046 -11.25H67.3707C68.1406 -11.25 68.7511 -10.6386 68.7511 -9.86772V-1.52086C68.7511 -0.74998 68.1406 -0.138587 67.3707 -0.138587H58.292C57.947 -0.138587 57.655 0.153819 57.655 0.499389V11.9564C57.655 12.3019 57.947 12.5944 58.292 12.5944H65.5391C66.3089 12.5944 66.9195 13.2058 66.9195 13.9766V20.4627C66.9195 21.2336 66.3089 21.845 65.5391 21.845H58.292C57.947 21.845 57.655 22.1374 57.655 22.483Z" fill="#0A4EFF"/>
<path d="M57.655 91.233V103.115C57.655 103.461 57.947 103.753 58.292 103.753H67.3707C68.1406 103.753 68.7511 104.365 68.7511 105.135V113.535C68.7511 114.306 68.1406 114.918 67.3707 114.918H48.2046C47.4347 114.918 46.8242 114.306 46.8242 113.535V58.8823C46.8242 58.1114 47.4347 57.5 48.2046 57.5H67.3707C68.1406 57.5 68.7511 58.1114 68.7511 58.8823V67.2291C68.7511 68 68.1406 68.6114 67.3707 68.6114H58.292C57.947 68.6114 57.655 68.9039 57.655 69.2494V80.7064C57.655 81.052 57.947 81.3444 58.292 81.3444H65.5391C66.3089 81.3444 66.9195 81.9557 66.9195 82.7266V89.2128C66.9195 89.9836 66.3089 90.595 65.5391 90.595H58.292C57.947 90.595 57.655 90.8874 57.655 91.233Z" fill="#0A4EFF"/>
<path d="M38.3811 32.9469C38.3811 27.1785 33.709 22.5 27.922 22.5H13.3218C12.552 22.5 11.9414 23.1114 11.9414 23.8823V78.5621C11.9414 79.333 12.552 79.9444 13.3218 79.9444H31.0545C35.0894 79.9444 38.3546 76.6747 38.3546 72.6342V58.7318C38.3546 55.4355 36.3105 52.6444 33.417 51.5279C33.2578 51.4748 33.1781 51.3419 33.1781 51.1824V50.8367C33.1781 50.6772 33.2844 50.5444 33.417 50.4913C36.3105 49.3748 38.3546 46.557 38.3546 43.2874L38.3811 32.9469ZM27.577 66.4671C27.577 67.7431 26.5416 68.7799 25.2675 68.7799H23.3828C23.0376 68.7799 22.7456 68.4874 22.7456 68.1419V56.2595C22.7456 55.914 23.0376 55.6216 23.3828 55.6216H25.2675C26.5416 55.6216 27.577 56.6583 27.577 57.9343V66.4671ZM27.577 44.0316C27.577 45.3076 26.5416 46.3444 25.2675 46.3444H23.3828C23.0376 46.3444 22.7456 46.052 22.7456 45.7064V34.2228C22.7456 33.8773 23.0376 33.5849 23.3828 33.5849H25.2675C26.5416 33.5849 27.577 34.6215 27.577 35.8975V44.0316Z" fill="#0A4EFF"/>
<path d="M38.3811 -35.8031C38.3811 -41.5715 33.709 -46.25 27.922 -46.25H13.3218C12.552 -46.25 11.9414 -45.6386 11.9414 -44.8677V9.81213C11.9414 10.583 12.552 11.1944 13.3218 11.1944H31.0545C35.0894 11.1944 38.3546 7.92479 38.3546 3.88426V-10.0183C38.3546 -13.3145 36.3105 -16.1056 33.417 -17.2221C33.2578 -17.2753 33.1781 -17.4081 33.1781 -17.5676V-17.9133C33.1781 -18.0728 33.2844 -18.2056 33.417 -18.2588C36.3105 -19.3753 38.3546 -22.193 38.3546 -25.4626L38.3811 -35.8031ZM27.577 -2.28284C27.577 -1.00688 26.5416 0.0298309 25.2675 0.0298309H23.3828C23.0376 0.0298309 22.7456 -0.262574 22.7456 -0.608143V-12.4904C22.7456 -12.836 23.0376 -13.1284 23.3828 -13.1284H25.2675C26.5416 -13.1284 27.577 -12.0917 27.577 -10.8158V-2.28284ZM27.577 -24.7184C27.577 -23.4424 26.5416 -22.4056 25.2675 -22.4056H23.3828C23.0376 -22.4056 22.7456 -22.698 22.7456 -23.0436V-34.5272C22.7456 -34.8727 23.0376 -35.1651 23.3828 -35.1651H25.2675C26.5416 -35.1651 27.577 -34.1285 27.577 -32.8525V-24.7184Z" fill="#0A4EFF"/>
</g>
</g>
<defs>
<clipPath id="clip0_1832_24010">
<rect width="80" height="80" fill="white"/>
</clipPath>
</defs>
</svg>
