<svg width="80" height="80" viewBox="0 0 80 80" fill="none" xmlns="http://www.w3.org/2000/svg">
<path d="M8.63475 0.285095C6.65708 0.669684 4.40185 2.03323 3.0834 3.64151C0.862861 6.3686 0.932253 4.86521 1.03634 40.667C1.14043 71.574 1.17512 73.2172 1.79965 74.371C2.70175 76.0842 4.71411 78.147 6.34482 79.021C7.73265 79.7902 7.90614 79.7902 29.9381 79.8951L52.1087 80L54.3293 78.8812C56.6193 77.7624 58.2847 75.9094 59.152 73.5669C59.4296 72.7278 59.5684 63.9172 59.5684 39.9328C59.6031 8.85095 59.5684 7.34756 58.9439 5.98401C57.9724 3.81633 56.0294 1.82346 53.9476 0.914423L52.1435 0.0753187L31.1525 0.00539339C19.5987 -0.0295693 9.46746 0.110281 8.63475 0.285095ZM52.0046 2.76745C53.8089 3.29189 56.0641 5.31972 56.8621 7.03289C57.4866 8.39644 57.5213 10.1096 57.5213 39.9677V71.4341L56.5845 73.3571C55.9253 74.5808 55.0926 75.5947 54.1212 76.294L52.5945 77.3428H30.3544H8.07962L6.4489 76.224C5.37333 75.4549 4.57533 74.4759 3.9508 73.2522L3.0487 71.4341V40.3523C3.0487 16.8574 3.15279 8.88592 3.46505 7.80207C3.98549 6.05394 6.55299 3.36181 8.25309 2.80241C10.0226 2.24301 50.1658 2.20804 52.0046 2.76745Z" fill="black"/>
<path d="M21.4375 40.1072C21.4375 72.5177 21.507 76.8181 21.958 76.8181C22.409 76.8181 22.4784 72.5177 22.4784 40.1072C22.4784 7.69689 22.409 3.39648 21.958 3.39648C21.507 3.39648 21.4375 7.69689 21.4375 40.1072Z" fill="black"/>
<path d="M38.0898 40.1072C38.0898 72.5177 38.1592 76.8181 38.6103 76.8181C39.0614 76.8181 39.1307 72.5177 39.1307 40.1072C39.1307 7.69689 39.0614 3.39648 38.6103 3.39648C38.1592 3.39648 38.0898 7.69689 38.0898 40.1072Z" fill="black"/>
<path d="M41.2148 15.9496V27.8719H47.3214H53.3931L53.2891 20.25L53.185 12.5932L52.1441 10.5654C50.5134 7.34879 47.2519 5.25103 42.3598 4.27208L41.2148 4.02734V15.9496Z" fill="#B9A900"/>
<path d="M16.9288 5.80925C12.6612 7.20775 10.1631 9.20063 8.63647 12.4521C7.76907 14.3401 7.73438 14.6198 7.73438 21.2277C7.73438 27.9755 7.73438 28.0804 8.70587 30.1432C9.46917 31.8214 10.6141 33.15 14.4307 36.8561C17.0329 39.4083 19.2881 41.5061 19.427 41.5061C19.6004 41.5061 19.7045 33.3248 19.7045 23.3255C19.7045 8.99085 19.6004 5.14496 19.2881 5.17992C19.0453 5.17992 17.9697 5.45962 16.9288 5.80925Z" fill="#B90000"/>
<path d="M25.7722 6.85803L24.3844 7.0678L24.2803 25.2134L24.2109 43.3591L27.9928 47.0651C33.1624 52.1347 33.3706 52.5543 33.5094 59.2321C33.6482 64.2318 33.6135 64.5465 32.9196 65.2457C31.9134 66.2596 29.0337 66.2946 28.0274 65.2807C27.3683 64.6164 27.3335 64.1269 27.3335 56.3652V48.149H25.7722H24.2109V61.7494C24.2109 70.63 24.3497 75.4548 24.5579 75.5947C25.1476 75.9793 32.2604 76.224 34.3768 75.9793L36.3545 75.7345V55.4911V35.2477L33.2318 32.1361C29.1378 28.0454 28.4438 26.577 28.305 21.5773C28.201 17.5217 28.652 16.1581 30.1786 15.9134C31.2195 15.7386 32.9542 16.1931 33.3013 16.7525C33.44 16.9972 33.5788 20.1439 33.5788 23.745V30.318H34.9666H36.3545V18.6405C36.3545 8.32646 36.2851 6.92795 35.7993 6.75314C35.1401 6.5084 27.6458 6.57833 25.7722 6.85803Z" fill="#34B900"/>
<path d="M41.2148 52.8688C41.2148 71.0843 41.2843 72.9723 41.77 72.9723C42.8803 72.9723 46.5928 71.8535 48.2235 71.0144C50.6522 69.7557 52.4911 67.9377 53.6013 65.7001L54.5728 63.7072V55.6658V47.6244L53.5667 45.5266C52.8033 43.8834 51.4849 42.345 47.5296 38.4292C44.7886 35.7021 42.2211 33.2897 41.8741 33.0799C41.2496 32.7652 41.2148 33.3246 41.2148 52.8688Z" fill="#B9A900"/>
<path d="M7.63143 55.3858C7.73552 64.3712 7.77022 64.8257 8.56822 66.5739C9.47032 68.6017 11.5867 70.7694 13.7033 71.8882C14.8482 72.4476 18.7688 73.6713 19.4974 73.6713C19.6015 73.6713 19.671 67.4829 19.6362 59.9309L19.5321 46.2256L13.5298 46.1207L7.52734 46.0508L7.63143 55.3858Z" fill="#B90000"/>
<path d="M67.6535 11.1939C66.0575 11.6834 63.4553 14.1307 62.692 15.809C61.8245 17.7319 61.8593 20.9485 62.7613 22.9763C63.6981 25.0391 64.6002 26.0181 66.682 27.0669C68.1392 27.8012 68.7638 27.906 70.8802 27.8012C72.9273 27.6963 73.6906 27.4865 75.0784 26.6474C77.4724 25.144 78.7909 22.8714 78.9644 19.9695C79.1726 16.9278 78.4092 15.0398 76.2581 13.0819C73.8293 10.8792 70.7067 10.18 67.6535 11.1939ZM71.4353 13.7112C71.4006 14.2356 70.6026 14.1307 70.4292 13.6063C70.3251 13.2916 70.4985 13.1518 70.8455 13.2567C71.1924 13.2916 71.4353 13.5014 71.4353 13.7112ZM74.662 14.4454C74.9743 14.7251 75.2172 15.2146 75.2172 15.4593C75.2172 16.1236 74.2457 17.0327 73.517 17.0327C72.1639 17.0327 71.5394 14.9349 72.7191 14.2706C73.5518 13.7462 74.0375 13.8161 74.662 14.4454Z" fill="#0084B9"/>
<path d="M67.582 38.2559V47.8007H70.5312H73.4803V38.2559V28.7461H70.5312H67.582V38.2559Z" fill="black"/>
<path d="M60.9902 49.1623C60.4697 50.1762 60.5391 60.4902 61.0596 61.0147C61.6494 61.609 76.638 61.609 77.2279 61.0147C77.8178 60.4203 77.8178 49.5119 77.2279 48.9176C76.9156 48.6029 74.6257 48.498 69.0744 48.498C61.7882 48.498 61.3372 48.533 60.9902 49.1623ZM72.7868 50.5958C72.7868 50.8056 70.8785 50.9454 67.7906 50.9454C64.8068 50.9454 62.6903 50.8056 62.5515 50.5958C62.4127 50.386 64.1822 50.2462 67.5477 50.2462C70.8091 50.2462 72.7868 50.386 72.7868 50.5958ZM76.2564 50.5958C76.2564 50.7706 75.8053 50.9454 75.2156 50.9454C74.6604 50.9454 74.1747 50.7706 74.1747 50.5958C74.1747 50.386 74.6604 50.2462 75.2156 50.2462C75.8053 50.2462 76.2564 50.386 76.2564 50.5958Z" fill="black"/>
</svg>
