<svg width="80" height="80" viewBox="0 0 80 80" fill="none" xmlns="http://www.w3.org/2000/svg">
<g clip-path="url(#clip0_1832_23944)">
<path d="M32.8914 6.12378C27.9304 5.33647 22.5984 6.86575 18.4634 8.27539L18.4264 8.28793L18.3884 8.3024C18.1754 8.38442 17.9464 8.46739 17.7054 8.55519C15.8714 9.21901 13.3534 10.1298 12.0384 12.8198C6.91542 22.7992 3.64342 33.5592 4.26242 45.0003L4.35242 46.684L6.09442 46.8229C14.5444 47.4983 23.1004 45.7085 30.4014 41.4458L30.4164 41.4362L30.4324 41.4275C33.8194 39.3676 38.0424 35.7909 38.2704 30.7631C38.4734 26.6403 35.9714 23.5827 33.8324 21.213C34.5454 20.1883 35.3244 19.0498 35.9984 17.8843C36.9584 16.219 37.8214 14.3124 38.0484 12.2824L38.0504 12.2689L38.0524 12.2554C38.3824 8.86298 35.8304 6.59173 32.8914 6.12378Z" fill="white" stroke="black" stroke-width="4"/>
<path d="M20.8634 16.0417C22.3504 15.3856 24.3644 15.7078 25.9614 15.7329C25.3714 16.7846 24.9414 18.3245 23.9284 19.0616C22.6264 19.7177 20.9144 19.7293 19.4844 19.959C19.8944 18.6526 20.2544 17.2728 20.8634 16.0417Z" fill="black"/>
<mask id="mask0_1832_23944" style="mask-type:luminance" maskUnits="userSpaceOnUse" x="19" y="15" width="7" height="5">
<path d="M20.8634 16.0427C22.3504 15.3866 24.3644 15.7088 25.9614 15.7339C25.3714 16.7856 24.9414 18.3255 23.9284 19.0626C22.6264 19.7187 20.9144 19.7303 19.4844 19.9599C19.8944 18.6535 20.2544 17.2738 20.8634 16.0427Z" fill="white"/>
</mask>
<g mask="url(#mask0_1832_23944)">
<path d="M20.8651 16.0419L19.2021 12.5318L17.8811 13.1146L17.2551 14.3785L20.8651 16.0419ZM25.9631 15.7332L29.4811 17.5693L32.6181 11.9761L26.0281 11.8738L25.9631 15.7332ZM23.9301 19.0619L25.7821 22.4823L26.0731 22.3356L26.3371 22.1446L23.9301 19.0619ZM19.4861 19.9592L15.6581 18.8371L13.7891 24.7815L20.1401 23.7655L19.4861 19.9573V19.9592ZM22.5261 19.552C22.4781 19.5742 22.6561 19.4903 23.3661 19.4913C23.6911 19.4913 24.0431 19.5086 24.4801 19.5318C24.8791 19.553 25.4001 19.5839 25.8991 19.5916L26.0271 11.8728C25.7271 11.869 25.3981 11.8506 24.9241 11.8246C24.4871 11.8014 23.9441 11.7735 23.3801 11.7725C22.3101 11.7706 20.7391 11.8545 19.2021 12.5318L22.5261 19.552ZM22.4451 13.8961C22.2131 14.31 22.0181 14.7326 21.8801 15.0346C21.7211 15.3801 21.6221 15.6039 21.5101 15.8229C21.4538 15.941 21.3889 16.0551 21.3161 16.1645C21.2921 16.1973 21.3541 16.1018 21.5231 15.9783L26.3371 22.1446C27.6351 21.2019 28.3351 19.9303 28.7001 19.2076C28.8971 18.8188 29.0781 18.4135 29.1981 18.1521C29.3381 17.8462 29.4181 17.6812 29.4811 17.5693L22.4451 13.8961ZM22.0791 15.6406C22.0161 15.6714 21.7821 15.7621 21.1511 15.8557C20.8471 15.9001 20.5331 15.9358 20.1311 15.9812C19.7581 16.0246 19.2941 16.0776 18.8311 16.151L20.1411 23.7665C20.3931 23.726 20.6791 23.6912 21.0711 23.6469C21.4311 23.6054 21.8951 23.5542 22.3611 23.4848C23.2691 23.3506 24.5421 23.1075 25.7821 22.4823L22.0791 15.6406ZM23.3141 21.0794C23.8051 19.5163 24.0371 18.5901 24.4741 17.7044L17.2541 14.3795C16.4741 15.957 15.9871 17.7902 15.6581 18.8381L23.3131 21.0794H23.3141Z" fill="black"/>
</g>
<path d="M19.4688 31.3916C20.3228 30.8628 21.1898 30.6872 22.2428 30.7644C21.9548 31.215 21.7148 31.4784 21.5118 31.6231C20.9398 31.927 20.2048 32.1412 19.2888 32.313L19.1328 32.3419C19.2378 31.9348 19.3478 31.626 19.4678 31.3916H19.4688Z" fill="black" stroke="black" stroke-width="4"/>
<path d="M72.5752 6.12378C67.6142 5.33647 62.2822 6.86575 58.1472 8.27539L58.1092 8.28793L58.0722 8.3024C57.8592 8.38442 57.6302 8.46739 57.3892 8.55519C55.5552 9.21901 53.0372 10.1298 51.7222 12.8198C46.5992 22.7992 43.3262 33.5592 43.9462 45.0003L44.0362 46.684L45.7782 46.8229C54.2282 47.4983 62.7842 45.7085 70.0852 41.4458L70.1002 41.4362L70.1162 41.4275C73.5032 39.3676 77.7262 35.7909 77.9542 30.7631C78.1572 26.6403 75.6542 23.5827 73.5162 21.213C74.2292 20.1883 75.0082 19.0498 75.6812 17.8843C76.6432 16.219 77.5052 14.3124 77.7332 12.2824L77.7342 12.2689L77.7362 12.2554C78.0662 8.86298 75.5142 6.59173 72.5762 6.12378H72.5752Z" fill="white" stroke="black" stroke-width="4"/>
<path d="M60.546 16.0417C62.034 15.3856 64.048 15.7078 65.645 15.7329C65.055 16.7846 64.625 18.3245 63.612 19.0616C62.31 19.7177 60.598 19.7293 59.168 19.959C59.578 18.6526 59.938 17.2728 60.546 16.0417Z" fill="black"/>
<mask id="mask1_1832_23944" style="mask-type:luminance" maskUnits="userSpaceOnUse" x="59" y="15" width="7" height="5">
<path d="M60.546 16.0427C62.034 15.3866 64.048 15.7088 65.645 15.7339C65.055 16.7856 64.625 18.3255 63.612 19.0626C62.31 19.7187 60.598 19.7303 59.168 19.9599C59.578 18.6535 59.938 17.2738 60.546 16.0427Z" fill="white"/>
</mask>
<g mask="url(#mask1_1832_23944)">
<path d="M60.5477 16.0419L58.8857 12.5318L57.5637 13.1146L56.9387 14.3785L60.5477 16.0419ZM65.6467 15.7332L69.1647 17.5693L72.3017 11.977L65.7107 11.8748L65.6467 15.7342V15.7332ZM63.6137 19.0619L65.4647 22.4823L65.7567 22.3356L66.0197 22.1446L63.6137 19.0619ZM59.1697 19.9592L55.3417 18.8371L53.4727 24.7815L59.8237 23.7655L59.1697 19.9573V19.9592ZM62.2097 19.552C62.1617 19.5742 62.3397 19.4903 63.0497 19.4913C63.3747 19.4913 63.7267 19.5086 64.1637 19.5318C64.5627 19.553 65.0837 19.5839 65.5817 19.5916L65.7107 11.8728C65.4107 11.869 65.0807 11.8506 64.6077 11.8246C64.1707 11.8014 63.6277 11.7735 63.0637 11.7725C61.9937 11.7706 60.4227 11.8545 58.8857 12.5318L62.2097 19.552ZM62.1287 13.8961C61.8957 14.31 61.7017 14.7326 61.5637 15.0346C61.4047 15.3801 61.3047 15.6039 61.1937 15.8229C61.1374 15.941 61.0726 16.0552 60.9997 16.1645C60.9757 16.1973 61.0367 16.1018 61.2067 15.9783L66.0197 22.1446C67.3187 21.2019 68.0187 19.9303 68.3837 19.2076C68.5807 18.8188 68.7617 18.4135 68.8817 18.1521C69.0217 17.8462 69.1017 17.6812 69.1647 17.5693L62.1287 13.8961ZM61.7617 15.6406C61.6997 15.6714 61.4657 15.7621 60.8337 15.8557C60.5307 15.9001 60.2167 15.9358 59.8137 15.9812C59.4417 16.0246 58.9777 16.0776 58.5137 16.151L59.8237 23.7665C60.0757 23.726 60.3627 23.6912 60.7537 23.6469C61.1147 23.6054 61.5787 23.5542 62.0447 23.4848C62.9517 23.3506 64.2247 23.1075 65.4647 22.4823L61.7617 15.6406ZM62.9967 21.0794C63.4887 19.5163 63.7197 18.5901 64.1577 17.7044L56.9377 14.3795C56.1577 15.957 55.6707 17.7902 55.3417 18.8381L62.9967 21.0794Z" fill="black"/>
</g>
<g filter="url(#filter0_f_1832_23944)">
<rect x="3.30078" y="68.5881" width="74.5586" height="5.50402" rx="2.75201" fill="black" fill-opacity="0.6"/>
</g>
<path d="M59.1514 31.3916C60.0064 30.8628 60.8734 30.6872 61.9264 30.7644C61.6384 31.215 61.3984 31.4784 61.1954 31.6231C60.6234 31.927 59.8884 32.1412 58.9724 32.313L58.8164 32.3419C58.9214 31.9348 59.0314 31.626 59.1514 31.3916Z" fill="black" stroke="black" stroke-width="4"/>
<path d="M12.4659 53.1471C14.6889 53.7067 16.4159 54.9514 18.2819 56.168C18.1059 57.1097 18.0529 58.0466 18.0109 58.997C19.0185 56.9988 20.0496 55.0117 21.1039 53.0362H28.1899C29.7229 55.9143 30.8859 58.0167 31.6789 59.3462C31.8259 57.3297 31.9259 55.319 31.9689 53.2986C34.2869 53.2436 36.6809 52.9995 38.9929 53.2571C39.7109 53.3025 40.6429 53.8746 41.7919 54.9697C42.8799 53.7733 43.8449 53.179 44.6849 53.1876C46.0929 53.1114 51.7499 53.0362 62.7159 53.0362C63.2899 53.0362 64.2409 53.1954 65.5689 53.5138C69.4129 52.6116 72.7189 52.6116 75.4889 53.5138C77.7349 54.2451 79.2219 55.3518 79.9509 56.8338L77.5659 59.709C79.0309 60.8669 79.8259 62.1211 79.9509 63.469C80.3059 67.2898 78.6849 68.7332 77.0549 69.6556C74.1619 71.292 68.7399 70.605 67.7389 70.5317C64.6689 70.2973 61.5989 70.6465 58.5009 70.5819C55.4239 70.5336 50.8089 70.5336 44.6569 70.5867L41.8729 69.3189L38.5599 70.6089L28.4709 70.5954L24.8879 69.3189L21.8609 70.5404C19.9556 70.5323 18.0502 70.5368 16.1449 70.5539C13.2699 70.5404 10.4009 70.8897 7.55494 70.7613C6.76194 70.5298 4.48494 69.9383 2.82594 68.2856C1.18594 66.653 0.162938 63.9659 0.0409383 62.5602C-0.209062 59.6878 0.706939 57.6742 2.21494 56.0031C2.89402 55.3356 3.6355 54.73 4.42994 54.194C6.96194 53.0873 9.73394 52.4775 12.4659 53.1471Z" fill="black"/>
<path d="M15.3911 56.9444C14.5584 57.8474 13.7537 58.774 12.9781 59.7231C11.6411 59.3324 9.83807 58.4785 8.48107 59.1539C6.36807 60.1361 6.28707 63.4416 8.30907 64.558C9.28007 65.1137 10.2891 65.0076 11.3551 64.8339C12.1691 63.6124 10.0701 63.4735 9.38507 62.7759C9.25607 62.0783 9.23707 61.3479 9.19907 60.6417C11.3651 60.6687 13.5301 60.6687 15.6961 60.6552C15.6911 62.6428 16.0191 64.8793 15.4481 66.8032C12.1551 69.334 6.25807 69.2278 3.63607 65.7881C1.29407 62.7904 2.11807 58.244 5.44007 56.2516C8.69507 54.3364 12.3401 55.0118 15.3911 56.9444ZM22.6881 55.2327H26.9981C28.9193 59.5828 30.8293 63.9375 32.7281 68.2968C31.7481 68.2813 30.2351 68.2775 28.1881 68.2871L26.9981 66.6391H22.6881L21.6821 68.2968H17.0421L22.6871 55.2327H22.6881ZM76.7981 56.818C76.0887 57.7576 75.386 58.7018 74.6901 59.6508C72.8291 58.9252 71.3851 58.0173 69.1031 58.8065C70.6241 59.4723 70.6241 59.4723 71.3851 59.81C72.9551 60.3937 74.3711 60.4641 75.7131 61.4463C77.5931 62.7228 77.4031 65.7814 75.7181 67.1312C74.0811 68.5225 71.4921 68.675 69.4311 68.426C67.4841 68.2234 65.8851 67.384 64.1961 66.5021C64.9861 65.6019 65.7561 64.6882 66.5091 63.7562C68.7081 64.5281 70.5591 65.8181 72.8291 64.4499C70.6971 63.596 67.9841 63.3481 66.1381 62.0021C64.0771 60.2075 64.9861 56.9328 67.3421 55.8309C70.5121 54.485 73.9051 55.1884 76.7981 56.818ZM34.2231 55.4064C35.7891 55.4353 37.3541 55.4392 38.9201 55.4209C39.8301 56.9038 40.7671 58.3637 41.7521 59.7965C42.7371 58.327 43.6941 56.844 44.6501 55.3611C46.2021 55.4209 47.7531 55.4479 49.3051 55.4479C49.2621 59.728 49.2811 64.0119 49.2901 68.2919C47.8001 68.2639 46.3161 68.2639 44.8261 68.2919C44.8261 66.2899 44.8161 64.2917 44.7031 62.2944C43.6651 63.6259 42.7031 65.0037 41.7281 66.3767C40.7141 65.0086 39.7201 63.6308 38.6871 62.2761C38.6201 64.2782 38.5871 66.285 38.5351 68.2919C37.1151 68.2742 35.695 68.2726 34.2751 68.2871C34.1041 63.9935 34.1561 59.7048 34.2231 55.4064ZM51.7461 55.4363C55.5531 55.3765 59.3561 55.3582 63.1631 55.4595C63.1583 56.5996 63.1583 57.7397 63.1631 58.8799C60.8451 58.9397 58.5331 58.9628 56.2151 58.93C56.1951 59.3488 56.1721 59.7665 56.1531 60.1843C58.3281 60.2345 60.4981 60.2441 62.6681 60.2577C62.6681 61.2727 62.6681 62.2867 62.6731 63.3017C60.5031 63.3249 58.3371 63.3336 56.1671 63.3982C56.1721 63.8343 56.1721 64.2666 56.1771 64.6979C58.5271 64.6882 60.8791 64.7075 63.2251 64.7847C63.2124 65.9512 63.2044 67.1177 63.2011 68.2842C59.3941 68.2707 55.5811 68.261 51.7751 68.289C51.6751 64.0051 51.7081 59.7251 51.7461 55.4363Z" fill="white"/>
<path d="M24.8867 59.8096L26.3297 63.4712H23.5117L24.8867 59.8096Z" fill="black"/>
</g>
<defs>
<filter id="filter0_f_1832_23944" x="-0.699219" y="64.5881" width="82.5586" height="13.5039" filterUnits="userSpaceOnUse" color-interpolation-filters="sRGB">
<feFlood flood-opacity="0" result="BackgroundImageFix"/>
<feBlend mode="normal" in="SourceGraphic" in2="BackgroundImageFix" result="shape"/>
<feGaussianBlur stdDeviation="2" result="effect1_foregroundBlur_1832_23944"/>
</filter>
<clipPath id="clip0_1832_23944">
<rect width="80" height="80" fill="white"/>
</clipPath>
</defs>
</svg>
