<svg width="80" height="80" viewBox="0 0 80 80" fill="none" xmlns="http://www.w3.org/2000/svg">
<path d="M70.33 35.7898H8.85V38.2003H10.95V66.7246H24.89V60.9415H17.06V38.2013H70.33V35.7898ZM0 2V7.87825H4.487V31.7771H10.597V7.87825H15.084V2H0ZM66.062 2V31.7781H80V25.9961H72.171V19.8282H78.375V14.0472H72.171V7.87825H80V2H66.062ZM66.035 55.6416C67.275 54.1973 67.945 52.269 67.945 50.2454C67.945 45.5238 64.126 41.6681 59.447 41.6681H52.86V71.4472H59.543C64.602 71.4472 68.707 67.3029 68.707 62.1954C68.707 59.5925 67.753 57.2793 66.035 55.6416ZM59.16 47.4511C59.8932 47.45 60.5969 47.7439 61.1163 48.268C61.6357 48.7922 61.9284 49.5038 61.93 50.2464C61.9279 50.9887 61.635 51.6998 61.1156 52.2235C60.5963 52.7472 59.8929 53.0408 59.16 53.0397H59.066V47.5473H59.16V47.4511ZM62.693 62.1954C62.693 64.1227 61.166 65.568 59.352 65.568H59.066V58.7265H59.352C61.165 58.7265 62.693 60.268 62.693 62.1954ZM27.112 2C33.126 2 37.899 6.91509 37.899 12.8896C37.899 16.3584 36.372 19.3471 33.889 21.3697L39.045 31.7781H32.267L28.353 23.6839C27.875 23.7801 27.493 23.7801 27.111 23.7801H26.634V31.7792H20.524V2H27.112ZM26.634 7.87825V18.0943H26.729C29.499 18.0943 31.789 15.7811 31.789 12.9858C31.789 10.1915 29.499 7.87825 26.73 7.87825H26.634ZM54.32 24.0688C54.3184 24.811 54.026 25.5223 53.507 26.0464C52.988 26.5705 52.2849 26.8646 51.552 26.8641C50.024 26.8641 48.688 25.6102 48.688 24.0688V2H42.578V23.5867C42.578 28.5018 46.588 32.5499 51.457 32.5499C56.325 32.5499 60.335 28.5018 60.335 23.5867V2H54.225V24.0688H54.32ZM47.719 75.5896H70.33V78H8.85V75.5896H27.644L33.959 46.1983H41.405L47.718 75.5896H47.719ZM41.509 75.5896L40.833 72.6028H34.53L33.855 75.5885H41.507V75.5896H41.509ZM37.778 57.5689L35.868 66.7236H39.687L37.778 57.5689Z" fill="white"/>
</svg>
