<svg width="80" height="80" viewBox="0 0 80 80" fill="none" xmlns="http://www.w3.org/2000/svg">
<g clip-path="url(#clip0_1832_24081)">
<path fill-rule="evenodd" clip-rule="evenodd" d="M7.3817 0H72.6203C73.2515 0 73.8567 0.246746 74.303 0.685956C74.7493 1.12517 75 1.72086 75 2.342V77.657C75.0001 77.9647 74.9386 78.2695 74.8191 78.5538C74.6995 78.8381 74.5241 79.0964 74.303 79.314C74.0819 79.5316 73.8194 79.7042 73.5305 79.8219C73.2416 79.9396 72.932 80.0001 72.6193 80H7.38068C7.06801 80.0001 6.75838 79.9396 6.46948 79.8219C6.18058 79.7042 5.91808 79.5316 5.69699 79.314C5.47589 79.0964 5.30054 78.8381 5.18095 78.5538C5.06135 78.2695 4.99987 77.9647 5 77.657V2.343C4.99987 2.03536 5.06132 1.73071 5.18085 1.44645C5.30038 1.16219 5.47564 0.90389 5.69663 0.686309C5.91761 0.468729 6.17999 0.296129 6.46877 0.17837C6.75755 0.0606107 7.06708 -2.80439e-08 7.37967 0L7.3817 0ZM21.3183 66.856H42.1409C48.3898 66.807 53.1044 65.462 56.2858 62.816C59.4702 60.173 61.0614 56.219 61.0614 50.956C61.0614 48.053 60.344 45.594 58.9113 43.577C57.4787 41.56 55.4252 40.183 52.7468 39.446C55.1193 38.511 56.9147 37.06 58.1371 35.093C59.3584 33.125 59.9691 30.751 59.9691 27.971C59.9691 23.151 58.2478 19.474 54.8074 16.941C51.3669 14.407 46.3454 13.141 39.745 13.141H21.3193V66.856H21.3183ZM33.684 44.02H42.3512C46.6025 44.044 48.7282 46.295 48.7282 50.772C48.7282 52.715 48.1287 54.222 46.9307 55.291C45.7338 56.361 44.0186 56.895 41.7873 56.895H33.684V44.02ZM33.684 35.535V23.14H39.7439C42.5179 23.14 44.5246 23.638 45.7693 24.635C47.014 25.63 47.6369 27.259 47.6369 29.522C47.6369 31.49 47.0608 32.977 45.9095 33.987C44.7593 34.994 42.8339 35.512 40.1321 35.537H33.684V35.535Z" fill="#FFC927"/>
</g>
<defs>
<clipPath id="clip0_1832_24081">
<rect width="80" height="80" fill="white"/>
</clipPath>
</defs>
</svg>
