<svg width="80" height="80" viewBox="0 0 80 80" fill="none" xmlns="http://www.w3.org/2000/svg">
<g clip-path="url(#clip0_1832_27825)">
<path d="M30.86 7.81704C34.97 9.67751 38.099 13.0693 40 17.1365C42.167 12.4566 46.017 8.73264 50.931 7.10233C56.177 5.31657 62.17 5.76982 67.197 8.0472C71.781 10.1126 75.565 13.8093 77.74 18.359C81.634 26.4409 80.429 36.6951 74.647 43.5676C72.221 46.4244 68.552 48.7987 64.75 49.035C65.764 48.2062 66.784 47.4733 67.644 46.4658C69.839 43.9512 71.132 40.6038 71.484 37.2978C71.804 34.2593 71.347 31.035 69.736 28.4003C67.931 25.4506 64.634 23.5568 61.245 23.1419C59.425 22.8784 57.679 23.1924 55.921 23.6487C57.303 24.4643 58.614 25.3002 59.621 26.5852C61.866 29.3259 62.46 33.2316 61.16 36.5275C60.388 38.5616 58.952 40.1485 57.194 41.3882C58.406 44.0269 59.668 46.6405 60.846 49.2954C57.812 49.6689 55.266 49.0632 52.638 47.5621C52.481 48.826 52.163 49.6962 51.505 50.7753C52.112 52.6933 52.962 53.7432 54.576 54.9071C53.324 55.1292 52.143 55.1877 50.873 55.1544C51.556 56.6515 52.409 57.7609 53.597 58.8844C52.5575 59.0116 51.5111 59.0723 50.464 59.0661C50.474 59.3336 50.481 59.6011 50.491 59.8676C51.935 60.5531 53.385 61.2314 54.832 61.9128C55.771 59.8818 56.706 57.8497 57.648 55.8186C59.955 56.8836 62.262 57.9456 64.569 59.0146C63.654 61.0023 62.747 62.9889 61.839 64.9796C61.522 65.5954 61.255 66.2334 60.552 66.4868C59.58 66.8361 58.747 66.4494 57.859 66.0658C55.365 64.8968 52.869 63.7148 50.361 62.571C50.587 64.4618 51.071 65.9487 51.986 67.6204C51.085 67.5386 50.051 67.5356 49.204 67.1894C48.426 66.8704 47.832 66.2465 47.224 65.6883C47.214 67.9394 47.44 70.0664 48.14 72.2145C45.61 71.6775 43.754 70.8861 41.658 69.3719C42.355 70.6014 42.955 71.7663 44.065 72.688C44.703 73.2361 45.419 73.5753 46.157 73.9589C42.72 74.1063 39.498 73.9448 36.539 71.9894C34.024 70.3611 32.624 67.7991 31.942 64.9312C31.455 66.1209 31.0969 67.3604 30.874 68.6279C28.42 66.0689 28.041 62.3449 29.215 59.0903C28.2728 59.059 27.3324 58.9883 26.396 58.8784C27.604 57.7477 28.426 56.6676 29.119 55.1605C27.86 55.1847 26.676 55.1261 25.43 54.9111C27.072 53.7078 27.857 52.7185 28.502 50.7652C27.826 49.679 27.512 48.83 27.358 47.545C24.703 49.0895 22.218 49.6588 19.144 49.2954C20.334 46.6475 21.587 44.03 22.802 41.3912C21.597 40.4907 20.488 39.5217 19.693 38.2225C17.826 35.297 17.655 31.4357 19.236 28.3498C20.286 26.2147 22.041 24.7793 24.079 23.6487C22.259 23.1732 20.451 22.8643 18.567 23.1661C14.366 23.7446 10.587 26.5095 9.212 30.614C7.024 37.113 9.468 45.205 15.263 49.0279C11.649 48.829 8.13 46.6405 5.738 44.0057C-1.382 36.0309 -1.982 23.1661 4.533 14.6421C10.451 6.71469 21.863 3.75087 30.86 7.81805V7.81704Z" fill="black"/>
<path d="M48.2647 23.491C46.9847 24.1623 45.7627 24.8306 44.7597 25.8956C43.5857 27.0717 42.8377 28.5203 42.2917 30.0789C40.6717 29.7609 39.3327 29.7498 37.7157 30.0728C37.1827 28.6333 36.5307 27.2806 35.4757 26.15C34.4287 24.9608 33.1147 24.2037 31.7227 23.491C32.9437 22.2171 34.2887 21.1238 35.9677 20.5101C40.2617 18.8656 45.2307 19.9932 48.2647 23.491ZM25.9037 26.5407C28.1317 25.7523 30.6917 26.2318 32.4697 27.7904C34.5417 29.555 35.3397 32.5047 34.4357 35.0808C33.4897 37.863 30.7057 39.7678 27.7767 39.5892C24.6467 39.463 21.9337 36.9928 21.4937 33.8816C20.9917 30.73 22.9097 27.5754 25.9037 26.5407ZM49.7797 26.5053C52.4247 25.6079 55.4247 26.5225 57.1377 28.7262C58.8077 30.8158 59.0427 33.8402 57.7177 36.166C56.4077 38.5383 53.6907 39.9152 51.0117 39.5417C47.9747 39.1682 45.4937 36.595 45.2237 33.5353C44.8927 30.4524 46.8517 27.4613 49.7797 26.5053Z" fill="white"/>
<path d="M31.877 29.075C33.191 30.4418 33.324 32.0994 33.27 33.9195C32.672 32.8595 32.215 31.8531 31.222 31.099C29.433 29.7059 26.822 29.6988 25.027 31.0859C24.017 31.8288 23.56 32.8464 22.99 33.9225C22.877 32.1034 23.045 30.4206 24.365 29.0568C26.352 26.8996 29.901 26.9066 31.877 29.075ZM55.71 29.1396C56.975 30.5024 57.105 32.1236 57.01 33.9084C56.402 32.7979 55.945 31.7572 54.87 31.0071C53.109 29.719 50.61 29.7291 48.863 31.0374C47.809 31.7774 47.351 32.809 46.802 33.9255C46.607 32.0822 46.839 30.359 48.191 28.9993C50.204 26.8683 53.775 26.9369 55.71 29.1396Z" fill="black"/>
<path d="M38.1697 32.9086C39.4157 32.5048 40.6137 32.6663 41.8667 32.9025C42.0337 35.1668 42.6347 37.3079 44.0817 39.0896C45.3027 40.7027 46.9547 41.6274 48.7367 42.4915C46.7127 42.1352 45.0197 41.5598 43.1837 40.6482C45.0817 43.0084 47.0777 44.2924 50.0167 45.0294C50.0167 45.7703 50.0337 46.5103 50.0127 47.2502C50.1497 49.1551 47.7527 50.4634 47.9107 52.3481C47.9177 54.4447 47.9347 56.5414 47.9247 58.6371C45.7197 57.6105 43.5187 56.5747 41.3137 55.5481C41.3137 53.7765 41.3097 52.0048 41.3137 50.2342C42.4187 49.1581 43.5627 48.1133 44.6547 47.0241C45.1667 46.4719 45.7057 46.0096 45.6447 45.1808C45.2547 44.3379 44.2757 44.4307 43.4977 44.3793C41.1017 44.3793 38.7057 44.3752 36.3097 44.3793C35.6377 44.4196 34.8427 44.3793 34.3617 44.9405C34.0167 45.7279 34.5357 46.2528 35.0167 46.804C36.2047 48.0174 37.4707 49.1581 38.6887 50.3432C38.6857 52.0795 38.6927 53.8138 38.6817 55.5511C36.4777 56.5747 34.2797 57.6064 32.0777 58.6381C32.0377 56.2255 32.1497 53.7926 32.0377 51.3921C31.6007 50.2312 30.4327 49.3085 30.0677 48.1093C29.9147 47.1058 29.9967 46.058 29.9797 45.0435C32.8357 44.2793 34.6817 43.0084 36.4667 40.6624C34.7977 41.4528 33.1937 42.0393 31.3887 42.436C33.6347 41.3882 35.5897 40.0001 36.7987 37.7702C37.7127 36.253 37.8967 34.6186 38.1697 32.9086Z" fill="white"/>
<path d="M36.2158 45.3969C37.1538 45.188 38.0958 45.1809 39.0518 45.188C40.6588 45.2082 42.1778 45.082 43.7718 45.4C42.7518 46.4761 41.4678 46.5205 40.0718 46.571C38.6488 46.5578 37.3018 46.4175 36.2158 45.3969ZM39.9968 57.7539C42.5568 58.8775 45.0718 60.1181 47.6108 61.2891C45.4438 63.2798 42.6868 64.3761 39.7378 64.2873C36.9668 64.2529 34.4278 63.1395 32.3828 61.2962C34.9188 60.1181 37.4378 58.8815 39.9968 57.7539Z" fill="white"/>
</g>
<defs>
<clipPath id="clip0_1832_27825">
<rect width="80" height="80" fill="white"/>
</clipPath>
</defs>
</svg>
