<svg width="80" height="80" viewBox="0 0 80 80" fill="none" xmlns="http://www.w3.org/2000/svg">
<g clip-path="url(#clip0_1832_27228)">
<path fill-rule="evenodd" clip-rule="evenodd" d="M27.5508 73.9993H53.5768L40.5638 60.8984L27.5518 73.9993H27.5508Z" fill="#72C05D"/>
<path fill-rule="evenodd" clip-rule="evenodd" d="M27.5508 73.9993H40.5658V60.8984L27.5508 73.9993Z" fill="#34B677"/>
<path fill-rule="evenodd" clip-rule="evenodd" d="M45.0703 56.0717L62.5353 73.6521L80.0003 56.0727L62.5353 38.4922L45.0703 56.0717Z" fill="#72C05D"/>
<path fill-rule="evenodd" clip-rule="evenodd" d="M62.5353 56.0723H45.0703L62.5353 73.6527L80.0003 56.0733L62.5353 56.0723Z" fill="#26B574"/>
<path fill-rule="evenodd" clip-rule="evenodd" d="M62.5353 38.4922V73.6531L45.0703 56.0737L62.5353 38.4922Z" fill="#34B677"/>
<path fill-rule="evenodd" clip-rule="evenodd" d="M54.3423 56.0723H62.5353V73.6527L45.0703 56.0733L54.3423 56.0723Z" fill="#009169"/>
<path fill-rule="evenodd" clip-rule="evenodd" d="M58.2227 56.0729C58.2227 56.0729 59.5167 55.6443 60.8097 54.3586C62.1037 53.0719 62.5347 51.7852 62.5347 51.7852C62.5347 51.7852 63.0197 53.1246 64.2597 54.3586C65.4997 55.5906 66.8477 56.0719 66.8477 56.0719C66.8477 56.0719 65.5537 56.398 64.2597 57.7882C62.9657 59.1783 62.5347 60.3606 62.5347 60.3606C62.5347 60.3606 62.3197 59.5035 61.0247 58.004C59.7317 56.5025 58.2227 56.0729 58.2227 56.0729Z" fill="#FEFEFE"/>
<path fill-rule="evenodd" clip-rule="evenodd" d="M62.5366 48.7869L55.2096 56.0716L62.5366 63.3584L69.8626 56.0716L62.5366 48.7869ZM62.5366 44.4922L74.1836 56.0716L62.5366 67.6531L50.8906 56.0716L62.5366 44.4922Z" fill="#090204"/>
<path fill-rule="evenodd" clip-rule="evenodd" d="M17.465 38.4922L34.93 56.0727L17.465 73.6531L0 56.0737L17.465 38.4922Z" fill="#72C05D"/>
<path fill-rule="evenodd" clip-rule="evenodd" d="M17.465 56.0723H34.93L17.465 73.6527L0 56.0733L17.465 56.0723Z" fill="#26B574"/>
<path fill-rule="evenodd" clip-rule="evenodd" d="M17.465 38.4922V73.6531L0 56.0737L17.465 38.4922Z" fill="#34B677"/>
<path fill-rule="evenodd" clip-rule="evenodd" d="M9.27 56.0723H17.464V73.6527L0 56.0733L9.27 56.0723Z" fill="#009169"/>
<path fill-rule="evenodd" clip-rule="evenodd" d="M13.1523 56.0729C13.1523 56.0729 14.4473 55.6443 15.7403 54.3586C17.0343 53.0719 17.4643 51.7852 17.4643 51.7852C17.4643 51.7852 17.9503 53.1246 19.1903 54.3586C20.4303 55.5906 21.7773 56.0719 21.7773 56.0719C21.7773 56.0719 20.4833 56.398 19.1903 57.7882C17.8963 59.1783 17.4643 60.3606 17.4643 60.3606C17.4643 60.3606 17.2493 59.5035 15.9553 58.004C14.6623 56.5025 13.1523 56.0729 13.1523 56.0729Z" fill="#FEFEFE"/>
<path fill-rule="evenodd" clip-rule="evenodd" d="M17.4634 48.7869L10.1354 56.0716L17.4634 63.3584L24.7904 56.0716L17.4634 48.7869ZM17.4634 44.4922L29.1084 56.0706L17.4634 67.6521L5.81641 56.0706L17.4634 44.4922Z" fill="#090204"/>
<path fill-rule="evenodd" clip-rule="evenodd" d="M40.2828 6L63.0998 28.968L40.2828 51.9379L17.4648 28.968L40.2828 6Z" fill="#72C05D"/>
<path fill-rule="evenodd" clip-rule="evenodd" d="M40.2818 28.9688H63.1008L40.2818 51.9387L17.4648 28.9688H40.2818Z" fill="#26B574"/>
<path fill-rule="evenodd" clip-rule="evenodd" d="M40.2828 6V51.9369L17.4648 28.968L40.2828 6Z" fill="#34B677"/>
<path fill-rule="evenodd" clip-rule="evenodd" d="M29.5778 28.9688H40.2818V51.9387L17.4648 28.9688H29.5778Z" fill="#009169"/>
<path fill-rule="evenodd" clip-rule="evenodd" d="M34.6484 28.9675C34.6484 28.9675 36.3384 28.4077 38.0284 26.7262C39.7184 25.0467 40.2824 23.3652 40.2824 23.3652C40.2824 23.3652 40.9154 25.1173 42.5364 26.7272C44.1544 28.3381 45.9164 28.9685 45.9164 28.9685C45.9164 28.9685 44.2254 29.3921 42.5354 31.2088C40.8454 33.0255 40.2814 34.5698 40.2814 34.5698C40.2814 34.5698 39.9994 33.4501 38.3104 31.4892C36.6204 29.5283 34.6484 28.9675 34.6484 28.9675Z" fill="#FEFEFE"/>
<path fill-rule="evenodd" clip-rule="evenodd" d="M40.2796 18.7918L30.0476 28.9682L40.2816 39.1436L50.5156 28.9682L40.2816 18.7918H40.2796ZM40.2796 14.4961L54.8336 28.9682L40.2806 43.4392L25.7266 28.9672L40.2796 14.4961Z" fill="#090204"/>
</g>
<defs>
<clipPath id="clip0_1832_27228">
<rect width="80" height="80" fill="white"/>
</clipPath>
</defs>
</svg>
