<svg width="80" height="80" viewBox="0 0 80 80" fill="none" xmlns="http://www.w3.org/2000/svg">
<path fill-rule="evenodd" clip-rule="evenodd" d="M58.3636 29.5006L62.2611 24.5888C62.2611 24.5888 62.9209 21.4802 60.7969 19.6927C60.7969 19.6927 58.343 16.7757 53.4868 19.6927C53.4868 19.6927 48.8471 22.6304 43.2485 34.8786L16.9258 18.7238C16.9258 18.7238 13.0748 15.4131 10.1002 19.2108C10.1002 19.2108 7.06376 23.0967 11.0797 26.0706L23.7514 34.4019V34.8889C23.7514 34.8889 22.2872 34.7698 20.3385 36.8474C20.3385 36.8474 18.1527 39.7644 20.3385 42.728C20.3385 42.728 17.5289 42.6192 16.4412 46.6501C16.3051 47.3032 16.3721 47.9825 16.633 48.596C16.894 49.2095 17.3363 49.7276 17.9001 50.08C16.8815 50.6259 16.0825 51.5096 15.6388 52.5807C15.1952 53.6518 15.1345 54.8443 15.4668 55.9554C15.4668 55.9554 17.3124 58.3905 18.8744 59.3853C18.8744 59.3853 29.7932 66.0741 33.0153 67.2243C33.0153 67.2243 36.8921 68.5559 39.3511 68.2036L55.4355 48.1163C55.4355 48.1163 54.1261 35.8578 58.3636 29.5006Z" fill="url(#paint0_linear_1832_28596)"/>
<path fill-rule="evenodd" clip-rule="evenodd" d="M69.9936 55.3094L61.7812 49.5791C61.2187 49.2046 60.5376 49.0539 59.8704 49.1564C59.2034 49.2588 58.5981 49.6072 58.1726 50.1335L42.0985 70.402C41.8912 70.651 41.738 70.9407 41.6487 71.2528C41.5594 71.5648 41.5362 71.8921 41.5803 72.2137C41.6245 72.5353 41.7352 72.844 41.9052 73.1201C42.0753 73.3961 42.3009 73.6333 42.5677 73.8164L50.7851 79.5467C51.3477 79.9212 52.0288 80.0719 52.6959 79.9695C53.363 79.867 53.9682 79.5187 54.3938 78.9923L70.4576 58.7238C70.6651 58.4752 70.8188 58.1857 70.9084 57.8739C70.9981 57.5621 71.0218 57.2349 70.9781 56.9133C70.9344 56.5917 70.8242 56.2829 70.6547 56.0067C70.4852 55.7305 70.2599 55.4929 69.9936 55.3094Z" fill="#EF7E00"/>
<path fill-rule="evenodd" clip-rule="evenodd" d="M44.5645 16.1807C44.9351 16.3202 45.3456 16.3064 45.706 16.1423C46.0665 15.9781 46.3475 15.6771 46.4875 15.3051L50.3229 5.05159C50.3912 4.86761 50.4224 4.67187 50.4151 4.47568C50.4076 4.27948 50.3615 4.08671 50.2796 3.90848C50.1977 3.73026 50.0813 3.57011 49.9375 3.43728C49.7937 3.30445 49.625 3.20157 49.4414 3.13457C49.0708 2.99504 48.6604 3.00885 48.2999 3.17299C47.9394 3.33712 47.6584 3.63818 47.5185 4.01018L43.683 14.2637C43.6148 14.4476 43.5835 14.6434 43.5909 14.8396C43.5984 15.0358 43.6444 15.2285 43.7263 15.4068C43.8083 15.585 43.9245 15.7451 44.0684 15.878C44.2123 16.0108 44.3809 16.1137 44.5645 16.1807Z" fill="#EDA823"/>
<path fill-rule="evenodd" clip-rule="evenodd" d="M26.5503 15.3052C26.6903 15.6772 26.9713 15.9783 27.3318 16.1424C27.6922 16.3066 28.1028 16.3204 28.4733 16.1808C28.6565 16.1133 28.8245 16.0101 28.9678 15.877C29.1112 15.744 29.2269 15.5838 29.3083 15.4056C29.3898 15.2274 29.4354 15.0348 29.4424 14.8389C29.4496 14.6429 29.4181 14.4475 29.3497 14.2638L25.5193 4.0104C25.3783 3.63802 25.0963 3.33689 24.7351 3.17282C24.3738 3.00875 23.9625 2.99508 23.5913 3.13479C23.4081 3.20229 23.2401 3.30555 23.0967 3.4386C22.9534 3.57165 22.8377 3.73187 22.7562 3.91004C22.6748 4.08822 22.6292 4.28082 22.6221 4.47677C22.615 4.67272 22.6465 4.86815 22.7149 5.0518L26.5503 15.3052Z" fill="#EDA823"/>
<path fill-rule="evenodd" clip-rule="evenodd" d="M35.0742 12.4399C35.0769 12.8371 35.2355 13.2172 35.5154 13.4975C35.7953 13.7779 36.174 13.9359 36.5692 13.9373C36.765 13.94 36.9594 13.9036 37.141 13.83C37.3226 13.7564 37.4878 13.6473 37.627 13.5088C37.7662 13.3704 37.8766 13.2055 37.9516 13.0238C38.0267 12.842 38.065 12.6471 38.0642 12.4503V1.49738C38.0615 1.10021 37.903 0.720151 37.623 0.439785C37.3431 0.159419 36.9644 0.00139157 36.5692 3.60453e-05C36.3738 -0.00132897 36.1801 0.0360879 35.9991 0.110141C35.8181 0.184194 35.6534 0.293426 35.5145 0.431573C35.3756 0.569721 35.2653 0.734066 35.1897 0.915183C35.1141 1.0963 35.0749 1.29063 35.0742 1.48702V12.4399Z" fill="#EDA823"/>
<defs>
<linearGradient id="paint0_linear_1832_28596" x1="34.0722" y1="13.6774" x2="43.6035" y2="67.4516" gradientUnits="userSpaceOnUse">
<stop stop-color="#F5B043"/>
<stop offset="1" stop-color="#ED6D20"/>
</linearGradient>
</defs>
</svg>
