<svg width="80" height="62" viewBox="0 0 80 62" fill="none" xmlns="http://www.w3.org/2000/svg">
<g clip-path="url(#clip0_5628_1362)">
<path d="M80 48.514C80 55.6116 74.2463 61.3655 67.1485 61.3655H12.8515C5.75372 61.3655 0 55.6116 0 48.514V12.8515C0 5.75372 5.75372 0 12.8515 0H67.1487C74.2463 0 80 5.75386 80 12.8515V48.514Z" fill="url(#paint0_linear_5628_1362)"/>
<path d="M67.5011 29.4591V30.6952C69.9346 31.7889 71.9386 34.4991 71.9386 37.8749C71.9386 43.5333 68.2645 47.7175 60.2003 47.7175H43.7856V13.7682H59.7709C67.2624 13.7682 70.9844 17.9048 70.9844 22.7548C70.9844 25.7978 69.6482 28.3178 67.5011 29.4591ZM50.8955 27.2243H58.912C62.109 27.2243 63.6836 25.9404 63.6836 23.4205C63.6836 20.9004 62.0613 19.6641 58.8642 19.6641H50.8955V27.2243ZM50.8955 41.6789H59.1505C62.7293 41.6789 64.638 40.3475 64.638 37.4947C64.638 34.5941 62.8247 33.1677 59.2459 33.1677H50.8955V41.6789Z" fill="white"/>
<path d="M24.0211 28.9478H38.8082V32.8325C38.8082 40.5089 34.6697 47.908 24.2536 47.908C13.8375 47.908 8.21094 40.7864 8.21094 30.7976C8.21094 20.8551 13.884 13.6873 24.3001 13.6873C31.8797 13.6873 36.6692 17.6643 37.9248 23.7222H30.7172C29.9732 21.2714 27.8341 19.8378 24.2536 19.8378C18.3016 19.8378 15.3255 24.5084 15.3255 30.7976C15.3255 37.0868 18.3016 41.8038 24.3001 41.8038C29.4152 41.8038 31.7402 38.7979 31.8797 34.5897H24.0211V28.9478Z" fill="white"/>
</g>
<defs>
<linearGradient id="paint0_linear_5628_1362" x1="40" y1="61.3655" x2="40" y2="0" gradientUnits="userSpaceOnUse">
<stop stop-color="#057400"/>
<stop offset="0.632213" stop-color="#2BDC24"/>
</linearGradient>
<clipPath id="clip0_5628_1362">
<rect width="80" height="62" fill="white"/>
</clipPath>
</defs>
</svg>
