<svg width="80" height="80" viewBox="0 0 80 80" fill="none" xmlns="http://www.w3.org/2000/svg">
<g clip-path="url(#clip0_1832_23521)">
<path d="M80 0H0V80H80V0Z" fill="#E3A355"/>
<path d="M60 51.5525V28.4485L40 16.8965L20 28.4485V51.5525L40 63.1045L60 51.5525Z" fill="#001C20"/>
<path d="M40 16.8965L20 28.4485V51.5525L40 40.0005V16.8965Z" fill="#FFFAEE"/>
<path d="M28.8334 41.985V31.937L25.6974 35.361L24.6094 33.313L29.3774 27.617L32.5454 25.793V39.841L28.8334 41.985Z" fill="#001C20"/>
<path d="M50.2402 41.4724V39.3284L44.1602 35.8404V33.4724L47.0082 25.8884L50.6562 27.9684L47.3922 34.9444L50.2722 36.6084L50.4642 33.4404L53.4402 35.1044V38.4644L54.5282 39.1044V41.8244L53.4402 41.1844V43.3284L50.2402 41.4724Z" fill="#E3A355"/>
<path d="M46.2416 47.9361L44.1616 51.5201L48.0656 54.5601L41.5376 54.5281L37.7936 57.6001L35.8416 53.9841L29.6016 52.8641L34.9136 50.6881L34.8176 46.9121L40.0656 49.1521L46.2416 47.9361Z" fill="#E3A355"/>
</g>
<defs>
<clipPath id="clip0_1832_23521">
<rect width="80" height="80" fill="white"/>
</clipPath>
</defs>
</svg>
