<svg width="80" height="80" viewBox="0 0 80 80" fill="none" xmlns="http://www.w3.org/2000/svg">
<g clip-path="url(#clip0_1832_20898)">
<path fill-rule="evenodd" clip-rule="evenodd" d="M41.5587 30.9739C41.5576 32.9116 41.859 34.838 42.4522 36.6859C43.793 34.5236 45.513 32.6117 47.5324 31.0389C47.5406 28.3808 48.3715 25.788 49.9147 23.6048C51.4579 21.4217 53.6404 19.7514 56.1724 18.8159C56.6642 19.8139 57.5036 20.6057 58.5385 21.0478C59.5734 21.49 60.7352 21.5531 61.8133 21.2259C62.6026 20.9907 63.3133 20.5519 63.8714 19.9552C64.4295 19.3584 64.8145 18.6256 64.9864 17.8329C65.5775 17.6568 66.1273 17.3673 66.604 16.9814C67.0807 16.5954 67.4749 16.1205 67.7639 15.5841C68.0529 15.0477 68.2309 14.4604 68.2877 13.856C68.3446 13.2516 68.2791 12.6422 68.0951 12.0628C67.911 11.4834 67.6121 10.9456 67.2154 10.4803C66.8188 10.015 66.3323 9.63149 65.7841 9.35187C65.2359 9.07224 64.6368 8.90204 64.0213 8.85107C63.4058 8.8001 62.7861 8.86938 62.198 9.05491C61.5991 8.49797 60.8569 8.11212 60.0514 7.9389C59.2459 7.76569 58.4076 7.81167 57.6267 8.07191C56.5704 8.40132 55.6662 9.08642 55.0735 10.0065C54.4807 10.9267 54.2374 12.0228 54.3864 13.1019C50.6263 14.4061 47.3718 16.8268 45.0735 20.0288C42.7753 23.2308 41.547 27.0557 41.5587 30.9739Z" fill="white"/>
<mask id="mask0_1832_20898" style="mask-type:alpha" maskUnits="userSpaceOnUse" x="0" y="0" width="80" height="50">
<path d="M0 0H80V49.969H0V0Z" fill="white"/>
</mask>
<g mask="url(#mask0_1832_20898)">
<path fill-rule="evenodd" clip-rule="evenodd" d="M5.97372 30.973V5.817H73.9744V30.973C73.9133 38.207 67.8908 44.023 60.5279 43.962C57.4012 43.9344 54.3836 42.8288 52.0019 40.838C50.7262 42.4788 49.9328 44.432 49.7081 46.485C58.3491 52.513 70.325 50.517 76.4606 42.025C78.7819 38.8121 80.0204 34.9652 80.002 31.025V0H0V30.973C0.00305301 32.911 0.305301 34.836 0.893514 36.685C2.22345 34.4962 3.94443 32.5612 5.97372 30.973Z" fill="white"/>
</g>
<path fill-rule="evenodd" clip-rule="evenodd" d="M57.5714 70.5528C58.3528 70.8133 59.1917 70.8594 59.9977 70.6862C60.8038 70.5129 61.5465 70.127 62.1459 69.5698C63.3194 69.8964 64.5764 69.7599 65.6491 69.1894C66.7217 68.6188 67.5254 67.6594 67.8888 66.5153C68.2523 65.3712 68.1469 64.1329 67.5951 63.064C67.0432 61.9952 66.0885 61.1802 64.9343 60.7928C64.7609 60.0004 64.3752 59.2679 63.8172 58.671C63.2592 58.0741 62.549 57.6346 61.7602 57.3978C60.6818 57.0654 59.5176 57.1264 58.4814 57.5697C57.4451 58.013 56.6064 58.8087 56.1192 59.8108C49.1645 57.4268 45.4948 49.9548 47.9209 43.1228C50.346 36.2918 57.95 32.6838 64.9027 35.0698C66.5844 35.6449 68.1313 36.546 69.4517 37.7198C70.7279 36.0792 71.5214 34.1259 71.7455 32.0728C63.0648 26.1038 51.1001 28.1798 45.0256 36.7098C42.7666 39.8825 41.5561 43.6616 41.5584 47.5338C41.5741 51.4381 42.8068 55.2441 45.0907 58.4391C47.3745 61.6341 50.5998 64.0647 54.3322 65.4038C54.1494 66.5016 54.3766 67.6273 54.9718 68.5735C55.5671 69.5198 56.4904 70.2227 57.5714 70.5528ZM38.4393 47.5338C38.43 45.6309 38.1288 43.7403 37.5458 41.9258C36.2016 44.0854 34.4821 45.9964 32.4655 47.5718C32.4575 50.23 31.6268 52.8231 30.0836 55.0064C28.5403 57.1898 26.3577 58.8602 23.8255 59.7958C23.3359 58.7962 22.4969 58.0028 21.4615 57.5604C20.4262 57.118 19.2636 57.056 18.1856 57.3858C17.3953 57.6212 16.6833 58.0598 16.1231 58.6561C15.563 59.2524 15.175 59.9848 14.9993 60.7778C14.4123 60.9581 13.8673 61.2503 13.3953 61.6377C12.9233 62.0252 12.5337 62.5003 12.2488 63.0358C11.9638 63.5713 11.7891 64.1568 11.7345 64.7587C11.68 65.3606 11.7468 65.9672 11.931 66.5438C12.1148 67.1203 12.4124 67.6556 12.8068 68.1191C13.2012 68.5826 13.6847 68.9653 14.2296 69.2452C14.7745 69.525 15.3702 69.6967 15.9826 69.7503C16.595 69.804 17.2122 69.7385 17.7989 69.5578C18.3979 70.1149 19.1403 70.5008 19.946 70.6741C20.7517 70.8473 21.5902 70.8012 22.3713 70.5408C23.4524 70.2077 24.3745 69.5017 24.9674 68.553C25.5603 67.6043 25.784 66.4769 25.5973 65.3788C29.3537 64.0753 32.6061 61.659 34.9064 58.4629C37.2066 55.2668 38.4403 51.4483 38.4393 47.5338ZM25.5993 13.1018C25.7979 12.004 25.579 10.8727 24.9842 9.9232C24.3894 8.97367 23.4602 8.27204 22.3733 7.95176C21.5893 7.71577 20.7566 7.68224 19.9555 7.85442C19.1545 8.0266 18.4121 8.39867 17.7999 8.93476C16.6152 8.56982 15.3314 8.68229 14.2311 9.24743C13.1307 9.81258 12.3039 10.7841 11.9325 11.9483C11.5612 13.1124 11.6756 14.3739 12.2507 15.4551C12.8259 16.5364 13.8145 17.3488 14.9993 17.7138C15.216 18.6484 15.7231 19.4938 16.4502 20.1328C17.1773 20.7719 18.0886 21.1732 19.0579 21.281C20.0273 21.3889 21.0068 21.198 21.8609 20.7348C22.7151 20.2717 23.4016 19.5591 23.8255 18.6958C30.7772 21.0788 34.449 28.5498 32.0239 35.3818C29.5978 42.2148 21.9958 45.8208 15.042 43.4378C13.3607 42.8611 11.8139 41.9594 10.493 40.7858C9.16761 42.3988 8.36818 44.3672 8.19922 46.4338C16.9054 52.4178 28.9017 50.3328 34.9924 41.7778C41.0832 33.2218 38.9613 21.4328 30.2552 15.4488C28.8195 14.4614 27.253 13.6717 25.5993 13.1018Z" fill="white"/>
<mask id="mask1_1832_20898" style="mask-type:alpha" maskUnits="userSpaceOnUse" x="0" y="28" width="80" height="52">
<path d="M0 28.5918H80V80.0008H0V28.5918Z" fill="white"/>
</mask>
<g mask="url(#mask1_1832_20898)">
<path fill-rule="evenodd" clip-rule="evenodd" d="M79.1067 41.9263C77.7694 44.0915 76.0485 46.004 74.0255 47.5733V72.7283H6.02684V47.5863C6.08993 40.3493 12.1115 34.5363 19.4764 34.5963C22.6031 34.6239 25.6207 35.7295 28.0024 37.7203C29.2773 36.0788 30.0703 34.1254 30.2952 32.0723C21.6542 26.0463 9.67722 28.0423 3.54169 36.5343C1.2204 39.7468 -0.0181117 43.5934 0.000200168 47.5333V80.0013H80.0002V47.5853C79.9915 45.6654 79.6903 43.7586 79.1067 41.9263Z" fill="white"/>
</g>
</g>
<defs>
<clipPath id="clip0_1832_20898">
<rect width="80" height="80" fill="white"/>
</clipPath>
</defs>
</svg>
