<svg width="60" height="40" xmlns="http://www.w3.org/2000/svg"><g fill="none"><path fill="#F0F0F0" d="M0 0h59.998v40H0z"/><path fill="#D80027" d="M33.749 0h-7.5v16.25H0v7.5h26.25V40h7.499V23.75h26.25v-7.5h-26.25z"/><path fill="#0052B4" d="m46.145 26.956 13.853 7.696v-7.696zm-9.625 0 23.478 13.043v-3.688L43.16 26.956zM53.745 40 36.52 30.43V40z"/><path fill="#F0F0F0" d="m36.52 26.956 23.478 13.043v-3.688L43.16 26.956z"/><path fill="#D80027" d="m36.52 26.956 23.478 13.043v-3.688L43.16 26.956z"/><path fill="#0052B4" d="M10.587 26.956 0 32.837v-5.881zm12.891 1.658V40H2.988z"/><path fill="#D80027" d="M16.839 26.956 0 36.31v3.688l23.478-13.043z"/><path fill="#0052B4" d="M13.853 13.043 0 5.347v7.696zm9.625 0L0 0v3.688l16.839 9.355zM6.254 0l17.224 9.57V0z"/><path fill="#F0F0F0" d="M23.478 13.043 0 0v3.688l16.839 9.355z"/><path fill="#D80027" d="M23.478 13.043 0 0v3.688l16.839 9.355z"/><path fill="#0052B4" d="m49.412 13.043 10.586-5.881v5.881zM36.52 11.385V0h20.491z"/><path fill="#D80027" d="m43.16 13.043 16.838-9.355V0L36.521 13.043z"/></g></svg>