<svg width="60" height="40" xmlns="http://www.w3.org/2000/svg" xmlns:xlink="http://www.w3.org/1999/xlink"><defs><path id="a" d="M7.252.194 8.819 3.47l3.537-.818-1.584 3.267 2.846 2.256-3.543.8.01 3.63-2.833-2.272-2.832 2.273.01-3.632-3.543-.799L3.732 5.92 2.148 2.652l3.538.818z"/><path id="c" d="m3.14.463.747 1.563 1.687-.39-.755 1.558 1.357 1.077-1.69.38.004 1.732-1.35-1.084-1.35 1.084.003-1.732-1.689-.38L1.46 3.194.706 1.636l1.687.39z"/><path id="e" d="m3.389.688.746 1.562 1.687-.39-.754 1.559 1.356 1.076-1.689.38.004 1.732-1.35-1.083-1.351 1.083.003-1.731-1.69-.38L1.71 3.418.954 1.86l1.687.39z"/><path id="g" d="m3.14.816.747 1.562 1.687-.39-.755 1.56 1.356 1.074-1.688.382.003 1.732-1.35-1.084-1.35 1.084.003-1.732-1.689-.382L1.46 3.547.706 1.988l1.687.39z"/><path id="i" d="m3.211.72.748 1.562 1.687-.39-.755 1.558 1.357 1.076-1.69.382.004 1.732-1.35-1.084-1.35 1.084.003-1.732-1.689-.382L1.532 3.45.778 1.892l1.687.39z"/><path id="k" d="m3.67.607.588 1.81H6.16L4.62 3.534l.588 1.81-1.54-1.119L2.13 5.344l.588-1.81-1.54-1.117h1.904z"/><path id="m" d="M30 .04v3.267l-5.381 2.99H30v7.072h-7.042L30 17.281V20h-3.179l-8.756-4.865V20h-6.63v-5.787L1.018 20H0v-3.919l4.881-2.712H0V6.297h6.542L0 2.662V.04h3.35l8.085 4.491V.04h6.63v5.414L27.811.04z"/><path id="o" d="M16.656.04v7.887H30v3.812H16.656V20h-3.812v-8.261H0V7.927h12.844V.04z"/><path id="q" d="M.065.369H3.44L12 5.125V7z"/><path id="s" d="M.065.369H3.44L12 5.125V7z"/><path id="u" d="M.065.369H3.44L12 5.125V7z"/><path id="w" d="M0 6.722V4.847L8.06.37h3.375z"/><path id="y" d="m.173.04 11.262 6.257H8.06L0 1.819V.04z"/><path id="A" d="m.173.04 11.262 6.257H8.06L0 1.819V.04z"/><path id="C" d="m.173.04 11.262 6.257H8.06L0 1.819V.04z"/><path id="E" d="M12 .04v1.501L3.44 6.297H.065L11.327.04z"/></defs><g fill="none" fill-rule="evenodd"><path fill="#0057B4" d="M0 39.96h60V0H0z"/><g transform="translate(17.167 23.751)"><mask id="b" fill="#fff"><use xlink:href="#a"/></mask><path fill="#F0F0F0" mask="url(#b)" d="M.816 12.728h12.816V.056H.816z"/></g><g transform="translate(41.567 29.551)"><mask id="d" fill="#fff"><use xlink:href="#c"/></mask><path fill="#F0F0F0" mask="url(#d)" d="M.096 6.48h6.192V.432H.096z"/></g><g transform="translate(34.367 12.751)"><mask id="f" fill="#fff"><use xlink:href="#e"/></mask><path fill="#F0F0F0" mask="url(#f)" d="M.24 6.72h6.192V.672H.24z"/></g><g transform="translate(41.567 3.151)"><mask id="h" fill="#fff"><use xlink:href="#g"/></mask><path fill="#F0F0F0" mask="url(#h)" d="M.096 6.816h6.192V.768H.096z"/></g><g transform="translate(47.567 10.351)"><mask id="j" fill="#fff"><use xlink:href="#i"/></mask><path fill="#F0F0F0" mask="url(#j)" d="M.144 6.672h6.192V.624H.144z"/></g><g transform="translate(42.767 18.751)"><mask id="l" fill="#fff"><use xlink:href="#k"/></mask><path fill="#F0F0F0" mask="url(#l)" d="M1.056 5.472H6.24V.576H1.056z"/></g><g transform="translate(-.033 .151)"><mask id="n" fill="#fff"><use xlink:href="#m"/></mask><path fill="#F0F0F0" mask="url(#n)" d="M0 20.08h30V.04H0z"/></g><g transform="translate(-.033 .151)"><mask id="p" fill="#fff"><use xlink:href="#o"/></mask><path fill="#D70027" mask="url(#p)" d="M0 20.08h30V.04H0z"/></g><g transform="translate(17.967 13.151)"><mask id="r" fill="#fff"><use xlink:href="#q"/></mask><path fill="#0057B4" mask="url(#r)" d="M0 7.08h12V.36H0z"/></g><g transform="translate(17.967 13.151)"><mask id="t" fill="#fff"><use xlink:href="#s"/></mask><path fill="#F0F0F0" mask="url(#t)" d="M0 7.08h12V.36H0z"/></g><g transform="translate(17.967 13.151)"><mask id="v" fill="#fff"><use xlink:href="#u"/></mask><path fill="#D70027" mask="url(#v)" d="M0 7.08h12V.36H0z"/></g><g transform="translate(-.033 13.151)"><mask id="x" fill="#fff"><use xlink:href="#w"/></mask><path fill="#D70027" mask="url(#x)" d="M0 6.84h11.52V.36H0z"/></g><g transform="translate(-.033 .151)"><mask id="z" fill="#fff"><use xlink:href="#y"/></mask><path fill="#0057B4" mask="url(#z)" d="M0 6.4h11.52V.04H0z"/></g><g transform="translate(-.033 .151)"><mask id="B" fill="#fff"><use xlink:href="#A"/></mask><path fill="#F0F0F0" mask="url(#B)" d="M0 6.4h11.52V.04H0z"/></g><g transform="translate(-.033 .151)"><mask id="D" fill="#fff"><use xlink:href="#C"/></mask><path fill="#D70027" mask="url(#D)" d="M0 6.4h11.52V.04H0z"/></g><g transform="translate(17.967 .151)"><mask id="F" fill="#fff"><use xlink:href="#E"/></mask><path fill="#D70027" mask="url(#F)" d="M0 6.4h12V.04H0z"/></g></g></svg>