<svg width="60" height="40" xmlns="http://www.w3.org/2000/svg"><g fill="none" fill-rule="evenodd"><path fill="#0052B4" d="M.117.039H60v39.922H.117z"/><path d="M51.393 16.75h2.126L51.8 18l.657 2.023-1.72-1.25-1.72 1.25.656-2.022-1.72-1.25h2.126l.658-2.023.657 2.023ZM46.13 28.02h2.896l-2.343 1.701.895 2.755-2.343-1.703-2.343 1.703.895-2.755-2.343-1.702h2.896l.895-2.754.895 2.754Zm.089-17.608h2.511l-2.032 1.476.776 2.388-2.031-1.476-2.032 1.476.776-2.388-2.032-1.476h2.512l.776-2.389.776 2.389Zm-5.174 7.007h2.896l-2.343 1.702.895 2.754-2.343-1.702-2.343 1.702.895-2.754-2.343-1.702h2.896l.895-2.754.895 2.754Z" fill="#D80027" stroke="#FFF" stroke-width=".5"/><path d="m50.736 15.537-.476 1.464h-1.539l1.245.904-.475 1.464 1.245-.905 1.245.905-.476-1.464 1.245-.904h-1.539l-.475-1.464Zm3.553.964-2.196 1.595.839 2.582-2.196-1.596-2.196 1.596.838-2.582-2.196-1.595h2.715l.839-2.581.839 2.58h2.714Zm-9.054 9.573-.713 2.195h-2.308l1.867 1.357-.713 2.195 1.867-1.357 1.867 1.357-.713-2.195 1.867-1.357h-2.308l-.713-2.195Zm4.56 1.695-2.818 2.048 1.076 3.313-2.818-2.048-2.819 2.048 1.077-3.313-2.818-2.048h3.483l1.077-3.313 1.077 3.313h3.483ZM45.443 8.832l-.595 1.83h-1.923l1.556 1.13-.594 1.83 1.556-1.131 1.556 1.13-.595-1.829 1.557-1.13h-1.924l-.594-1.83Zm4.057 1.33-2.508 1.821.958 2.948-2.507-1.822-2.508 1.822.958-2.948-2.507-1.821h3.099l.958-2.948.958 2.948H49.5Zm-9.35 5.312-.714 2.195h-2.308l1.868 1.356-.714 2.196 1.868-1.357 1.867 1.357-.713-2.196 1.867-1.356h-2.308l-.713-2.195Zm1.076 1.695h3.484l-2.818 2.047 1.077 3.314-2.82-2.048-2.818 2.048 1.077-3.314-2.819-2.047h3.484l1.077-3.313 1.076 3.313Z" fill="#FFF" fill-rule="nonzero"/><path fill="#F0F0F0" d="M30.059.038v3.575l-5.284 2.934h5.284v6.943h-6.914l6.914 3.842v2.667h-3.122l-8.594-4.775V20h-6.51v-5.681l-10.224 5.68H.118v-3.573L5.4 13.49H.117V6.547H7.03L.117 2.707V.038h3.12l8.597 4.777V.038h6.509V5.72L28.568.038z"/><path fill="#D80027" d="M16.96.039h-3.744v8.109H.117v3.743h13.1V20h3.742v-8.11h13.1V8.149h-13.1z"/><path fill="#0052B4" d="M18.342 13.49 30.058 20v-1.841l-8.403-4.668z"/><path fill="#F0F0F0" d="M18.342 13.49 30.058 20v-1.841l-8.403-4.668z"/><path d="M18.342 13.49 30.058 20v-1.841l-8.403-4.668zm-9.822 0L.117 18.16V20l11.716-6.508z" fill="#D80027"/><path fill="#0052B4" d="M11.833 6.548.117.038V1.88L8.52 6.548z"/><path fill="#F0F0F0" d="M11.833 6.548.117.038V1.88L8.52 6.548z"/><path d="M11.833 6.548.117.038V1.88L8.52 6.548zm9.822 0 8.403-4.669V.04L18.342 6.548z" fill="#D80027"/></g></svg>