<svg width="60" height="40" xmlns="http://www.w3.org/2000/svg"><g fill="none" fill-rule="evenodd"><path fill="#464655" d="M0 11.3v17.4L10.988 20z"/><path fill="#FF4B55" d="M60 13.684V0H6.076L23.36 13.684z"/><path fill="#41479B" d="M23.36 26.316 6.076 40H60V26.316z"/><path fill="#73AF00" d="M60 24.21v-8.42H22.629L2.684 0H0v8.616L14.38 20 0 31.385V40h2.684l19.945-15.79z"/><path fill="#F5F5F5" d="M60 15.79v-2.106H23.361L6.076 0H2.684L22.63 15.79z"/><path fill="#FFE15A" d="M0 8.616V11.3L10.988 20 0 28.7v2.685L14.38 20z"/><path fill="#F5F5F5" d="M60 26.316V24.21H22.629L2.684 40h3.391l17.286-13.684z"/></g></svg>