<svg width="500" height="206" viewBox="0 0 500 206" fill="none" xmlns="http://www.w3.org/2000/svg">
<g clip-path="url(#clip0_1_129)">
<path d="M10.6889 148.444C25.2667 177.867 61.9333 188.478 88.9222 170.1C98.5889 163.511 104.167 155.178 104.167 145.5C104.167 137.578 98.1778 130.089 90.0556 122.722C75.6667 109.733 56.9445 97.1778 50.3778 83.4889C43.7333 69.6334 48.9333 49.9778 60.6778 37.8778C78.1111 19.8889 106.189 9.05559 143.933 9.42225C131.5 3.61114 117.7 0.266698 103.156 0.0111427C47.1556 -0.944413 0.177785 45.6556 0.0333401 102.322C-0.0111043 118.911 3.83334 134.578 10.7111 148.456H10.7L10.6889 148.444Z" fill="url(#paint0_radial_1_129)"/>
<path d="M90.0444 122.744C76.9667 110.911 58.8444 104.422 45.0111 94.1001C27.2667 80.8556 16.3333 62.3778 29.7 30.0556C11.3444 48.6223 0 74.2667 0 102.589C0 119.289 3.94444 135.067 10.9556 149C25.8222 178.6 63.2556 188.567 90.0111 169.356C99 162.9 104.156 154.833 104.156 145.511C104.156 137.589 98.1667 130.1 90.0444 122.733V122.744Z" fill="#FE9300"/>
<path d="M192.111 56.7111C177.533 27.2889 140.867 16.6778 113.878 35.0556C104.211 41.6445 98.6333 49.9778 98.6333 59.6556C98.6333 67.5778 104.622 75.0667 112.744 82.4334C127.133 95.4222 145.856 107.978 152.422 121.667C159.067 135.522 153.867 155.178 142.122 167.278C124.689 185.267 96.6111 196.1 58.8666 195.733C71.3 201.556 85.1 204.889 99.6444 205.144C155.633 206.1 202.622 159.5 202.767 102.833C202.811 86.2445 198.967 70.5778 192.089 56.7H192.1L192.111 56.7111Z" fill="url(#paint1_radial_1_129)"/>
<path d="M112.756 82.4C125.833 94.2333 143.956 100.722 157.789 111.044C175.533 124.289 186.467 142.767 173.1 175.089C191.444 156.533 202.789 130.878 202.789 102.556C202.789 85.8556 198.844 70.0778 191.833 56.1445C176.967 26.5445 139.533 16.5778 112.778 35.7889C103.789 42.2444 98.6333 50.3111 98.6333 59.6333C98.6333 67.5556 104.622 75.0445 112.744 82.4111L112.756 82.4Z" fill="#FE9300"/>
<path d="M255.8 103.967C249.833 103.967 244.567 102.956 239.989 100.944C235.422 98.8555 231.811 95.9111 229.178 92.1111C226.544 88.2333 225.189 83.5444 225.111 78.0444H240.8C240.956 81.8444 242.311 85.0555 244.867 87.6889C247.5 90.2444 251.111 91.5222 255.678 91.5222C259.633 91.5222 262.767 90.5889 265.089 88.7333C267.411 86.8 268.578 84.2333 268.578 81.0555C268.578 77.7222 267.533 75.1222 265.444 73.2666C263.433 71.4111 260.722 69.9 257.311 68.7333C253.9 67.5666 250.256 66.3333 246.389 65.0111C240.111 62.8444 235.311 60.0555 231.978 56.6444C228.722 53.2333 227.1 48.7 227.1 43.0444C227.022 38.2444 228.144 34.1333 230.467 30.7222C232.867 27.2333 236.122 24.5555 240.233 22.7C244.344 20.7666 249.067 19.7889 254.411 19.7889C259.756 19.7889 264.6 20.7555 268.711 22.7C272.9 24.6333 276.156 27.3555 278.478 30.8333C280.878 34.3222 282.156 38.4666 282.311 43.2778H266.389C266.311 40.4111 265.189 37.8889 263.022 35.7222C260.933 33.4778 257.989 32.3555 254.189 32.3555C250.933 32.2778 248.178 33.0889 245.933 34.8C243.767 36.4222 242.678 38.8333 242.678 42.0111C242.678 44.7222 243.533 46.8889 245.233 48.5222C246.933 50.0666 249.267 51.3889 252.211 52.4778C255.156 53.5666 258.522 54.7222 262.322 55.9666C266.356 57.3666 270.033 58.9889 273.367 60.8444C276.7 62.7 279.378 65.1889 281.389 68.2889C283.4 71.3111 284.411 75.2222 284.411 80.0333C284.411 84.3 283.322 88.2444 281.156 91.8889C278.989 95.5333 275.767 98.4778 271.511 100.722C267.244 102.889 262.022 103.978 255.822 103.978L255.8 103.967ZM311.911 102.578V18.8666H297.033V102.567H311.911V102.578ZM369.789 100.133C374.289 97.5778 377.811 94.0444 380.367 89.5555C383 84.9778 384.322 79.7111 384.322 73.7444C384.322 67.7778 383 62.5444 380.367 58.0555C377.811 53.4778 374.278 49.9222 369.789 47.3555C365.367 44.8 360.411 43.5222 354.911 43.5222C349.411 43.5222 344.289 44.8 339.8 47.3555C335.378 49.9111 331.856 53.4778 329.222 58.0555C326.589 62.5555 325.267 67.7778 325.267 73.7444C325.267 79.7111 326.544 84.9778 329.1 89.5555C331.733 94.0555 335.267 97.5778 339.678 100.133C344.178 102.689 349.211 103.967 354.789 103.967C360.367 103.967 365.289 102.689 369.789 100.133ZM344.678 86.7666C341.889 83.8222 340.489 79.4778 340.489 73.7444C340.489 68.0111 341.889 63.7111 344.678 60.8444C347.544 57.9 350.956 56.4222 354.911 56.4222C358.867 56.4222 362.044 57.9 364.911 60.8444C367.778 63.7111 369.211 68.0111 369.211 73.7444C369.211 79.4778 367.778 83.8222 364.911 86.7666C362.044 89.6333 358.678 91.0666 354.8 91.0666C350.922 91.0666 347.556 89.6333 344.689 86.7666H344.678ZM431.156 102.578V89.9111H423.944C421 89.9111 418.911 89.4111 417.667 88.4C416.5 87.3111 415.922 85.3778 415.922 82.5889V57.3666H431.5V44.9222H415.922V29.4555H402.789L401.044 44.9222H391.167V57.3666H401.044V82.4778C401.044 90 402.867 95.2222 406.511 98.1666C410.156 101.111 415 102.589 421.044 102.589H431.156V102.578ZM485.467 100.133C489.967 97.5778 493.489 94.0444 496.044 89.5555C498.678 84.9778 500 79.7111 500 73.7444C500 67.7778 498.678 62.5444 496.044 58.0555C493.489 53.4778 489.956 49.9222 485.467 47.3555C481.044 44.8 476.089 43.5222 470.589 43.5222C465.089 43.5222 459.967 44.8 455.478 47.3555C451.056 49.9111 447.533 53.4778 444.9 58.0555C442.267 62.5555 440.944 67.7778 440.944 73.7444C440.944 79.7111 442.222 84.9778 444.778 89.5555C447.411 94.0555 450.944 97.5778 455.356 100.133C459.856 102.689 464.889 103.967 470.467 103.967C476.044 103.967 480.967 102.689 485.467 100.133ZM460.356 86.7666C457.567 83.8222 456.167 79.4778 456.167 73.7444C456.167 68.0111 457.567 63.7111 460.356 60.8444C463.222 57.9 466.633 56.4222 470.589 56.4222C474.544 56.4222 477.722 57.9 480.589 60.8444C483.456 63.7111 484.889 68.0111 484.889 73.7444C484.889 79.4778 483.456 83.8222 480.589 86.7666C477.722 89.6333 474.356 91.0666 470.478 91.0666C466.6 91.0666 463.233 89.6333 460.367 86.7666H460.356ZM270.911 191.467V179.144H240.456L270.333 145.778V133.8H224.3V146.122H253.367L223.956 179.489V191.467H270.922H270.911ZM323.756 190.311C327.478 188.611 330.578 186.278 333.056 183.333C335.611 180.311 337.433 176.978 338.522 173.333H323.411C322.4 175.5 320.856 177.289 318.756 178.678C316.744 180 314.222 180.656 311.2 180.656C307.167 180.656 303.722 179.378 300.856 176.822C298.067 174.267 296.511 170.733 296.2 166.244H340.022C340.1 165.233 340.133 164.267 340.133 163.333C340.211 162.4 340.244 161.511 340.244 160.656C340.244 155.389 339 150.622 336.522 146.356C334.122 142.011 330.744 138.6 326.411 136.122C322.067 133.644 317.067 132.4 311.411 132.4C305.367 132.4 300.1 133.722 295.6 136.356C291.178 138.911 287.7 142.522 285.133 147.167C282.656 151.822 281.411 157.122 281.411 163.089C281.411 169.056 282.689 174.167 285.244 178.667C287.8 183.167 291.333 186.644 295.822 189.133C300.322 191.611 305.467 192.856 311.289 192.856C315.944 192.856 320.089 192 323.733 190.3L323.756 190.311ZM320.967 147.878C323.522 150.122 324.922 153.144 325.156 156.944H296.444C297.222 152.756 299 149.656 301.789 147.644C304.578 145.556 307.8 144.511 311.433 144.511C315.067 144.511 318.411 145.633 320.967 147.878ZM367.656 191.467V161.711C367.656 156.444 368.978 152.333 371.611 149.389C374.322 146.444 377.778 144.967 381.956 144.967C386.133 144.967 389.356 146.289 391.367 148.922C393.378 151.556 394.389 155.356 394.389 160.311V191.467H409.267V158.911C409.267 150.233 407.289 143.644 403.333 139.144C399.378 134.644 393.844 132.4 386.711 132.4C382.133 132.4 378.144 133.411 374.733 135.422C371.4 137.433 368.844 140.144 367.056 143.556L365.889 133.789H352.756V191.444H367.633L367.656 191.467Z" fill="white"/>
</g>
<defs>
<radialGradient id="paint0_radial_1_129" cx="0" cy="0" r="1" gradientUnits="userSpaceOnUse" gradientTransform="translate(130.81 -4.33458) rotate(137.12) scale(130.731 102.644)">
<stop stop-color="#FF5001"/>
<stop offset="0.79" stop-color="#FF5001"/>
<stop offset="1" stop-color="#C11F01"/>
</radialGradient>
<radialGradient id="paint1_radial_1_129" cx="0" cy="0" r="1" gradientUnits="userSpaceOnUse" gradientTransform="translate(72.1085 209.758) rotate(-42.88) scale(130.731 102.644)">
<stop stop-color="#FF5001"/>
<stop offset="0.79" stop-color="#FF5001"/>
<stop offset="1" stop-color="#C11F01"/>
</radialGradient>
<clipPath id="clip0_1_129">
<rect width="500" height="206" fill="white"/>
</clipPath>
</defs>
</svg>
