<svg viewBox="0 0 32 32" fill="none" xmlns="http://www.w3.org/2000/svg"><path d="M19.9972 6.66666C25.1519 6.66666 29.3306 10.8453 29.3306 16C29.3306 21.0473 25.3242 25.1588 20.3181 25.3279L19.9972 25.3333H12.0029C6.84823 25.3333 2.66956 21.1546 2.66956 16C2.66956 10.9527 6.67593 6.84119 11.682 6.67207L12.0029 6.66666H19.9972ZM19.6667 16.6667C18.7463 16.6667 18.0001 17.4128 18.0001 18.3333C18.0001 19.2538 18.7463 20 19.6667 20C20.5872 20 21.3334 19.2538 21.3334 18.3333C21.3334 17.4128 20.5872 16.6667 19.6667 16.6667ZM10.6667 12C10.1605 12 9.74208 12.3762 9.67586 12.8643L9.66673 13V14.9973L7.66673 14.9983C7.11445 14.9983 6.66673 15.446 6.66673 15.9983C6.66673 16.5046 7.04294 16.923 7.53104 16.9892L7.66673 16.9983L9.66673 16.9973V19C9.66673 19.5523 10.1144 20 10.6667 20C11.173 20 11.5914 19.6238 11.6576 19.1357L11.6667 19V16.9973L13.6667 16.9983C14.219 16.9983 14.6667 16.5506 14.6667 15.9983C14.6667 15.4921 14.2905 15.0737 13.8024 15.0074L13.6667 14.9983L11.6667 14.9973V13C11.6667 12.4477 11.219 12 10.6667 12ZM22.3334 12C21.4129 12 20.6667 12.7462 20.6667 13.6667C20.6667 14.5871 21.4129 15.3333 22.3334 15.3333C23.2539 15.3333 24.0001 14.5871 24.0001 13.6667C24.0001 12.7462 23.2539 12 22.3334 12Z" fill="currentColor"/></svg>
