<svg viewBox="0 0 32 32" fill="none" xmlns="http://www.w3.org/2000/svg"><path d="M15 17.3333V29.3333H9.66667C7.27343 29.3333 5.33333 27.3932 5.33333 25V17.3333H15ZM26.6667 17.3333V25C26.6667 27.3932 24.7266 29.3333 22.3333 29.3333H17V17.3333H26.6667ZM19.3333 2.66666C21.7266 2.66666 23.6667 4.60676 23.6667 6.99999C23.6667 7.85996 23.4162 8.66142 22.9841 9.33538L26.3333 9.33332C27.2538 9.33332 28 9.95515 28 10.7222V14.6111C28 15.3782 27.2538 16 26.3333 16L17 15.9987V9.33332H15V15.9987L5.66667 16C4.74619 16 4 15.3782 4 14.6111V10.7222C4 9.95515 4.74619 9.33332 5.66667 9.33332L9.01586 9.33538C8.58384 8.66142 8.33333 7.85996 8.33333 6.99999C8.33333 4.60676 10.2734 2.66666 12.6667 2.66666C14.0074 2.66666 15.2059 3.27554 16.0008 4.23187C16.7941 3.27554 17.9926 2.66666 19.3333 2.66666ZM12.6667 4.66666C11.378 4.66666 10.3333 5.71133 10.3333 6.99999C10.3333 8.22422 11.2761 9.22825 12.4753 9.32559L12.6667 9.33332H15V6.99999L14.9923 6.80862C14.8949 5.60947 13.8909 4.66666 12.6667 4.66666ZM19.3333 4.66666C18.0447 4.66666 17 5.71133 17 6.99999V9.33332H19.3333C20.622 9.33332 21.6667 8.28865 21.6667 6.99999C21.6667 5.71133 20.622 4.66666 19.3333 4.66666Z" fill="currentColor"/></svg>
