<svg viewBox="0 0 32 32" fill="none" xmlns="http://www.w3.org/2000/svg"><path d="M20.3381 2.66666C21.8825 2.66666 23.1543 3.83364 23.3198 5.33391L25.0102 5.33332C26.2344 5.33332 27.2384 6.27614 27.3358 7.47529L27.3435 7.66666V11.6667C27.3435 13.9774 25.5349 15.8657 23.2561 15.9931L22.9757 16.001C22.0853 18.7879 19.6444 20.882 16.6676 21.269L16.6668 23.3333H19.0047C21.3154 23.3333 23.2037 25.1419 23.3312 27.4208L23.3381 27.6667V28.3333C23.3381 28.8396 22.9619 29.258 22.4738 29.3242L22.3381 29.3333H9.00071C8.49445 29.3333 8.07605 28.9571 8.00983 28.469L8.00071 28.3333V27.6667C8.00071 25.3559 9.80931 23.4677 12.0881 23.3402L12.334 23.3333H14.6668L14.6672 21.2684C11.6922 20.8801 9.25313 18.7867 8.3631 16.001L8.32808 16C5.93485 16 3.99475 14.0599 3.99475 11.6667V7.66666C3.99475 6.37799 5.03942 5.33332 6.32808 5.33332L8.01895 5.33391C8.1845 3.83364 9.45632 2.66666 11.0007 2.66666H20.3381ZM25.0102 7.33332H23.3381V13.9771C24.4048 13.8271 25.24 12.9558 25.3346 11.8722L25.3435 11.6667V7.66666C25.3435 7.50886 25.2338 7.37667 25.0866 7.34213L25.0102 7.33332ZM8.00071 7.33332H6.32808C6.14399 7.33332 5.99475 7.48256 5.99475 7.66666V11.6667C5.99475 12.8442 6.86704 13.818 8.00071 13.9772V7.33332Z" fill="currentColor"/></svg>
