<svg viewBox="0 0 32 32" fill="none" xmlns="http://www.w3.org/2000/svg"><path d="M29.317 14.6594L29.3178 21.7008C29.3178 23.6509 27.7955 25.2454 25.8745 25.3608L25.6511 25.3675H6.34731C4.39727 25.3675 2.80278 23.8452 2.68734 21.9242L2.68065 21.7008L2.67969 14.6594H29.317ZM24.3365 19.3331H21.0031L20.8674 19.3422C20.3793 19.4084 20.0031 19.8268 20.0031 20.3331C20.0031 20.8393 20.3793 21.2577 20.8674 21.324L21.0031 21.3331H24.3365L24.4722 21.324C24.9603 21.2577 25.3365 20.8393 25.3365 20.3331C25.3365 19.8268 24.9603 19.4084 24.4722 19.3422L24.3365 19.3331ZM25.6511 6.69403C27.6011 6.69403 29.1956 8.2163 29.3111 10.1373L29.3178 10.3607L29.317 12.6594H2.67969L2.68065 10.3607C2.68065 8.41066 4.20292 6.81616 6.12395 6.70072L6.34731 6.69403H25.6511Z" fill="currentColor"/></svg>
