<svg viewBox="0 0 32 32" fill="none" xmlns="http://www.w3.org/2000/svg"><path fill-rule="evenodd" clip-rule="evenodd" d="M10.6666 4C10.2709 4 9.89566 4.17576 9.64233 4.47975L2.97566 12.4798C2.56651 12.9707 2.5633 13.683 2.96802 14.1777L14.968 28.8443C15.2213 29.1538 15.6 29.3333 16 29.3333C16.3999 29.3333 16.7787 29.1538 17.0319 28.8443L29.0319 14.1777C29.4366 13.683 29.4334 12.9707 29.0243 12.4798L22.3576 4.47975C22.1043 4.17576 21.729 4 21.3333 4H10.6666ZM6.84668 12L11.2911 6.66667H12.5639L10.4306 12H6.84668ZM13.3027 12L15.436 6.66667H16.5639L18.6972 12H13.3027ZM18.8871 14.6667H13.1128L16 24.531L18.8871 14.6667ZM19.7048 21.3663L21.6656 14.6667H25.1863L19.7048 21.3663ZM21.5693 12L19.436 6.66667H20.7088L25.1532 12H21.5693ZM6.81362 14.6667H10.3343L12.2952 21.3663L6.81362 14.6667Z" fill="currentColor"/></svg>
